<mxfile host="app.diagrams.net" agent="Mozilla/5.0 (X11; Linux x86_64; rv:144.0) Gecko/20100101 Firefox/144.0" version="28.2.8">
  <diagram name="Страница — 1" id="tg3USUmfea0GnftBFbyw">
    <mxGraphModel dx="1975" dy="520" grid="0" gridSize="10" guides="1" tooltips="1" connect="1" arrows="1" fold="1" page="1" pageScale="1" pageWidth="827" pageHeight="1169" math="0" shadow="0">
      <root>
        <mxCell id="0" />
        <mxCell id="1" parent="0" />
        <mxCell id="JiDbIx2vVGZ_7LprIlS1-1" value="" style="rounded=1;whiteSpace=wrap;html=1;movable=1;resizable=1;rotatable=1;deletable=1;editable=1;locked=0;connectable=1;labelPosition=center;verticalLabelPosition=middle;align=center;verticalAlign=middle;flipH=1;" parent="1" vertex="1">
          <mxGeometry x="27.5" y="42" width="680" height="340" as="geometry" />
        </mxCell>
        <mxCell id="JiDbIx2vVGZ_7LprIlS1-6" value="" style="group" parent="1" vertex="1" connectable="0">
          <mxGeometry x="474" y="100" width="68" height="91" as="geometry" />
        </mxCell>
        <mxCell id="JiDbIx2vVGZ_7LprIlS1-7" value="" style="rounded=1;whiteSpace=wrap;html=1;strokeColor=#FFFFFF;container=0;" parent="JiDbIx2vVGZ_7LprIlS1-6" vertex="1">
          <mxGeometry width="42" height="80" as="geometry" />
        </mxCell>
        <mxCell id="JiDbIx2vVGZ_7LprIlS1-8" value="" style="sketch=0;points=[[0.015,0.015,0],[0.985,0.015,0],[0.985,0.985,0],[0.015,0.985,0],[0.25,0,0],[0.5,0,0],[0.75,0,0],[1,0.25,0],[1,0.5,0],[1,0.75,0],[0.75,1,0],[0.5,1,0],[0.25,1,0],[0,0.75,0],[0,0.5,0],[0,0.25,0]];verticalLabelPosition=bottom;html=1;verticalAlign=top;aspect=fixed;align=center;pointerEvents=1;shape=mxgraph.cisco19.server;fillColor=#005073;strokeColor=none;fontSize=10;container=0;" parent="JiDbIx2vVGZ_7LprIlS1-6" vertex="1">
          <mxGeometry width="44" height="80" as="geometry" />
        </mxCell>
        <mxCell id="JiDbIx2vVGZ_7LprIlS1-9" value="" style="image;sketch=0;aspect=fixed;html=1;points=[];align=center;fontSize=12;image=img/lib/mscae/Active_Directory.svg;" parent="JiDbIx2vVGZ_7LprIlS1-6" vertex="1">
          <mxGeometry x="28" y="58" width="32" height="32" as="geometry" />
        </mxCell>
        <mxCell id="qKras6gi_AzTFav5Ec5C-1" value="Домен оперативно-технологического управления (ДОТУ)" style="text;html=1;whiteSpace=wrap;strokeColor=none;fillColor=none;align=center;verticalAlign=middle;rounded=0;fontSize=16;fontStyle=1" parent="1" vertex="1">
          <mxGeometry x="40" y="55" width="330" height="60" as="geometry" />
        </mxCell>
        <mxCell id="qKras6gi_AzTFav5Ec5C-3" value="СУБД" style="text;html=1;whiteSpace=wrap;strokeColor=none;fillColor=none;align=center;verticalAlign=middle;rounded=0;fontSize=14;" parent="1" vertex="1">
          <mxGeometry x="384.42" y="231.5" width="60" height="30" as="geometry" />
        </mxCell>
        <mxCell id="qKras6gi_AzTFav5Ec5C-5" value="АРМ диспетчера" style="text;html=1;whiteSpace=wrap;strokeColor=none;fillColor=none;align=center;verticalAlign=middle;rounded=0;fontSize=14;" parent="1" vertex="1">
          <mxGeometry x="45" y="220" width="140" height="20" as="geometry" />
        </mxCell>
        <mxCell id="qKras6gi_AzTFav5Ec5C-6" value="" style="group" parent="1" vertex="1" connectable="0">
          <mxGeometry x="250" y="260" width="80" height="96" as="geometry" />
        </mxCell>
        <mxCell id="qKras6gi_AzTFav5Ec5C-7" value="" style="rounded=1;whiteSpace=wrap;html=1;strokeColor=#FFFFFF;container=0;" parent="qKras6gi_AzTFav5Ec5C-6" vertex="1">
          <mxGeometry width="49.41176470588235" height="89.30232558139535" as="geometry" />
        </mxCell>
        <mxCell id="qKras6gi_AzTFav5Ec5C-8" value="" style="sketch=0;points=[[0.015,0.015,0],[0.985,0.015,0],[0.985,0.985,0],[0.015,0.985,0],[0.25,0,0],[0.5,0,0],[0.75,0,0],[1,0.25,0],[1,0.5,0],[1,0.75,0],[0.75,1,0],[0.5,1,0],[0.25,1,0],[0,0.75,0],[0,0.5,0],[0,0.25,0]];verticalLabelPosition=bottom;html=1;verticalAlign=top;aspect=fixed;align=center;pointerEvents=1;shape=mxgraph.cisco19.server;fillColor=#005073;strokeColor=none;fontSize=10;container=0;" parent="qKras6gi_AzTFav5Ec5C-6" vertex="1">
          <mxGeometry width="49.116279069767444" height="89.30232558139535" as="geometry" />
        </mxCell>
        <mxCell id="qKras6gi_AzTFav5Ec5C-9" value="" style="whiteSpace=wrap;html=1;strokeColor=none;fillColor=#E6E6E6;container=0;" parent="qKras6gi_AzTFav5Ec5C-6" vertex="1">
          <mxGeometry x="36.41176470588235" y="68.91162790697676" width="42.4705882352941" height="25.004651162790704" as="geometry" />
        </mxCell>
        <mxCell id="qKras6gi_AzTFav5Ec5C-10" value="" style="sketch=0;pointerEvents=1;shadow=0;dashed=0;html=1;strokeColor=none;fillColor=#505050;labelPosition=center;verticalLabelPosition=bottom;verticalAlign=top;outlineConnect=0;align=center;shape=mxgraph.office.concepts.application_generic;container=0;" parent="qKras6gi_AzTFav5Ec5C-6" vertex="1">
          <mxGeometry x="35.29411764705882" y="64.74418604651163" width="44.70588235294117" height="31.25581395348837" as="geometry" />
        </mxCell>
        <mxCell id="qKras6gi_AzTFav5Ec5C-11" value="Серверы приложений (с ТУ)" style="text;html=1;whiteSpace=wrap;strokeColor=none;fillColor=none;align=center;verticalAlign=middle;rounded=0;fontSize=14;" parent="1" vertex="1">
          <mxGeometry x="210" y="220" width="140" height="30" as="geometry" />
        </mxCell>
        <mxCell id="qKras6gi_AzTFav5Ec5C-12" value="Служба каталогов AD" style="text;html=1;whiteSpace=wrap;strokeColor=none;fillColor=none;align=center;verticalAlign=middle;rounded=0;fontSize=14;" parent="1" vertex="1">
          <mxGeometry x="413" y="70" width="160" height="30" as="geometry" />
        </mxCell>
        <mxCell id="qKras6gi_AzTFav5Ec5C-13" value="" style="group" parent="1" vertex="1" connectable="0">
          <mxGeometry x="536" y="261.25" width="90" height="98.5" as="geometry" />
        </mxCell>
        <mxCell id="qKras6gi_AzTFav5Ec5C-14" value="" style="rounded=1;whiteSpace=wrap;html=1;strokeColor=#FFFFFF;container=0;" parent="qKras6gi_AzTFav5Ec5C-13" vertex="1">
          <mxGeometry width="55.588235294117645" height="91.62790697674419" as="geometry" />
        </mxCell>
        <mxCell id="qKras6gi_AzTFav5Ec5C-15" value="" style="sketch=0;points=[[0.015,0.015,0],[0.985,0.015,0],[0.985,0.985,0],[0.015,0.985,0],[0.25,0,0],[0.5,0,0],[0.75,0,0],[1,0.25,0],[1,0.5,0],[1,0.75,0],[0.75,1,0],[0.5,1,0],[0.25,1,0],[0,0.75,0],[0,0.5,0],[0,0.25,0]];verticalLabelPosition=bottom;html=1;verticalAlign=top;aspect=fixed;align=center;pointerEvents=1;shape=mxgraph.cisco19.server;fillColor=#005073;strokeColor=none;fontSize=10;container=0;" parent="qKras6gi_AzTFav5Ec5C-13" vertex="1">
          <mxGeometry width="50.395348837209305" height="91.62790697674419" as="geometry" />
        </mxCell>
        <mxCell id="qKras6gi_AzTFav5Ec5C-16" value="" style="whiteSpace=wrap;html=1;strokeColor=none;fillColor=#E6E6E6;container=0;" parent="qKras6gi_AzTFav5Ec5C-13" vertex="1">
          <mxGeometry x="40.96323529411765" y="70.70620155038762" width="47.77941176470588" height="25.65581395348838" as="geometry" />
        </mxCell>
        <mxCell id="qKras6gi_AzTFav5Ec5C-17" value="" style="sketch=0;pointerEvents=1;shadow=0;dashed=0;html=1;strokeColor=none;fillColor=#505050;labelPosition=center;verticalLabelPosition=bottom;verticalAlign=top;outlineConnect=0;align=center;shape=mxgraph.office.concepts.application_generic;container=0;" parent="qKras6gi_AzTFav5Ec5C-13" vertex="1">
          <mxGeometry x="39.705882352941174" y="66.43023255813954" width="50.29411764705882" height="32.06976744186046" as="geometry" />
        </mxCell>
        <mxCell id="qKras6gi_AzTFav5Ec5C-18" value="Серверы приложений (без ТУ)" style="text;html=1;whiteSpace=wrap;strokeColor=none;fillColor=none;align=center;verticalAlign=middle;rounded=0;fontSize=14;" parent="1" vertex="1">
          <mxGeometry x="490" y="220" width="140" height="30" as="geometry" />
        </mxCell>
        <mxCell id="qKras6gi_AzTFav5Ec5C-19" value="" style="group" parent="1" vertex="1" connectable="0">
          <mxGeometry x="630" y="100" width="68" height="91" as="geometry" />
        </mxCell>
        <mxCell id="qKras6gi_AzTFav5Ec5C-20" value="" style="rounded=1;whiteSpace=wrap;html=1;strokeColor=#FFFFFF;container=0;" parent="qKras6gi_AzTFav5Ec5C-19" vertex="1">
          <mxGeometry width="42" height="80" as="geometry" />
        </mxCell>
        <mxCell id="qKras6gi_AzTFav5Ec5C-21" value="" style="sketch=0;points=[[0.015,0.015,0],[0.985,0.015,0],[0.985,0.985,0],[0.015,0.985,0],[0.25,0,0],[0.5,0,0],[0.75,0,0],[1,0.25,0],[1,0.5,0],[1,0.75,0],[0.75,1,0],[0.5,1,0],[0.25,1,0],[0,0.75,0],[0,0.5,0],[0,0.25,0]];verticalLabelPosition=bottom;html=1;verticalAlign=top;aspect=fixed;align=center;pointerEvents=1;shape=mxgraph.cisco19.server;fillColor=#005073;strokeColor=none;fontSize=10;container=0;" parent="qKras6gi_AzTFav5Ec5C-19" vertex="1">
          <mxGeometry width="44" height="80" as="geometry" />
        </mxCell>
        <mxCell id="qKras6gi_AzTFav5Ec5C-22" value="" style="image;aspect=fixed;html=1;points=[];align=center;fontSize=12;image=img/lib/azure2/app_services/App_Service_Domains.svg;" parent="qKras6gi_AzTFav5Ec5C-19" vertex="1">
          <mxGeometry x="26" y="58.5" width="37.5" height="30" as="geometry" />
        </mxCell>
        <mxCell id="qKras6gi_AzTFav5Ec5C-23" value="WEB - сервисы" style="text;html=1;whiteSpace=wrap;strokeColor=none;fillColor=none;align=center;verticalAlign=middle;rounded=0;fontSize=14;" parent="1" vertex="1">
          <mxGeometry x="600" y="70" width="110" height="30" as="geometry" />
        </mxCell>
        <mxCell id="qKras6gi_AzTFav5Ec5C-37" value="" style="points=[[0.25,0,0],[0.5,0,0],[0.75,0,0],[1,0.25,0],[1,0.5,0],[1,0.75,0],[0.75,1,0],[0.5,1,0],[0.25,1,0],[0,0.75,0],[0,0.5,0],[0,0.25,0]];rounded=1;arcSize=10;dashed=1;fillColor=none;gradientColor=none;dashPattern=8 8;strokeWidth=2;whiteSpace=wrap;html=1;strokeColor=light-dark(#a51d2d, #ededed);" parent="1" vertex="1">
          <mxGeometry x="30" y="460.73" width="665" height="389.27" as="geometry" />
        </mxCell>
        <mxCell id="Yt7thMcMbfZu-RDhDGTs-90" value="" style="edgeStyle=orthogonalEdgeStyle;rounded=0;orthogonalLoop=1;jettySize=auto;html=1;fontSize=12;strokeWidth=2;" parent="1" source="qKras6gi_AzTFav5Ec5C-38" edge="1">
          <mxGeometry relative="1" as="geometry">
            <mxPoint x="560" y="360" as="targetPoint" />
            <Array as="points">
              <mxPoint x="360" y="431" />
              <mxPoint x="560" y="431" />
            </Array>
          </mxGeometry>
        </mxCell>
        <mxCell id="qKras6gi_AzTFav5Ec5C-38" value="" style="rounded=1;whiteSpace=wrap;html=1;" parent="1" vertex="1">
          <mxGeometry x="137" y="470" width="535" height="298.83" as="geometry" />
        </mxCell>
        <mxCell id="qKras6gi_AzTFav5Ec5C-178" value="" style="edgeStyle=orthogonalEdgeStyle;rounded=0;orthogonalLoop=1;jettySize=auto;html=1;" parent="1" edge="1">
          <mxGeometry relative="1" as="geometry">
            <Array as="points">
              <mxPoint x="310" y="620" />
              <mxPoint x="364" y="620" />
            </Array>
            <mxPoint x="310" y="650" as="sourcePoint" />
            <mxPoint x="364" y="596.79" as="targetPoint" />
          </mxGeometry>
        </mxCell>
        <mxCell id="qKras6gi_AzTFav5Ec5C-180" value="" style="edgeStyle=orthogonalEdgeStyle;rounded=0;orthogonalLoop=1;jettySize=auto;html=1;entryX=0.5;entryY=1;entryDx=0;entryDy=0;" parent="1" edge="1">
          <mxGeometry relative="1" as="geometry">
            <mxPoint x="310" y="650" as="sourcePoint" />
            <mxPoint x="252" y="596.7899999999997" as="targetPoint" />
            <Array as="points">
              <mxPoint x="310" y="620" />
              <mxPoint x="252" y="620" />
            </Array>
          </mxGeometry>
        </mxCell>
        <mxCell id="qKras6gi_AzTFav5Ec5C-122" value="" style="shape=image;verticalLabelPosition=bottom;verticalAlign=top;imageAspect=0;aspect=fixed;image=data:image/svg+xml,PHN2ZyB4bWxuczpzdmc9Imh0dHA6Ly93d3cudzMub3JnLzIwMDAvc3ZnIiB4bWxucz0iaHR0cDovL3d3dy53My5vcmcvMjAwMC9zdmciIHhtbG5zOnhsaW5rPSJodHRwOi8vd3d3LnczLm9yZy8xOTk5L3hsaW5rIiB2ZXJzaW9uPSIxLjAiIHdpZHRoPSIxMjgiIGhlaWdodD0iMTI4IiBpZD0ic3ZnMjEwOCIgdmlld0JveD0iMCAwIDEyOCAxMjgiPiYjeGE7ICA8ZGVmcyBpZD0iZGVmczMiPiYjeGE7ICAgIDxsaW5lYXJHcmFkaWVudCBpZD0ibGluZWFyR3JhZGllbnQyMjQ1Ij4mI3hhOyAgICAgIDxzdG9wIGlkPSJzdG9wMjI0NyIgc3R5bGU9InN0b3AtY29sb3I6I2RkZTFkOTtzdG9wLW9wYWNpdHk6MSIgb2Zmc2V0PSIwIi8+JiN4YTsgICAgICA8c3RvcCBpZD0ic3RvcDIyNDkiIHN0eWxlPSJzdG9wLWNvbG9yOiNjYWNkYzY7c3RvcC1vcGFjaXR5OjEiIG9mZnNldD0iMSIvPiYjeGE7ICAgIDwvbGluZWFyR3JhZGllbnQ+JiN4YTsgICAgPGxpbmVhckdyYWRpZW50IGlkPSJsaW5lYXJHcmFkaWVudDIyNTMiPiYjeGE7ICAgICAgPHN0b3AgaWQ9InN0b3AyMjU1IiBzdHlsZT0ic3RvcC1jb2xvcjojOGY4ZjhmO3N0b3Atb3BhY2l0eToxIiBvZmZzZXQ9IjAiLz4mI3hhOyAgICAgIDxzdG9wIGlkPSJzdG9wMjI1NyIgc3R5bGU9InN0b3AtY29sb3I6IzQ5NDk0OTtzdG9wLW9wYWNpdHk6MSIgb2Zmc2V0PSIxIi8+JiN4YTsgICAgPC9saW5lYXJHcmFkaWVudD4mI3hhOyAgICA8bGluZWFyR3JhZGllbnQgaWQ9ImxpbmVhckdyYWRpZW50MjY2NyI+JiN4YTsgICAgICA8c3RvcCBpZD0ic3RvcDI2NjkiIHN0eWxlPSJzdG9wLWNvbG9yOiNmZmZmZmY7c3RvcC1vcGFjaXR5OjEiIG9mZnNldD0iMCIvPiYjeGE7ICAgICAgPHN0b3AgaWQ9InN0b3AyNjcxIiBzdHlsZT0ic3RvcC1jb2xvcjojZmNmY2ZmO3N0b3Atb3BhY2l0eTowIiBvZmZzZXQ9IjEiLz4mI3hhOyAgICA8L2xpbmVhckdyYWRpZW50PiYjeGE7ICAgIDxsaW5lYXJHcmFkaWVudCBpZD0ibGluZWFyR3JhZGllbnQyNzAxIj4mI3hhOyAgICAgIDxzdG9wIGlkPSJzdG9wMjcwMyIgc3R5bGU9InN0b3AtY29sb3I6IzU4NTk1NjtzdG9wLW9wYWNpdHk6MSIgb2Zmc2V0PSIwIi8+JiN4YTsgICAgICA8c3RvcCBpZD0ic3RvcDI3MDUiIHN0eWxlPSJzdG9wLWNvbG9yOiNiYmJlYjg7c3RvcC1vcGFjaXR5OjEiIG9mZnNldD0iMSIvPiYjeGE7ICAgIDwvbGluZWFyR3JhZGllbnQ+JiN4YTsgICAgPGxpbmVhckdyYWRpZW50IGlkPSJsaW5lYXJHcmFkaWVudDI3MTEiPiYjeGE7ICAgICAgPHN0b3AgaWQ9InN0b3AyNzEzIiBzdHlsZT0ic3RvcC1jb2xvcjojOTA5MDkwO3N0b3Atb3BhY2l0eToxIiBvZmZzZXQ9IjAiLz4mI3hhOyAgICAgIDxzdG9wIGlkPSJzdG9wMjcxNSIgc3R5bGU9InN0b3AtY29sb3I6I2JlYmViZTtzdG9wLW9wYWNpdHk6MCIgb2Zmc2V0PSIxIi8+JiN4YTsgICAgPC9saW5lYXJHcmFkaWVudD4mI3hhOyAgICA8bGluZWFyR3JhZGllbnQgaWQ9ImxpbmVhckdyYWRpZW50MjQxNSI+JiN4YTsgICAgICA8c3RvcCBpZD0ic3RvcDI0MTciIHN0eWxlPSJzdG9wLWNvbG9yOiNmZmZmZmY7c3RvcC1vcGFjaXR5OjEiIG9mZnNldD0iMCIvPiYjeGE7ICAgICAgPHN0b3AgaWQ9InN0b3AyNDE5IiBzdHlsZT0ic3RvcC1jb2xvcjojZmZmZmZmO3N0b3Atb3BhY2l0eTowIiBvZmZzZXQ9IjEiLz4mI3hhOyAgICA8L2xpbmVhckdyYWRpZW50PiYjeGE7ICAgIDxsaW5lYXJHcmFkaWVudCBpZD0ibGluZWFyR3JhZGllbnQyNDU0Ij4mI3hhOyAgICAgIDxzdG9wIGlkPSJzdG9wMjQ1NiIgc3R5bGU9InN0b3AtY29sb3I6IzAwMDAwMDtzdG9wLW9wYWNpdHk6MSIgb2Zmc2V0PSIwIi8+JiN4YTsgICAgICA8c3RvcCBpZD0ic3RvcDI0NTgiIHN0eWxlPSJzdG9wLWNvbG9yOiMwMDAwMDA7c3RvcC1vcGFjaXR5OjAiIG9mZnNldD0iMSIvPiYjeGE7ICAgIDwvbGluZWFyR3JhZGllbnQ+JiN4YTsgICAgPGxpbmVhckdyYWRpZW50IGlkPSJsaW5lYXJHcmFkaWVudDI2MzUiPiYjeGE7ICAgICAgPHN0b3AgaWQ9InN0b3AyNjM3IiBzdHlsZT0ic3RvcC1jb2xvcjojZjlmZmY1O3N0b3Atb3BhY2l0eToxIiBvZmZzZXQ9IjAiLz4mI3hhOyAgICAgIDxzdG9wIGlkPSJzdG9wMjYzOSIgc3R5bGU9InN0b3AtY29sb3I6I2Y5ZmZmNTtzdG9wLW9wYWNpdHk6MCIgb2Zmc2V0PSIxIi8+JiN4YTsgICAgPC9saW5lYXJHcmFkaWVudD4mI3hhOyAgICA8bGluZWFyR3JhZGllbnQgaWQ9ImxpbmVhckdyYWRpZW50MjY4MyI+JiN4YTsgICAgICA8c3RvcCBpZD0ic3RvcDI2ODUiIHN0eWxlPSJzdG9wLWNvbG9yOiMwMDAwMDA7c3RvcC1vcGFjaXR5OjEiIG9mZnNldD0iMCIvPiYjeGE7ICAgICAgPHN0b3AgaWQ9InN0b3AyNjg3IiBzdHlsZT0ic3RvcC1jb2xvcjojMDAwMDAwO3N0b3Atb3BhY2l0eTowIiBvZmZzZXQ9IjEiLz4mI3hhOyAgICA8L2xpbmVhckdyYWRpZW50PiYjeGE7ICAgIDxsaW5lYXJHcmFkaWVudCBpZD0ibGluZWFyR3JhZGllbnQyNzUyIj4mI3hhOyAgICAgIDxzdG9wIGlkPSJzdG9wMjc1NCIgc3R5bGU9InN0b3AtY29sb3I6IzlkOWQ5ZDtzdG9wLW9wYWNpdHk6MSIgb2Zmc2V0PSIwIi8+JiN4YTsgICAgICA8c3RvcCBpZD0ic3RvcDI3NTYiIHN0eWxlPSJzdG9wLWNvbG9yOiNiOWI5Yjk7c3RvcC1vcGFjaXR5OjEiIG9mZnNldD0iMSIvPiYjeGE7ICAgIDwvbGluZWFyR3JhZGllbnQ+JiN4YTsgICAgPGxpbmVhckdyYWRpZW50IGlkPSJsaW5lYXJHcmFkaWVudDI5ODUiPiYjeGE7ICAgICAgPHN0b3AgaWQ9InN0b3AyOTg3IiBzdHlsZT0ic3RvcC1jb2xvcjojZDhkZmQ2O3N0b3Atb3BhY2l0eToxIiBvZmZzZXQ9IjAiLz4mI3hhOyAgICAgIDxzdG9wIGlkPSJzdG9wMjk4OSIgc3R5bGU9InN0b3AtY29sb3I6I2Q4ZGZkNjtzdG9wLW9wYWNpdHk6MCIgb2Zmc2V0PSIxIi8+JiN4YTsgICAgPC9saW5lYXJHcmFkaWVudD4mI3hhOyAgICA8bGluZWFyR3JhZGllbnQgaWQ9ImxpbmVhckdyYWRpZW50MzQwMCI+JiN4YTsgICAgICA8c3RvcCBpZD0ic3RvcDM0MDIiIHN0eWxlPSJzdG9wLWNvbG9yOiM0MTZkYjQ7c3RvcC1vcGFjaXR5OjEiIG9mZnNldD0iMCIvPiYjeGE7ICAgICAgPHN0b3AgaWQ9InN0b3AzNDA0IiBzdHlsZT0ic3RvcC1jb2xvcjojMzg1ZTliO3N0b3Atb3BhY2l0eToxIiBvZmZzZXQ9IjEiLz4mI3hhOyAgICA8L2xpbmVhckdyYWRpZW50PiYjeGE7ICAgIDxyYWRpYWxHcmFkaWVudCBjeD0iMTIuNTc1NzEiIGN5PSI2Ny41MDE3MDkiIHI9IjguNzY2Mjc5MiIgZng9IjEyLjU3NTcxIiBmeT0iNjcuNTAxNzA5IiBpZD0icmFkaWFsR3JhZGllbnQzMDkyOCIgeGxpbms6aHJlZj0iI2xpbmVhckdyYWRpZW50MjQ1NCIgZ3JhZGllbnRVbml0cz0idXNlclNwYWNlT25Vc2UiIGdyYWRpZW50VHJhbnNmb3JtPSJzY2FsZSgxLjkyNTgwOCwwLjUxOTI2MikiLz4mI3hhOyAgICA8bGluZWFyR3JhZGllbnQgeDE9Ii0yMy44ODU3IiB5MT0iNDkuOTUzMDAzIiB4Mj0iLTIzLjg4NTciIHkyPSI0NC44Nzg4ODMiIGlkPSJsaW5lYXJHcmFkaWVudDMwOTMwIiB4bGluazpocmVmPSIjbGluZWFyR3JhZGllbnQyOTg1IiBncmFkaWVudFVuaXRzPSJ1c2VyU3BhY2VPblVzZSIgZ3JhZGllbnRUcmFuc2Zvcm09InNjYWxlKDEuNDkyODc1LDAuNjY5ODQ4KSIvPiYjeGE7ICAgIDxyYWRpYWxHcmFkaWVudCBjeD0iMTIuNTc1NzEiIGN5PSI2Ny41MDE3MDkiIHI9IjguNzY2Mjc5MiIgZng9IjEyLjU3NTcxIiBmeT0iNjcuNTAxNzA5IiBpZD0icmFkaWFsR3JhZGllbnQzMDkzMiIgeGxpbms6aHJlZj0iI2xpbmVhckdyYWRpZW50MjQ1NCIgZ3JhZGllbnRVbml0cz0idXNlclNwYWNlT25Vc2UiIGdyYWRpZW50VHJhbnNmb3JtPSJzY2FsZSgxLjkyNTgwOCwwLjUxOTI2MikiLz4mI3hhOyAgICA8bGluZWFyR3JhZGllbnQgeDE9IjEyLjIwNjcwOSIgeTE9IjUzLjUzNTE0MSIgeDI9IjEyLjEyNzcxMSIgeTI9IjY0Ljg5MjUyNSIgaWQ9ImxpbmVhckdyYWRpZW50MzA5MzQiIHhsaW5rOmhyZWY9IiNsaW5lYXJHcmFkaWVudDI3MDEiIGdyYWRpZW50VW5pdHM9InVzZXJTcGFjZU9uVXNlIiBncmFkaWVudFRyYW5zZm9ybT0ic2NhbGUoMS44MTYzNDUsMC41NTA1NTYpIi8+JiN4YTsgICAgPGxpbmVhckdyYWRpZW50IHgxPSI4LjYxMTYyMzgiIHkxPSI3LjIyOTM1ODIiIHgyPSIzNC43ODQ0NzMiIHkyPSIzMy4zMzk3ODciIGlkPSJsaW5lYXJHcmFkaWVudDMwOTM2IiB4bGluazpocmVmPSIjbGluZWFyR3JhZGllbnQyMjQ1IiBncmFkaWVudFVuaXRzPSJ1c2VyU3BhY2VPblVzZSIgZ3JhZGllbnRUcmFuc2Zvcm09Im1hdHJpeCgxLjEyOTg2MywwLDAsMC44ODUwNjMsLTEuNjI1LC0xLjMwNDM3MikiLz4mI3hhOyAgICA8bGluZWFyR3JhZGllbnQgeDE9IjEwLjM5MDczOCIgeTE9IjUuMzgxNzc0NCIgeDI9IjMyLjUzNjgyMyIgeTI9IjMxLjI0NjA1NCIgaWQ9ImxpbmVhckdyYWRpZW50MzA5MzgiIHhsaW5rOmhyZWY9IiNsaW5lYXJHcmFkaWVudDIyNTMiIGdyYWRpZW50VW5pdHM9InVzZXJTcGFjZU9uVXNlIiBncmFkaWVudFRyYW5zZm9ybT0ic2NhbGUoMS4xMDQzOTcsMC45MDU0NzEpIi8+JiN4YTsgICAgPGxpbmVhckdyYWRpZW50IHgxPSItNTcuNTQ3Mjc2IiB5MT0iMzguNjUyNTMxIiB4Mj0iLTU3LjQ5NTQ5OSIgeTI9IjE1LjMyMzQ4NyIgaWQ9ImxpbmVhckdyYWRpZW50MzA5NDAiIHhsaW5rOmhyZWY9IiNsaW5lYXJHcmFkaWVudDM0MDAiIGdyYWRpZW50VW5pdHM9InVzZXJTcGFjZU9uVXNlIiBncmFkaWVudFRyYW5zZm9ybT0ibWF0cml4KDAuNzc5MzQsMCwwLDAuNzc5MzQsNzMuNjM4OSwtNS45NDYxMDIpIi8+JiN4YTsgICAgPGxpbmVhckdyYWRpZW50IHgxPSIzLjcwNjk5NzYiIHkxPSIxNzEuMjkxMzQiIHgyPSIzLjcwNjk5NzQiIHkyPSIxNjIuNDUwNjEiIGlkPSJsaW5lYXJHcmFkaWVudDMwOTQyIiB4bGluazpocmVmPSIjbGluZWFyR3JhZGllbnQyNjgzIiBncmFkaWVudFVuaXRzPSJ1c2VyU3BhY2VPblVzZSIgZ3JhZGllbnRUcmFuc2Zvcm09Im1hdHJpeCg1LjcwNTE1OSwwLDAsMC4xNzUyOCwxLC0wLjY3OTM3MykiLz4mI3hhOyAgICA8bGluZWFyR3JhZGllbnQgeDE9IjE3LjY5ODMzOSIgeTE9IjEzLjAwNDcyNSIgeDI9IjM0Ljk3NDU0OCIgeTI9IjU1LjIwMDc1NiIgaWQ9ImxpbmVhckdyYWRpZW50MzA5NDQiIHhsaW5rOmhyZWY9IiNsaW5lYXJHcmFkaWVudDI0MTUiIGdyYWRpZW50VW5pdHM9InVzZXJTcGFjZU9uVXNlIiBncmFkaWVudFRyYW5zZm9ybT0ibWF0cml4KDEuMTA4MDY5LDAsMCwwLjkwMjQ3MSwxLDEpIi8+JiN4YTsgICAgPGxpbmVhckdyYWRpZW50IHgxPSIxMS40OTIyMzYiIHkxPSIxLjY1Mzc1NzciIHgyPSIxNy4xOTk0MTciIHkyPSIyNi43MjkyNjMiIGlkPSJsaW5lYXJHcmFkaWVudDMwOTQ2IiB4bGluazpocmVmPSIjbGluZWFyR3JhZGllbnQyNjY3IiBncmFkaWVudFVuaXRzPSJ1c2VyU3BhY2VPblVzZSIgZ3JhZGllbnRUcmFuc2Zvcm09Im1hdHJpeCgxLjIzODk3NywwLDAsMC44OTU5NTUsMC41OTA1NTMsLTEuMzMxNTI0KSIvPiYjeGE7ICAgIDxyYWRpYWxHcmFkaWVudCBjeD0iMTIuNTc1NzEiIGN5PSI2Ny41MDE3MDkiIHI9IjguNzY2Mjc5MiIgZng9IjEyLjU3NTcxIiBmeT0iNjcuNTAxNzA5IiBpZD0icmFkaWFsR3JhZGllbnQzMDk0OCIgeGxpbms6aHJlZj0iI2xpbmVhckdyYWRpZW50MjQ1NCIgZ3JhZGllbnRVbml0cz0idXNlclNwYWNlT25Vc2UiIGdyYWRpZW50VHJhbnNmb3JtPSJzY2FsZSgxLjkyNTgwOCwwLjUxOTI2MikiLz4mI3hhOyAgICA8bGluZWFyR3JhZGllbnQgeDE9IjE4LjMxNjk5OSIgeTE9IjQ4LjY0MzIzNCIgeDI9IjE4LjE3Njc1MiIgeTI9IjUyLjUzNjQ2MSIgaWQ9ImxpbmVhckdyYWRpZW50MzA5NTAiIHhsaW5rOmhyZWY9IiNsaW5lYXJHcmFkaWVudDIyNDUiIGdyYWRpZW50VW5pdHM9InVzZXJTcGFjZU9uVXNlIiBncmFkaWVudFRyYW5zZm9ybT0ic2NhbGUoMS4xMjk4NjMsMC44ODUwNjMpIi8+JiN4YTsgICAgPGxpbmVhckdyYWRpZW50IHgxPSIxMC4zOTA3MzgiIHkxPSI1LjM4MTc3NDQiIHgyPSIzMi41MzY4MjMiIHkyPSIzMS4yNDYwNTQiIGlkPSJsaW5lYXJHcmFkaWVudDMwOTUyIiB4bGluazpocmVmPSIjbGluZWFyR3JhZGllbnQyMjUzIiBncmFkaWVudFVuaXRzPSJ1c2VyU3BhY2VPblVzZSIgZ3JhZGllbnRUcmFuc2Zvcm09InNjYWxlKDEuMTA0Mzk3LDAuOTA1NDcxKSIvPiYjeGE7ICAgIDxsaW5lYXJHcmFkaWVudCB4MT0iOC4xMTM0MjQzIiB5MT0iODguNTA5MDcxIiB4Mj0iOC4xMTM0MjMzIiB5Mj0iMTAwLjIwMDE1IiBpZD0ibGluZWFyR3JhZGllbnQzMDk1NCIgeGxpbms6aHJlZj0iI2xpbmVhckdyYWRpZW50Mjc1MiIgZ3JhZGllbnRVbml0cz0idXNlclNwYWNlT25Vc2UiIGdyYWRpZW50VHJhbnNmb3JtPSJzY2FsZSgyLjMwOTg1MSwwLjQzMjkyOCkiLz4mI3hhOyAgICA8bGluZWFyR3JhZGllbnQgeDE9IjguMTEzNDI0MyIgeTE9Ijg4LjUwOTA3MSIgeDI9IjguMTEzNDIzMyIgeTI9IjEwMC4yMDAxNSIgaWQ9ImxpbmVhckdyYWRpZW50MzA5NTYiIHhsaW5rOmhyZWY9IiNsaW5lYXJHcmFkaWVudDI3NTIiIGdyYWRpZW50VW5pdHM9InVzZXJTcGFjZU9uVXNlIiBncmFkaWVudFRyYW5zZm9ybT0ic2NhbGUoMi4zMDk4NTEsMC40MzI5MjgpIi8+JiN4YTsgICAgPGxpbmVhckdyYWRpZW50IHgxPSI4LjExMzQyNDMiIHkxPSI4OC41MDkwNzEiIHgyPSI4LjExMzQyMzMiIHkyPSIxMDAuMjAwMTUiIGlkPSJsaW5lYXJHcmFkaWVudDMwOTU4IiB4bGluazpocmVmPSIjbGluZWFyR3JhZGllbnQyNzUyIiBncmFkaWVudFVuaXRzPSJ1c2VyU3BhY2VPblVzZSIgZ3JhZGllbnRUcmFuc2Zvcm09InNjYWxlKDIuMzA5ODUxLDAuNDMyOTI4KSIvPiYjeGE7ICAgIDxsaW5lYXJHcmFkaWVudCB4MT0iMTMuNjI4NzEiIHkxPSIxMDEuMjg0NiIgeDI9IjguNjQ4NTAxNCIgeTI9Ijc0LjA5ODAwNyIgaWQ9ImxpbmVhckdyYWRpZW50MzA5NjAiIHhsaW5rOmhyZWY9IiNsaW5lYXJHcmFkaWVudDI2MzUiIGdyYWRpZW50VW5pdHM9InVzZXJTcGFjZU9uVXNlIiBncmFkaWVudFRyYW5zZm9ybT0ibWF0cml4KDIuMTQzNjM0LDAsMCwwLjQ2NjQ5OCwxLC0wLjUwODgyNikiLz4mI3hhOyAgICA8bGluZWFyR3JhZGllbnQgeDE9IjM0LjMwMDk5MSIgeTE9IjMuOTM4NDA4NiIgeDI9IjM1LjUyMDU0MiIgeTI9IjMuODQ1MTA5NyIgaWQ9ImxpbmVhckdyYWRpZW50MzA5NjIiIHhsaW5rOmhyZWY9IiNsaW5lYXJHcmFkaWVudDI3MTEiIGdyYWRpZW50VW5pdHM9InVzZXJTcGFjZU9uVXNlIi8+JiN4YTsgICAgPGxpbmVhckdyYWRpZW50IHgxPSIzNC4zMDA5OTEiIHkxPSIzLjkzODQwODYiIHgyPSIzNS41MjA1NDIiIHkyPSIzLjg0NTEwOTciIGlkPSJsaW5lYXJHcmFkaWVudDMwOTY0IiB4bGluazpocmVmPSIjbGluZWFyR3JhZGllbnQyNzExIiBncmFkaWVudFVuaXRzPSJ1c2VyU3BhY2VPblVzZSIvPiYjeGE7ICAgIDxsaW5lYXJHcmFkaWVudCB4MT0iMzQuMzAwOTkxIiB5MT0iMy45Mzg0MDg2IiB4Mj0iMzUuNTIwNTQyIiB5Mj0iMy44NDUxMDk3IiBpZD0ibGluZWFyR3JhZGllbnQzMDk2NiIgeGxpbms6aHJlZj0iI2xpbmVhckdyYWRpZW50MjcxMSIgZ3JhZGllbnRVbml0cz0idXNlclNwYWNlT25Vc2UiLz4mI3hhOyAgICA8bGluZWFyR3JhZGllbnQgeDE9IjM0LjMwMDk5MSIgeTE9IjMuOTM4NDA4NiIgeDI9IjM1LjUyMDU0MiIgeTI9IjMuODQ1MTA5NyIgaWQ9ImxpbmVhckdyYWRpZW50MzA5NjgiIHhsaW5rOmhyZWY9IiNsaW5lYXJHcmFkaWVudDI3MTEiIGdyYWRpZW50VW5pdHM9InVzZXJTcGFjZU9uVXNlIi8+JiN4YTsgICAgPGxpbmVhckdyYWRpZW50IHgxPSIzNC4zMDA5OTEiIHkxPSIzLjkzODQwODYiIHgyPSIzNS41MjA1NDIiIHkyPSIzLjg0NTEwOTciIGlkPSJsaW5lYXJHcmFkaWVudDMwOTcwIiB4bGluazpocmVmPSIjbGluZWFyR3JhZGllbnQyNzExIiBncmFkaWVudFVuaXRzPSJ1c2VyU3BhY2VPblVzZSIvPiYjeGE7ICA8L2RlZnM+JiN4YTsgIDxnIGlkPSJsYXllcjEiIHN0eWxlPSJkaXNwbGF5OmlubGluZSIvPiYjeGE7ICA8ZyBpZD0ibGF5ZXIyIiBzdHlsZT0iZGlzcGxheTppbmxpbmUiPiYjeGE7ICAgIDxnIHRyYW5zZm9ybT0ibWF0cml4KDIuNTIzNzUzLDAsMCwyLjUyMzc1MywtMTQuMzY1MDQ5LDM2LjkxMTM1OSkiIGlkPSJnMjg2MCI+JiN4YTsgICAgICA8ZyB0cmFuc2Zvcm09InRyYW5zbGF0ZSg3LjE2NTgzNiwtMTIuOTQwNzkpIiBpZD0iZzM4ODAiPiYjeGE7ICAgICAgICA8cGF0aCBkPSJtIDQxLjEwMDU4LDM1LjA1MTEwNSBjIDAuMDAyNCwyLjUxNDQ1NCAtNy41NTY3MjMsNC41NTMxNjIgLTE2Ljg4MjE3Myw0LjU1MzE2MiAtOS4zMjU0NTEsMCAtMTYuODg0NTU0MywtMi4wMzg3MDggLTE2Ljg4MjE3MzksLTQuNTUzMTYyIC0wLjAwMjM4LC0yLjUxNDQ1NCA3LjU1NjcyMjksLTQuNTUzMTYyIDE2Ljg4MjE3MzksLTQuNTUzMTYyIDkuMzI1NDUsMCAxNi44ODQ1NTMsMi4wMzg3MDggMTYuODgyMTczLDQuNTUzMTYyIHoiIHRyYW5zZm9ybT0ibWF0cml4KDEsMCwwLDEuMzY4OTMyLC0xLjk3ODU1MywtMTMuNjE3MTMpIiBpZD0icGF0aDI4NjIiIHN0eWxlPSJmaWxsOnVybCgjcmFkaWFsR3JhZGllbnQzMDkyOCk7ZmlsbC1vcGFjaXR5OjE7ZmlsbC1ydWxlOmV2ZW5vZGQ7c3Ryb2tlOm5vbmU7c3Ryb2tlLXdpZHRoOjE7bWFya2VyOm5vbmU7dmlzaWJpbGl0eTp2aXNpYmxlO2Rpc3BsYXk6aW5saW5lO292ZXJmbG93OnZpc2libGUiLz4mI3hhOyAgICAgICAgPHBhdGggZD0ibSAtMjYuMjYzOTY4LDI5LjcxNjIzOCBjIDAuMDAxMSwyLjE3NjA5NiAtNC4yMDUyNjcsMy45NDA0MDggLTkuMzk0NDE4LDMuOTQwNDA4IC01LjE4OTE1MiwwIC05LjM5NTQ5LC0xLjc2NDMxMiAtOS4zOTQ0MTksLTMuOTQwNDA4IC0wLjAwMTEsLTIuMTc2MDk2IDQuMjA1MjY3LC0zLjk0MDQwOCA5LjM5NDQxOSwtMy45NDA0MDggNS4xODkxNTEsMCA5LjM5NTQ4OSwxLjc2NDMxMiA5LjM5NDQxOCwzLjk0MDQwOCBsIDAsMCB6IiB0cmFuc2Zvcm09InRyYW5zbGF0ZSg1Ny41MzMzOSwzLjIwMzQyNykiIGlkPSJwYXRoMjg2NCIgc3R5bGU9ImZpbGw6I2FkYjBhYTtmaWxsLW9wYWNpdHk6MTtmaWxsLXJ1bGU6ZXZlbm9kZDtzdHJva2U6IzRiNGQ0YTtzdHJva2Utd2lkdGg6MS4yODMxMzc1NjtzdHJva2UtbGluZWNhcDpidXR0O3N0cm9rZS1saW5lam9pbjptaXRlcjtzdHJva2UtbWl0ZXJsaW1pdDo0O3N0cm9rZS1vcGFjaXR5OjE7c3Ryb2tlLWRhc2hvZmZzZXQ6MDttYXJrZXI6bm9uZTt2aXNpYmlsaXR5OnZpc2libGU7ZGlzcGxheTppbmxpbmU7b3ZlcmZsb3c6dmlzaWJsZSIvPiYjeGE7ICAgICAgICA8cGF0aCBkPSJtIC0yNi4yNjM5NjgsMjkuNzE2MjM4IGMgMC4wMDExLDIuMTc2MDk2IC00LjIwNTI2NywzLjk0MDQwOCAtOS4zOTQ0MTgsMy45NDA0MDggLTUuMTg5MTUyLDAgLTkuMzk1NDksLTEuNzY0MzEyIC05LjM5NDQxOSwtMy45NDA0MDggLTAuMDAxMSwtMi4xNzYwOTYgNC4yMDUyNjcsLTMuOTQwNDA4IDkuMzk0NDE5LC0zLjk0MDQwOCA1LjE4OTE1MSwwIDkuMzk1NDg5LDEuNzY0MzEyIDkuMzk0NDE4LDMuOTQwNDA4IGwgMCwwIHoiIHRyYW5zZm9ybT0ibWF0cml4KDAuOTQwMjczLDAsMCwwLjk0MDI3Myw1NS40MDM2MSw0LjI3MTE5NCkiIGlkPSJwYXRoMjg2NiIgc3R5bGU9ImZpbGw6bm9uZTtzdHJva2U6IzdiN2Y3YTtzdHJva2Utd2lkdGg6MS4yODMxMzc1NjtzdHJva2UtbGluZWNhcDpidXR0O3N0cm9rZS1saW5lam9pbjptaXRlcjtzdHJva2UtbWl0ZXJsaW1pdDo0O3N0cm9rZS1vcGFjaXR5OjE7c3Ryb2tlLWRhc2hvZmZzZXQ6MDttYXJrZXI6bm9uZTt2aXNpYmlsaXR5OnZpc2libGU7ZGlzcGxheTppbmxpbmU7b3ZlcmZsb3c6dmlzaWJsZSIvPiYjeGE7ICAgICAgICA8cGF0aCBkPSJtIC0yNi4yNjM5NjgsMjkuNzE2MjM4IGMgMC4wMDExLDIuMTc2MDk2IC00LjIwNTI2NywzLjk0MDQwOCAtOS4zOTQ0MTgsMy45NDA0MDggLTUuMTg5MTUyLDAgLTkuMzk1NDksLTEuNzY0MzEyIC05LjM5NDQxOSwtMy45NDA0MDggLTAuMDAxMSwtMi4xNzYwOTYgNC4yMDUyNjcsLTMuOTQwNDA4IDkuMzk0NDE5LC0zLjk0MDQwOCA1LjE4OTE1MSwwIDkuMzk1NDg5LDEuNzY0MzEyIDkuMzk0NDE4LDMuOTQwNDA4IGwgMCwwIHoiIHRyYW5zZm9ybT0ibWF0cml4KDAuOTQwMjczLDAsMCwwLjk0MDI3Myw1NS40MDM2MSwzLjUyMTE5NCkiIGlkPSJwYXRoMjg2OCIgc3R5bGU9ImZpbGw6bm9uZTtzdHJva2U6dXJsKCNsaW5lYXJHcmFkaWVudDMwOTMwKTtzdHJva2Utd2lkdGg6MC44NzMzNzE5O3N0cm9rZS1saW5lY2FwOmJ1dHQ7c3Ryb2tlLWxpbmVqb2luOm1pdGVyO3N0cm9rZS1taXRlcmxpbWl0OjQ7c3Ryb2tlLW9wYWNpdHk6MTtzdHJva2UtZGFzaG9mZnNldDowO21hcmtlcjpub25lO3Zpc2liaWxpdHk6dmlzaWJsZTtkaXNwbGF5OmlubGluZTtvdmVyZmxvdzp2aXNpYmxlIi8+JiN4YTsgICAgICAgIDxwYXRoIGQ9Im0gMjUuNjg3NSwyOC43NjYyNDMgLTAuMDYyNSwxIGMgMCwwIDQuMzI0MTA4LDMuNTk5MTY2IDksNC4yMDI1MDcgMi4zMzc5NDYsMC4zMDE2NyA0Ljc1MzY3NSwwLjcwMjQxMiA2Ljc1LDEuMTg3NSAxLjk5NjMyNSwwLjQ4NTA4OCAzLjU4ODM1NiwxLjExOTYwNiA0LjEyNSwxLjY1NjI1IDAuMzEwNDExLDAuMzEwNDExIDAuNDUxMDYzLDAuNTczNjM5IDAuNSwwLjc4MTI1IDAuMDQ4OTQsMC4yMDc2MTEgMC4wMzgyMiwwLjM1NDgxNSAtMC4wOTM3NSwwLjU2MjUgLTAuMjYzOTMzLDAuNDE1MzcgLTEuMDc5ODU3LDAuOTY3NjUyIC0yLjQ2ODc1LDEuNDA2MjUgQyA0MC42NTk3MTUsNDAuNDM5Njk1IDM1LjcxNzA3Niw0MSAyOC44NzUsNDEgbCAwLDEgYyA2Ljg5NTk5OCwwIDExLjg2MzY2NSwtMC41Mjc2NzEgMTQuODQzNzUsLTEuNDY4NzUgMS40OTAwNDIsLTAuNDcwNTQgMi41MjQ5NDIsLTEuMDE1Njg3IDMuMDMxMjUsLTEuODEyNSBDIDQ3LjAwMzE1NCwzOC4zMjAzNDQgNDcuMTA3MzIxLDM3LjgzMDMwMSA0NywzNy4zNzUgNDYuODkyNjc5LDM2LjkxOTY5OSA0Ni42MTU0NDUsMzYuNDkwNDQ1IDQ2LjIxODc1LDM2LjA5Mzc1IDQ1LjM0MTE4LDM1LjIxNjE4IDQzLjY4MTkxMiwzNC42ODczMSA0MS42MjUsMzQuMTg3NSAzOS41NjgwODgsMzMuNjg3NjkgMzcuMTA5MjY0LDMzLjI3MzE3MSAzNC43NSwzMi45Njg3NSAzMC4wMzE0NzMsMzIuMzU5OTA4IDI1LjY4NzUsMjguNzY2MjQzIDI1LjY4NzUsMjguNzY2MjQzIHoiIGlkPSJwYXRoMjg3MCIgc3R5bGU9ImZpbGw6I2QwZDBkMDtmaWxsLW9wYWNpdHk6MTtmaWxsLXJ1bGU6ZXZlbm9kZDtzdHJva2U6Izk3OTc5NztzdHJva2Utd2lkdGg6MC41MTMyNTU7c3Ryb2tlLWxpbmVjYXA6YnV0dDtzdHJva2UtbGluZWpvaW46cm91bmQ7c3Ryb2tlLW1pdGVybGltaXQ6NDtzdHJva2Utb3BhY2l0eToxIi8+JiN4YTsgICAgICAgIDxwYXRoIGQ9Im0gNDEuMTAwNTgsMzUuMDUxMTA1IGMgMC4wMDI0LDIuNTE0NDU0IC03LjU1NjcyMyw0LjU1MzE2MiAtMTYuODgyMTczLDQuNTUzMTYyIC05LjMyNTQ1MSwwIC0xNi44ODQ1NTQzLC0yLjAzODcwOCAtMTYuODgyMTczOSwtNC41NTMxNjIgLTAuMDAyMzgsLTIuNTE0NDU0IDcuNTU2NzIyOSwtNC41NTMxNjIgMTYuODgyMTczOSwtNC41NTMxNjIgOS4zMjU0NSwwIDE2Ljg4NDU1MywyLjAzODcwOCAxNi44ODIxNzMsNC41NTMxNjIgeiIgdHJhbnNmb3JtPSJtYXRyaXgoMSwwLDAsMS4zNjg5MzIsLTEuOTc4NTUzLC0xOS4wMjEyNikiIGlkPSJwYXRoMjg3MiIgc3R5bGU9ImZpbGw6dXJsKCNyYWRpYWxHcmFkaWVudDMwOTMyKTtmaWxsLW9wYWNpdHk6MTtmaWxsLXJ1bGU6ZXZlbm9kZDtzdHJva2U6bm9uZTtzdHJva2Utd2lkdGg6MTttYXJrZXI6bm9uZTt2aXNpYmlsaXR5OnZpc2libGU7ZGlzcGxheTppbmxpbmU7b3ZlcmZsb3c6dmlzaWJsZSIvPiYjeGE7ICAgICAgICA8cmVjdCB3aWR0aD0iOS4wMzk2NzI5IiBoZWlnaHQ9IjIuNzQwMDM4OSIgeD0iMTcuNDcyMzk3IiB5PSIzMC43MDM2MTEiIGlkPSJyZWN0Mjg3NCIgc3R5bGU9ImZpbGw6dXJsKCNsaW5lYXJHcmFkaWVudDMwOTM0KTtmaWxsLW9wYWNpdHk6MTtmaWxsLXJ1bGU6ZXZlbm9kZDtzdHJva2U6bm9uZTtzdHJva2Utd2lkdGg6MC42MDg3Mjk0ODttYXJrZXI6bm9uZTt2aXNpYmlsaXR5OnZpc2libGU7ZGlzcGxheTppbmxpbmU7b3ZlcmZsb3c6dmlzaWJsZSIvPiYjeGE7ICAgICAgICA8cGF0aCBkPSJtIDcuMDgwOTAyNCwxLjY5NTYyMjEgMjkuNTg4MTk0NiwwIGMgMC45MTEzNDIsMCAxLjYyNDE0NywwLjU4MzQ4MTggMS42NjY3NTIsMS40MDE1ODcgbCAxLjMzMjA0NCwyNS41NzgxMTM5IGMgMC4wNTgyMSwxLjExNzczNSAtMC45MDEwNTYsMi4wMjAzMDUgLTIuMDIwMzA1LDIuMDIwMzA1IGwgLTMxLjU0NTE3NiwwIGMgLTEuMTE5MjQ5MSwwIC0yLjA3ODUxNCwtMC45MDI1NyAtMi4wMjAzMDUyLC0yLjAyMDMwNSBMIDUuNDE0MTUwNiwzLjA5NzIwOTEgYyAwLjA0MDI4NCwtMC43NzM1MzQ2IDAuNTQ3NTAyNywtMS40MDE1ODcgMS42NjY3NTE4LC0xLjQwMTU4NyB6IiBpZD0icGF0aDI4NzYiIHN0eWxlPSJmaWxsOnVybCgjbGluZWFyR3JhZGllbnQzMDkzNik7ZmlsbC1vcGFjaXR5OjE7ZmlsbC1ydWxlOmV2ZW5vZGQ7c3Ryb2tlOnVybCgjbGluZWFyR3JhZGllbnQzMDkzOCk7c3Ryb2tlLXdpZHRoOjEuMjgzMTM3NTY7c3Ryb2tlLWxpbmVjYXA6YnV0dDtzdHJva2UtbGluZWpvaW46bWl0ZXI7c3Ryb2tlLW1pdGVybGltaXQ6NDtzdHJva2Utb3BhY2l0eToxO3N0cm9rZS1kYXNob2Zmc2V0OjA7bWFya2VyOm5vbmU7dmlzaWJpbGl0eTp2aXNpYmxlO2Rpc3BsYXk6aW5saW5lO292ZXJmbG93OnZpc2libGUiLz4mI3hhOyAgICAgICAgPHBhdGggZD0ibSA4LjQxMDUzNDgsNC4zMDU4MjcyIC0xLjI0MjE5NSwyMi4wNDUzMTY4IDI3LjY1MDM4OTIsMCBMIDMzLjQ4MzcxMiw0LjM5OTI1NTggOC40MTA1MzQ4LDQuMzA1ODI3MiB6IiBpZD0icGF0aDI4NzgiIHN0eWxlPSJmaWxsOnVybCgjbGluZWFyR3JhZGllbnQzMDk0MCk7ZmlsbC1vcGFjaXR5OjE7ZmlsbC1ydWxlOmV2ZW5vZGQ7c3Ryb2tlOiM0MjYzYTg7c3Ryb2tlLXdpZHRoOjAuNjQxNTY4ODQ7c3Ryb2tlLWxpbmVjYXA6YnV0dDtzdHJva2UtbGluZWpvaW46cm91bmQ7c3Ryb2tlLW1pdGVybGltaXQ6NDtzdHJva2Utb3BhY2l0eToxO3N0cm9rZS1kYXNoYXJyYXk6bm9uZTtzdHJva2UtZGFzaG9mZnNldDowO21hcmtlcjpub25lO3Zpc2liaWxpdHk6dmlzaWJsZTtkaXNwbGF5OmlubGluZTtvdmVyZmxvdzp2aXNpYmxlIi8+JiN4YTsgICAgICAgIDxwYXRoIGQ9Im0gNi4xNzc0MzMxLDI4LjczNTc4OSAzMS40Mjg0NzY5LDAiIGlkPSJwYXRoMjg4MCIgc3R5bGU9ImZpbGw6bm9uZTtzdHJva2U6dXJsKCNsaW5lYXJHcmFkaWVudDMwOTQyKTtzdHJva2Utd2lkdGg6MS4yNzgyMzc0NjtzdHJva2UtbGluZWNhcDpyb3VuZDtzdHJva2UtbGluZWpvaW46bWl0ZXI7c3Ryb2tlLW1pdGVybGltaXQ6NDtzdHJva2Utb3BhY2l0eTowLjI0ODQwNzY0Ii8+JiN4YTsgICAgICAgIDxwYXRoIGQ9Ik0gNi45MTQ1OTg1LDIuNzA2MzM5NiAzNi43NjAxMDEsMi42Njg1MzgzIGMgMC4yODM2OTcsLTMuNTkzZS00IDAuNTU5MzAyLDAuMjM3MjQ5OCAwLjU4MjEwNSwwLjY1MjU0MzggTCAzOC43MDQwOTgsMjguMTI0MzMgYyAwLjA1ODA0LDEuMDU3MDMxIC0wLjUzOTc0OSwxLjc4NTg3MSAtMS41OTgzNzEsMS43ODU4NzEgbCAtMzAuNTIzOTY4NywwIGMgLTEuMDU4NjIyOCwwIC0xLjU5MzAxNDQsLTAuNzI4NzkxIC0xLjUzNTg3MTQsLTEuNzg1ODcxIEwgNi4zNjk5NzczLDMuNjMwMTYzMyBDIDYuNDA4NjczMiwyLjkxNDMzMjYgNi41MzYzNjI3LDIuNzA2ODE4NyA2LjkxNDU5ODUsMi43MDYzMzk2IHoiIGlkPSJwYXRoMjg4MiIgc3R5bGU9ImZpbGw6bm9uZTtzdHJva2U6dXJsKCNsaW5lYXJHcmFkaWVudDMwOTQ0KTtzdHJva2Utd2lkdGg6MS4yODMxMzcwODtzdHJva2UtbGluZWNhcDpidXR0O3N0cm9rZS1saW5lam9pbjptaXRlcjtzdHJva2UtbWl0ZXJsaW1pdDo0O3N0cm9rZS1vcGFjaXR5OjAuNzAwNjM2OTI7c3Ryb2tlLWRhc2hvZmZzZXQ6MDttYXJrZXI6bm9uZTt2aXNpYmlsaXR5OnZpc2libGU7ZGlzcGxheTppbmxpbmU7b3ZlcmZsb3c6dmlzaWJsZSIvPiYjeGE7ICAgICAgICA8cGF0aCBkPSJNIDguNzExNTM2NCw0Ljc0NjM2MjYgNy45MDkwMDY5LDIyLjYxNjY5MyBDIDE4Ljk1MzY0NSwyMC4yMTYwNjMgMTkuMzMwNDcsMTIuMTI0NDk0IDMzLjA2MzAzOSw5LjQ2OTk0MjYgTCAzMi45MDE1NjcsNC44MTI0MjY3IDguNzExNTM2NCw0Ljc0NjM2MjYgeiIgaWQ9InBhdGgyODg0IiBzdHlsZT0ib3BhY2l0eTowLjUzMTQyODU2O2ZpbGw6dXJsKCNsaW5lYXJHcmFkaWVudDMwOTQ2KTtmaWxsLW9wYWNpdHk6MTtmaWxsLXJ1bGU6ZXZlbm9kZDtzdHJva2U6bm9uZSIvPiYjeGE7ICAgICAgICA8cGF0aCBkPSJtIDQxLjEwMDU4LDM1LjA1MTEwNSBjIDAuMDAyNCwyLjUxNDQ1NCAtNy41NTY3MjMsNC41NTMxNjIgLTE2Ljg4MjE3Myw0LjU1MzE2MiAtOS4zMjU0NTEsMCAtMTYuODg0NTU0MywtMi4wMzg3MDggLTE2Ljg4MjE3MzksLTQuNTUzMTYyIC0wLjAwMjM4LC0yLjUxNDQ1NCA3LjU1NjcyMjksLTQuNTUzMTYyIDE2Ljg4MjE3MzksLTQuNTUzMTYyIDkuMzI1NDUsMCAxNi44ODQ1NTMsMi4wMzg3MDggMTYuODgyMTczLDQuNTUzMTYyIHoiIHRyYW5zZm9ybT0ibWF0cml4KDEuMjY0Mzk4LDAsMCwxLjI5MTI2MiwtNi4yMTYzMzIsLTQuMDAwNDIzKSIgaWQ9InBhdGgyODg2IiBzdHlsZT0iZmlsbDp1cmwoI3JhZGlhbEdyYWRpZW50MzA5NDgpO2ZpbGwtb3BhY2l0eToxO2ZpbGwtcnVsZTpldmVub2RkO3N0cm9rZTpub25lO3N0cm9rZS13aWR0aDoxO21hcmtlcjpub25lO3Zpc2liaWxpdHk6dmlzaWJsZTtkaXNwbGF5OmlubGluZTtvdmVyZmxvdzp2aXNpYmxlIi8+JiN4YTsgICAgICAgIDxwYXRoIGQ9Im0gNi40NjIxODM5LDM2LjgxNzQ1MiAzMS4wMDI0MDYxLDAgYyAxLjExOTI0OSwwIDAuOTc3MzU1LDAuMjcxNDM4IDEuMDkyMjI3LDAuNjEyODQ2IGwgMi44MzQ2NDYsOC40MjQ4MSBjIDAuMTE0ODcyLDAuMzQxNDA5IDAuMDI3MDIsMC42MTI4NDYgLTEuMDkyMjI3LDAuNjEyODQ2IGwgLTM2LjY3MTY5NzgsMCBjIC0xLjExOTI0OTEsMCAtMS4yMDcwOTk1LC0wLjI3MTQzNyAtMS4wOTIyMjc1LC0wLjYxMjg0NiBsIDIuODM0NjQ1NywtOC40MjQ4MSBjIDAuMTE0ODcyLC0wLjM0MTQwOSAtMC4wMjcwMjIsLTAuNjEyODQ2IDEuMDkyMjI3NSwtMC42MTI4NDYgeiIgaWQ9InBhdGgyODg4IiBzdHlsZT0iZmlsbDp1cmwoI2xpbmVhckdyYWRpZW50MzA5NTApO2ZpbGwtb3BhY2l0eToxO2ZpbGwtcnVsZTpldmVub2RkO3N0cm9rZTp1cmwoI2xpbmVhckdyYWRpZW50MzA5NTIpO3N0cm9rZS13aWR0aDoxLjI4MzEzNzU2O3N0cm9rZS1saW5lY2FwOmJ1dHQ7c3Ryb2tlLWxpbmVqb2luOm1pdGVyO3N0cm9rZS1taXRlcmxpbWl0OjQ7c3Ryb2tlLW9wYWNpdHk6MTtzdHJva2UtZGFzaGFycmF5Om5vbmU7c3Ryb2tlLWRhc2hvZmZzZXQ6MDttYXJrZXI6bm9uZTt2aXNpYmlsaXR5OnZpc2libGU7ZGlzcGxheTppbmxpbmU7b3ZlcmZsb3c6dmlzaWJsZSIvPiYjeGE7ICAgICAgICA8cGF0aCBkPSJtIDYuMzkxNjg5MiwzOC44MjkxMTMgLTEuNzY3NzY2OSw1LjEyNjUyNSA1LjQ4MDA3NzcsMCAwLjUzMDMzLC0yLjAzMjkzMiAxNC44NDkyNDIsMCAwLjU0OTY3OSwyLjA3NTExNCA2LjE2NzgzNSwwIC0xLjY3OTM3OCwtNS4xNjg3MDcgLTI0LjEzMDAxODgsMCB6IiBpZD0icGF0aDI4OTAiIHN0eWxlPSJmaWxsOiM3YTdkNzc7ZmlsbC1vcGFjaXR5OjE7ZmlsbC1ydWxlOmV2ZW5vZGQ7c3Ryb2tlOm5vbmUiLz4mI3hhOyAgICAgICAgPHBhdGggZD0ibSAxMS4wNzYyNzIsNDIuMjc2MjYgLTAuNDQxOTQyLDEuNjc5Mzc5IDE0Ljc2MDg1NCwwIC0wLjQ0MTk0MiwtMS43Njc3NjcgLTEzLjg3Njk3LDAuMDg4MzkgeiIgaWQ9InBhdGgyODkyIiBzdHlsZT0iZmlsbDojNzc3ODc0O2ZpbGwtb3BhY2l0eToxO2ZpbGwtcnVsZTpldmVub2RkO3N0cm9rZTpub25lIi8+JiN4YTsgICAgICAgIDxwYXRoIGQ9Im0gMzcuNTkyNzc2LDM4LjgyOTExNCAxLjY3OTM3OSw1LjAzODEzNiAtNS40ODAwNzgsLTAuMDg4MzkgLTEuNTAyNjAyLC00Ljg2MTM1OSA1LjMwMzMwMSwtMC4wODgzOSB6IiBpZD0icGF0aDI4OTQiIHN0eWxlPSJmaWxsOiM3NzdhNzU7ZmlsbC1vcGFjaXR5OjE7ZmlsbC1ydWxlOmV2ZW5vZGQ7c3Ryb2tlOm5vbmU7c3Ryb2tlLXdpZHRoOjAuMjVwdDttYXJrZXI6bm9uZTt2aXNpYmlsaXR5OnZpc2libGU7ZGlzcGxheTppbmxpbmU7b3ZlcmZsb3c6dmlzaWJsZSIvPiYjeGE7ICAgICAgICA8cGF0aCBkPSJtIDM3LjU5Mjc3NiwzOC4yOTg3ODYgMS42NzkzNzksNS4wMzgxMzYgLTUuNDgwMDc4LC0wLjA4ODM5IC0xLjUwMjYwMiwtNC44NjEzNTkgNS4zMDMzMDEsLTAuMDg4MzkgeiIgaWQ9InBhdGgyODk2IiBzdHlsZT0iZmlsbDp1cmwoI2xpbmVhckdyYWRpZW50MzA5NTQpO2ZpbGwtb3BhY2l0eToxO2ZpbGwtcnVsZTpldmVub2RkO3N0cm9rZTpub25lO3N0cm9rZS13aWR0aDowLjI1cHQ7bWFya2VyOm5vbmU7dmlzaWJpbGl0eTp2aXNpYmxlO2Rpc3BsYXk6aW5saW5lO292ZXJmbG93OnZpc2libGUiLz4mI3hhOyAgICAgICAgPHBhdGggZD0ibSA2LjM5MTY4OTIsMzguMjEwMzk3IC0xLjc2Nzc2NjksNS4xMjY1MjUgNS40ODAwNzc3LDAgMC41MzAzMywtMi4wMzI5MzIgMTQuODQ5MjQyLDAgMC41NDk2NzksMi4wNzUxMTQgNi4xNjc4MzUsMCAtMS42NzkzNzgsLTUuMTY4NzA3IC0yNC4xMzAwMTg4LDAgeiIgaWQ9InBhdGgyODk4IiBzdHlsZT0iZmlsbDp1cmwoI2xpbmVhckdyYWRpZW50MzA5NTYpO2ZpbGwtb3BhY2l0eToxO2ZpbGwtcnVsZTpldmVub2RkO3N0cm9rZTpub25lIi8+JiN4YTsgICAgICAgIDxwYXRoIGQ9Im0gMTEuMDc2MjcyLDQxLjc0NTkzMiAtMC40NDE5NDIsMS42NzkzNzkgMTQuNzYwODU0LDAgLTAuNDQxOTQyLC0xLjc2Nzc2NyAtMTMuODc2OTcsMC4wODgzOSB6IiBpZD0icGF0aDI5MDAiIHN0eWxlPSJmaWxsOnVybCgjbGluZWFyR3JhZGllbnQzMDk1OCk7ZmlsbC1vcGFjaXR5OjE7ZmlsbC1ydWxlOmV2ZW5vZGQ7c3Ryb2tlOm5vbmU7c3Ryb2tlLXdpZHRoOjAuMjVwdDttYXJrZXI6bm9uZTt2aXNpYmlsaXR5OnZpc2libGU7ZGlzcGxheTppbmxpbmU7b3ZlcmZsb3c6dmlzaWJsZSIvPiYjeGE7ICAgICAgICA8cGF0aCBkPSJtIDYuMTI3ODE4OSwzNy41NzgxMTYgMzEuODI1ODE1MSwwIDIuNjM3MTc5LDguMDkyNTYzIC0zNy4yNjEwNzAxLDAgMi43OTgwNzYsLTguMDkyNTYzIHoiIGlkPSJwYXRoMjkwMiIgc3R5bGU9ImZpbGw6bm9uZTtzdHJva2U6dXJsKCNsaW5lYXJHcmFkaWVudDMwOTYwKTtzdHJva2Utd2lkdGg6MC42NDE1Njg3ODtzdHJva2UtbGluZWNhcDpidXR0O3N0cm9rZS1saW5lam9pbjpyb3VuZDtzdHJva2UtbWl0ZXJsaW1pdDo0O3N0cm9rZS1vcGFjaXR5OjE7c3Ryb2tlLWRhc2hvZmZzZXQ6MDttYXJrZXI6bm9uZTt2aXNpYmlsaXR5OnZpc2libGU7ZGlzcGxheTppbmxpbmU7b3ZlcmZsb3c6dmlzaWJsZSIvPiYjeGE7ICAgICAgICA8cGF0aCBkPSJtIDM1LjYyMDUwNCwzLjkzODQwODYgYyAzLjk5ZS00LDAuNDY0MDI5MiAtMC4zNzU2NiwwLjg0MDQxMDggLTAuODM5Njg5LDAuODQwNDEwOCAtMC40NjQwMjksMCAtMC44NDAwODgsLTAuMzc2MzgxNiAtMC44Mzk2ODksLTAuODQwNDEwOCAtMy45OWUtNCwtMC40NjQwMjkyIDAuMzc1NjYsLTAuODQwNDEwOCAwLjgzOTY4OSwtMC44NDA0MTA4IDAuNDY0MDI5LDAgMC44NDAwODgsMC4zNzYzODE2IDAuODM5Njg5LDAuODQwNDEwOCB6IiB0cmFuc2Zvcm09Im1hdHJpeCgxLjMzMTIzNywwLDAsMC42NTg0NDksLTEwLjQxOTMzLDIuODUzODY2KSIgaWQ9InBhdGgyOTA0IiBzdHlsZT0iZmlsbDp1cmwoI2xpbmVhckdyYWRpZW50MzA5NjIpO2ZpbGwtb3BhY2l0eToxO2ZpbGwtcnVsZTpldmVub2RkO3N0cm9rZTpub25lO3N0cm9rZS13aWR0aDowLjU7bWFya2VyOm5vbmU7dmlzaWJpbGl0eTp2aXNpYmxlO2Rpc3BsYXk6aW5saW5lO292ZXJmbG93OnZpc2libGUiLz4mI3hhOyAgICAgICAgPHBhdGggZD0ibSAzNS42MjA1MDQsMy45Mzg0MDg2IGMgMy45OWUtNCwwLjQ2NDAyOTIgLTAuMzc1NjYsMC44NDA0MTA4IC0wLjgzOTY4OSwwLjg0MDQxMDggLTAuNDY0MDI5LDAgLTAuODQwMDg4LC0wLjM3NjM4MTYgLTAuODM5Njg5LC0wLjg0MDQxMDggLTMuOTllLTQsLTAuNDY0MDI5MiAwLjM3NTY2LC0wLjg0MDQxMDggMC44Mzk2ODksLTAuODQwNDEwOCAwLjQ2NDAyOSwwIDAuODQwMDg4LDAuMzc2MzgxNiAwLjgzOTY4OSwwLjg0MDQxMDggeiIgdHJhbnNmb3JtPSJtYXRyaXgoMS4zMzEyMzcsMCwwLDAuNjU4NDQ5LC0xMC4zMDU3Myw0Ljk1OTY1MSkiIGlkPSJwYXRoMjkwNiIgc3R5bGU9ImZpbGw6dXJsKCNsaW5lYXJHcmFkaWVudDMwOTY0KTtmaWxsLW9wYWNpdHk6MTtmaWxsLXJ1bGU6ZXZlbm9kZDtzdHJva2U6bm9uZTtzdHJva2Utd2lkdGg6MC41O21hcmtlcjpub25lO3Zpc2liaWxpdHk6dmlzaWJsZTtkaXNwbGF5OmlubGluZTtvdmVyZmxvdzp2aXNpYmxlIi8+JiN4YTsgICAgICAgIDxwYXRoIGQ9Im0gMzUuNjIwNTA0LDMuOTM4NDA4NiBjIDMuOTllLTQsMC40NjQwMjkyIC0wLjM3NTY2LDAuODQwNDEwOCAtMC44Mzk2ODksMC44NDA0MTA4IC0wLjQ2NDAyOSwwIC0wLjg0MDA4OCwtMC4zNzYzODE2IC0wLjgzOTY4OSwtMC44NDA0MTA4IC0zLjk5ZS00LC0wLjQ2NDAyOTIgMC4zNzU2NiwtMC44NDA0MTA4IDAuODM5Njg5LC0wLjg0MDQxMDggMC40NjQwMjksMCAwLjg0MDA4OCwwLjM3NjM4MTYgMC44Mzk2ODksMC44NDA0MTA4IHoiIHRyYW5zZm9ybT0ibWF0cml4KDEuMzMxMjM3LDAsMCwwLjY1ODQ0OSwtMTAuMTkyMTMsNi45NTk2NTEpIiBpZD0icGF0aDI5MDgiIHN0eWxlPSJmaWxsOnVybCgjbGluZWFyR3JhZGllbnQzMDk2Nik7ZmlsbC1vcGFjaXR5OjE7ZmlsbC1ydWxlOmV2ZW5vZGQ7c3Ryb2tlOm5vbmU7c3Ryb2tlLXdpZHRoOjAuNTttYXJrZXI6bm9uZTt2aXNpYmlsaXR5OnZpc2libGU7ZGlzcGxheTppbmxpbmU7b3ZlcmZsb3c6dmlzaWJsZSIvPiYjeGE7ICAgICAgICA8cGF0aCBkPSJtIDM1LjYyMDUwNCwzLjkzODQwODYgYyAzLjk5ZS00LDAuNDY0MDI5MiAtMC4zNzU2NiwwLjg0MDQxMDggLTAuODM5Njg5LDAuODQwNDEwOCAtMC40NjQwMjksMCAtMC44NDAwODgsLTAuMzc2MzgxNiAtMC44Mzk2ODksLTAuODQwNDEwOCAtMy45OWUtNCwtMC40NjQwMjkyIDAuMzc1NjYsLTAuODQwNDEwOCAwLjgzOTY4OSwtMC44NDA0MTA4IDAuNDY0MDI5LDAgMC44NDAwODgsMC4zNzYzODE2IDAuODM5Njg5LDAuODQwNDEwOCB6IiB0cmFuc2Zvcm09Im1hdHJpeCgxLjMzMTIzNywwLDAsMC42NTg0NDksLTEwLjA3ODUzLDguOTU5NjUxKSIgaWQ9InBhdGgyOTEwIiBzdHlsZT0iZmlsbDp1cmwoI2xpbmVhckdyYWRpZW50MzA5NjgpO2ZpbGwtb3BhY2l0eToxO2ZpbGwtcnVsZTpldmVub2RkO3N0cm9rZTpub25lO3N0cm9rZS13aWR0aDowLjU7bWFya2VyOm5vbmU7dmlzaWJpbGl0eTp2aXNpYmxlO2Rpc3BsYXk6aW5saW5lO292ZXJmbG93OnZpc2libGUiLz4mI3hhOyAgICAgICAgPHBhdGggZD0ibSAzNS42MjA1MDQsMy45Mzg0MDg2IGMgMy45OWUtNCwwLjQ2NDAyOTIgLTAuMzc1NjYsMC44NDA0MTA4IC0wLjgzOTY4OSwwLjg0MDQxMDggLTAuNDY0MDI5LDAgLTAuODQwMDg4LC0wLjM3NjM4MTYgLTAuODM5Njg5LC0wLjg0MDQxMDggLTMuOTllLTQsLTAuNDY0MDI5MiAwLjM3NTY2LC0wLjg0MDQxMDggMC44Mzk2ODksLTAuODQwNDEwOCAwLjQ2NDAyOSwwIDAuODQwMDg4LDAuMzc2MzgxNiAwLjgzOTY4OSwwLjg0MDQxMDggeiIgdHJhbnNmb3JtPSJtYXRyaXgoMS4zMzEyMzcsMCwwLDAuNjU4NDQ5LC05Ljk2NDkzLDEwLjk1OTY1KSIgaWQ9InBhdGgyOTEyIiBzdHlsZT0iZmlsbDp1cmwoI2xpbmVhckdyYWRpZW50MzA5NzApO2ZpbGwtb3BhY2l0eToxO2ZpbGwtcnVsZTpldmVub2RkO3N0cm9rZTpub25lO3N0cm9rZS13aWR0aDowLjU7bWFya2VyOm5vbmU7dmlzaWJpbGl0eTp2aXNpYmxlO2Rpc3BsYXk6aW5saW5lO292ZXJmbG93OnZpc2libGUiLz4mI3hhOyAgICAgICAgPHBhdGggZD0ibSAyMCwyNy4zMTc2NjYgMC4yODE3MTYsMCBjIDAuMDgzNzYsMWUtNiAwLjE0Nzk4NSwwLjAxODY2IDAuMTkyNjYsMC4wNTU5OSAwLjA0NDk3LDAuMDM3MDMgMC4wNjc0NSwwLjA4OTk0IDAuMDY3NDUsMC4xNTg3MTQgLTFlLTYsMC4wNjkwNyAtMC4wMjI0OCwwLjEyMjI2OCAtMC4wNjc0NSwwLjE1OTU5NSAtMC4wNDQ2NywwLjAzNzAzIC0wLjEwODg5NSwwLjA1NTU1IC0wLjE5MjY2LDAuMDU1NTUgbCAtMC4xMTE5ODEsMCAwLDAuMjI4MzcgLTAuMTY5NzM1LDAgMCwtMC42NTgyMTkgbSAwLjE2OTczNSwwLjEyMzAwMyAwLDAuMTgzODQzIDAuMDkzOSwwIGMgMC4wMzI5MiwwIDAuMDU4MzQsLTAuMDA3OSAwLjA3NjI3LC0wLjAyMzgxIDAuMDE3OTMsLTAuMDE2MTcgMC4wMjY4OSwtMC4wMzg5NCAwLjAyNjg5LC0wLjA2ODM0IDAsLTAuMDI5MzkgLTAuMDA5LC0wLjA1MjAyIC0wLjAyNjg5LC0wLjA2Nzg5IC0wLjAxNzkzLC0wLjAxNTg3IC0wLjA0MzM1LC0wLjAyMzgxIC0wLjA3NjI3LC0wLjAyMzgxIGwgLTAuMDkzOSwwIG0gMC43OTIyNDQsLTAuMDExOSBjIC0wLjA1MTczLDFlLTYgLTAuMDkxODUsMC4wMTkxMSAtMC4xMjAzNTgsMC4wNTczMSAtMC4wMjg1MSwwLjAzODIxIC0wLjA0Mjc2LDAuMDkyIC0wLjA0Mjc2LDAuMTYxMzU5IDAsMC4wNjkwNyAwLjAxNDI1LDAuMTIyNzA5IDAuMDQyNzYsMC4xNjA5MTggMC4wMjg1MSwwLjAzODIxIDAuMDY4NjMsMC4wNTczMSAwLjEyMDM1OCwwLjA1NzMxIDAuMDUyMDIsMCAwLjA5MjI5LC0wLjAxOTEgMC4xMjA3OTksLTAuMDU3MzEgMC4wMjg1MSwtMC4wMzgyMSAwLjA0Mjc2LC0wLjA5MTg1IDAuMDQyNzYsLTAuMTYwOTE4IC0xZS02LC0wLjA2OTM2IC0wLjAxNDI1LC0wLjEyMzE0OSAtMC4wNDI3NiwtMC4xNjEzNTkgLTAuMDI4NTEsLTAuMDM4MjEgLTAuMDY4NzgsLTAuMDU3MzEgLTAuMTIwNzk5LC0wLjA1NzMxIG0gMCwtMC4xMjMwMDMgYyAwLjEwNTgwOCwxMGUtNyAwLjE4ODY5MiwwLjAzMDI3IDAuMjQ4NjUxLDAuMDkwODIgMC4wNTk5NiwwLjA2MDU1IDAuMDg5OTQsMC4xNDQxNjUgMC4wODk5NCwwLjI1MDg1NSAtMTBlLTcsMC4xMDYzOTcgLTAuMDI5OTgsMC4xODk4NjggLTAuMDg5OTQsMC4yNTA0MTQgLTAuMDU5OTYsMC4wNjA1NSAtMC4xNDI4NDMsMC4wOTA4MiAtMC4yNDg2NTEsMC4wOTA4MiAtMC4xMDU1MTUsMCAtMC4xODgzOTksLTAuMDMwMjcgLTAuMjQ4NjUxLC0wLjA5MDgyIC0wLjA1OTk2LC0wLjA2MDU1IC0wLjA4OTk0LC0wLjE0NDAxNyAtMC4wODk5NCwtMC4yNTA0MTQgMCwtMC4xMDY2OSAwLjAyOTk4LC0wLjE5MDMwOSAwLjA4OTk0LC0wLjI1MDg1NSAwLjA2MDI1LC0wLjA2MDU1IDAuMTQzMTM2LC0wLjA5MDgyIDAuMjQ4NjUxLC0wLjA5MDgyIG0gMC40NjY0NDEsMC4wMTE5IDAuMTg5NTc0LDAgMC4yMzkzOTMsMC40NTE0NTEgMCwtMC40NTE0NTEgMC4xNjA5MTgsMCAwLDAuNjU4MjE5IC0wLjE4OTU3NSwwIC0wLjIzOTM5MiwtMC40NTE0NTEgMCwwLjQ1MTQ1MSAtMC4xNjA5MTgsMCAwLC0wLjY1ODIxOSBtIDAuNjYzMDY5LDAgMC4xODU2MDYsMCAwLjE0OTg5NiwwLjIzNDU0MyAwLjE0OTg5NiwtMC4yMzQ1NDMgMC4xODYwNDgsMCAtMC4yNTA4NTYsMC4zODA5MTIgMCwwLjI3NzMwNyAtMC4xNjk3MzUsMCAwLC0wLjI3NzMwNyAtMC4yNTA4NTUsLTAuMzgwOTEyIiBpZD0icGF0aDI5MTQiIHN0eWxlPSJmb250LXNpemU6MC45MDI5MDI2cHg7Zm9udC1zdHlsZTpub3JtYWw7Zm9udC12YXJpYW50Om5vcm1hbDtmb250LXdlaWdodDpib2xkO2ZvbnQtc3RyZXRjaDpub3JtYWw7d3JpdGluZy1tb2RlOmxyLXRiO3RleHQtYW5jaG9yOnN0YXJ0O2ZpbGw6IzRhNGE0YTtmaWxsLW9wYWNpdHk6MTtzdHJva2U6bm9uZTtmb250LWZhbWlseTpCaXRzdHJlYW0gVmVyYSBTYW5zIi8+JiN4YTsgICAgICA8L2c+JiN4YTsgICAgPC9nPiYjeGE7ICA8L2c+JiN4YTs8L3N2Zz4=;" parent="1" vertex="1">
          <mxGeometry x="289.5" y="1070" width="63" height="63" as="geometry" />
        </mxCell>
        <mxCell id="qKras6gi_AzTFav5Ec5C-126" style="vsdxID=5;fillColor=none;gradientColor=none;strokeColor=none;labelBackgroundColor=none;rounded=0;html=1;whiteSpace=wrap;" parent="1" vertex="1">
          <mxGeometry x="77.75" y="1070" width="44.5" height="50" as="geometry" />
        </mxCell>
        <mxCell id="qKras6gi_AzTFav5Ec5C-127" style="vsdxID=6;fillColor=none;gradientColor=none;shape=stencil(fVVbbhsxDDyNPyvwJT4+izS9R9A4tdE0DhynTW9fKrtrW0pswDC0K46WMxyKK7552dw9r1cEL4f97tf67/b+sFnxtxXR9mmz3m8PuVrx7YpvHnb79c/97vXpfnp+vmuRbfV796ed8DbhohaShiL4N71BL67vb75PgMft0xmAo4h3ACiVz+N/vO6nL+CMsGLiTs4OxDN03vsCBQQDa0UzjQgWmyLeaEZrwYAIJHfN0ND5BDqegEIVEUQt48J5OYHnE6TEkjEvKaOfUoavH1hSLRAdSyrEl1UhKbUO8SzXVCEuzOLo5ogSvSxUVFlqAJO5AXCvSe6Lulk41dzvBeEiYIbUhFAAGNRILFKvhnQF/EQNLJU6coYF6mU1oAj38VKuWKpVsA+vpeI18bLoVYKSJud/lcFV1hxn6lLNvHmilw9L2j4N5wFaj9aYNz0dCaColdJWg3hSTHvtHJfkL4mnMKoX2UJ2jZ6m2dLRhoph1nND6FpGln5YyCmXpAzghsh1INfA592i3PPTtP1gjkzW6SrBrJb03g9L/14jaJoBFR3ztvG51EeGiWbWKpmeESz1WfhlbStjmgZNCLnnF1pqZFEMUPPeGdgl1IeLIK+/81J8wq7x145dumDu1wvsmsqUMqf9UGNgN/V9Nnf+3IfLrn0sOFSgUvXoybXOtaYXpzXz4BjoJXgsXloddaA3ZhteCJwlPVP5Q7aNSYRwZcqK5WpIWEtgJgNZC4TRbelzBKtkJGJ8Ap/EP84e/nT4vCec69P0etg+Pk7D7yh/LsZpl6+mScm3/wE=);strokeColor=#000000;labelBackgroundColor=none;rounded=0;html=1;whiteSpace=wrap;" parent="qKras6gi_AzTFav5Ec5C-126" vertex="1">
          <mxGeometry width="30" height="39" as="geometry" />
        </mxCell>
        <mxCell id="qKras6gi_AzTFav5Ec5C-128" style="vsdxID=19;fillColor=none;gradientColor=none;image;aspect=fixed;image=data:image/png,iVBORw0KGgoAAAANSUhEUgAAADcAAABQCAIAAAAySHrzAAAHkklEQVR4nM2bT4hkVxXGv+/2HyfEKEFcGMjCbLJxk43EhVmMkoUoCJIhERVcNDKtEG10xsSOjkM5ic5MZUgyNZFGRAWF4EYhIoIDrlRciBE0Wai4yCIggrjMvPO5OPfed+tV1ev3ryceeqpeFV1Vv/7u+c4579YbSsL/fYS3GqBTbE/yLqfP7JUPb750NMnb5uDIFXe+hz90unzyV7++iUlZR1GePrN3eLA/my+wAopJWYdTOmJ+eKKs0+QlACdeZfXj02f2xoBORunRwuoZPIx1YkqPzLpWVPRnPRFKj7XGGsY6DaXTIKlYgmKKZB3o8dLgs/niw5/60u522NkKP/ve5QZojrVFoGMFmHjFH/nc+dn821gRFeOSdfq8/OT+E7vbnM0vbWIdkKxjV3w2Xzz06OM722F3K/ii724zHYTrly+uZUVrF1gFnXwmkvwfIOGLX73wla9dzN4q4/Bg//Bg3/OyDK+sjfFliJYN63zw0cd3t8LONqOcLmSSdmc77G7x0sWnMELUafJSEEQBAiB/nO4lgV//5rd2tsJTh0+ssra3KwedgFISQMVjmJCOJdEACRIEPf30Mztb4cvnzrWw7n36sVOndk+9bffPr/3j4x/9iINOk5dy8VQ/MsmfdDVdUr979srl55+9silZj370k3++/saf/vo3M3vnXXf686MoZ/PF+z/xhbzQAszTPC+6YJIB5geSH0i4fu3qbL5YZT082P/5L375rrvf8fY77/jXv/8zASXqRPQlFepFV4y44lHLCGoy0+La1e8+N18r6n333nPfve9589atgZSN4dc/OGuZUzAd1LCupQQzVUnXyvTiOtA/vPLqK6/+PT8cn5dJv6xZdHZGTH9JDSoTKsGkSqpMi2tX1yqaY6zHLRWd5BL6ihtcLaZEZL41kSYCFRAIEeQxnzJNJZKLBKp2dDou4EyqDIRIwEBAgUFCQdkYR8ZSzuaL933srEPkYqmSNZFla5shMLEGVEIwiKnYbo5RWlpGzLLViDQhgcYSaqRJFChUgiwu97nz59c2z9wk+1E2DL5UFEVDLopMLmESFSZWEg0E4QpSIsJxSdmbshFW1xkmR7OGrrVUZQxUMBhZSTBWUAgAYB2mnXHuaRZFpqIT1z3lJUOS093NABiETgYfTjmbL9778F6BmLH8eKkZmsmIykjGuhXvrUm51uDDKREr+VJRtBUJJZnRmOQ0EMiVEgQCZt84bLdOP8pmb1wuikXRYVbU09FEl9PdDQMABQhUl6wcqWVRdHIZWirjTLNFRdD8dWRA5XCEOiTlSEoViBQ8/+rVNykI5QEFSrcMW+6ebtYZRWlC7tGOqFB3Gklm8DJuQmWshQuAUZTCUtfZZJ2BlLP54t0PfVY5C6GIaBIZczR1GjNUIKnKpxJLoADshLVUdjQkowJqLJEFopEs3I2Q3EOIWFy5eKzBe1A2DG5p9jGjhailltKxXnEKFrsTYAk09DjJHq6lQDMp1KBG5Ja9PKqhisOZIiIhdOrgoygt2SUvupdu0/KtgaQJjBajg3rjsZOmVEK01F3qUddkjF3Rc7TKLwsJlEC33jiQcjZf3PWBzygPaYasYqitHfOyorxr113Hy1CQCWHDSdfqhta4epkXvVQxokchUx4CyL6JNejHLzyzaUu2EZ0om8MvgLToZjKmEwb3TSGnz+RoVMo+XacH5dooWmLDN2m5AQAkaV4pVVbK20SJXDWjnZlErScgz1QG/5sYQQMAEj12JPtRunXyQxUVJyIm1spAP3lYWmsiyGtQ6Gzw3pSNiE43GIuBN3ZFVH7ykM4fHFQWa9DLP7japTd2pVxrnRxlUrIwEIFA2LJpAIAExZ4bP2P3NvIZY2UKjCte+Rl35COlXIAUIOSJ+HZRIu4d5Fz0rohKYBp7l3xjza5zmyj9LJH1lA6abwQlF4fa4Aow9bNOP8qGwcuopHjGnWbeWM8Nzfnc99m6f2pfypZQcrTPvFWaeVOlTKDwxsPf//S57gY/nrLd4GVks/tgYWVjXJ7P+ybl8ZTdw83uvk5jr4hl3wR/8q2jBOBlMo+9cZTMoOyxMXSClAJMqMfekHcyiKBeG0ON6NEEDg/2//vbH7b/Tjofjz+VpVuL355Ukm3YddlknX6UXUGdxgpEqTJVckT85eUXOzpyIGUGbWEV4ILZMmh+pu8nHk9586WjtV/CtbP6lynOWmtpunVClJtAS9a1r4rjuurVj4oWOwUdrdOJMoNuYt0kagmav88bpmW/aw38QoWWSwZWG30gQ0AgAxmIN37z/fI6haxli8HRt176G61tm+UlAyWrSV4mEdBHkBGUmXWTqJl1+fQofu/bfWNoAkoUom5ibYgqQKYhzRHA+Ctu0To3rSZA6bPS4J3y8saNG/mps2fP9qLskgDO6ojnLh1958m9lbdpi6hlprz/gQdf++Pvyt/oDt1SATKrJ8PnLxxdv7DX0eBYXfFS1PsfeBBAX+h21pJ4OOUmYqyTGZuhjx3yuxdLtHu8QbAqMzYndEuyDoiBHl+VGcu5kYnXsvYScjhlIzblxiZWp+x+Kfs0lI3I0I2cGfzfLU6EcvL4H0q9sI7xYcDRAAAAAElFTkSuQmCC;strokeColor=none;labelBackgroundColor=none;rounded=0;html=1;whiteSpace=wrap;" parent="qKras6gi_AzTFav5Ec5C-126" vertex="1">
          <mxGeometry x="-9.7" y="-0.71" width="34.85" height="50.71" as="geometry" />
        </mxCell>
        <mxCell id="qKras6gi_AzTFav5Ec5C-139" value="Файловый сервер" style="text;html=1;whiteSpace=wrap;strokeColor=none;fillColor=none;align=center;verticalAlign=middle;rounded=0;fontSize=14;" parent="1" vertex="1">
          <mxGeometry x="577" y="511.42" width="60" height="30" as="geometry" />
        </mxCell>
        <mxCell id="qKras6gi_AzTFav5Ec5C-140" value="Терминальный сервер 1" style="text;html=1;whiteSpace=wrap;strokeColor=none;fillColor=none;align=center;verticalAlign=middle;rounded=0;fontSize=14;" parent="1" vertex="1">
          <mxGeometry x="215.68" y="481.42" width="60" height="30" as="geometry" />
        </mxCell>
        <mxCell id="qKras6gi_AzTFav5Ec5C-141" value="Терминальная ферма" style="text;html=1;whiteSpace=wrap;strokeColor=none;fillColor=none;align=center;verticalAlign=middle;rounded=0;fontSize=18;fontStyle=1" parent="1" vertex="1">
          <mxGeometry x="186.25" y="705.18" width="60" height="30" as="geometry" />
        </mxCell>
        <mxCell id="qKras6gi_AzTFav5Ec5C-143" value="DMZ" style="text;html=1;whiteSpace=wrap;strokeColor=none;fillColor=none;align=center;verticalAlign=middle;rounded=0;fontSize=18;fontStyle=1" parent="1" vertex="1">
          <mxGeometry x="70" y="500" width="60" height="30" as="geometry" />
        </mxCell>
        <mxCell id="qKras6gi_AzTFav5Ec5C-144" value="&lt;div&gt;Терминальный сервер 2&lt;/div&gt;&lt;div&gt;&lt;br&gt;&lt;/div&gt;" style="text;html=1;whiteSpace=wrap;strokeColor=none;fillColor=none;align=center;verticalAlign=middle;rounded=0;fontSize=14;" parent="1" vertex="1">
          <mxGeometry x="335" y="489.11" width="60" height="30" as="geometry" />
        </mxCell>
        <mxCell id="qKras6gi_AzTFav5Ec5C-145" value="Терминальный сервер 3" style="text;html=1;whiteSpace=wrap;strokeColor=none;fillColor=none;align=center;verticalAlign=middle;rounded=0;fontSize=14;" parent="1" vertex="1">
          <mxGeometry x="447.25" y="481.42" width="60" height="30" as="geometry" />
        </mxCell>
        <mxCell id="qKras6gi_AzTFav5Ec5C-148" value="СУБД" style="text;html=1;whiteSpace=wrap;strokeColor=none;fillColor=none;align=center;verticalAlign=middle;rounded=0;fontSize=14;" parent="1" vertex="1">
          <mxGeometry x="544" y="648" width="60" height="30" as="geometry" />
        </mxCell>
        <mxCell id="qKras6gi_AzTFav5Ec5C-182" style="edgeStyle=orthogonalEdgeStyle;rounded=0;orthogonalLoop=1;jettySize=auto;html=1;" parent="1" edge="1">
          <mxGeometry relative="1" as="geometry">
            <Array as="points">
              <mxPoint x="310" y="620" />
              <mxPoint x="470" y="620" />
            </Array>
            <mxPoint x="310" y="650" as="sourcePoint" />
            <mxPoint x="470" y="599.9999999999998" as="targetPoint" />
          </mxGeometry>
        </mxCell>
        <mxCell id="Yt7thMcMbfZu-RDhDGTs-84" value="" style="ellipse;shape=cloud;whiteSpace=wrap;html=1;hachureGap=4;fillColor=#1ba1e2;fontColor=#ffffff;strokeColor=#006EAF;" parent="1" vertex="1">
          <mxGeometry x="-25.91" y="869.32" width="669.42" height="180.68" as="geometry" />
        </mxCell>
        <mxCell id="Yt7thMcMbfZu-RDhDGTs-88" value="" style="rounded=1;whiteSpace=wrap;html=1;strokeColor=light-dark(#e01b24, #ededed);" parent="1" vertex="1">
          <mxGeometry x="185" y="18.05" width="80" height="50" as="geometry" />
        </mxCell>
        <mxCell id="Yt7thMcMbfZu-RDhDGTs-63" value="" style="points=[];aspect=fixed;html=1;align=center;shadow=0;dashed=0;fillColor=#FF6A00;strokeColor=none;shape=mxgraph.alibaba_cloud.cloud_shield;" parent="1" vertex="1">
          <mxGeometry x="230" y="40" width="20.47" height="21.95" as="geometry" />
        </mxCell>
        <mxCell id="Yt7thMcMbfZu-RDhDGTs-89" value="Прокси-сервер" style="text;html=1;whiteSpace=wrap;strokeColor=none;fillColor=none;align=center;verticalAlign=middle;rounded=0;strokeWidth=2;fontSize=14;" parent="1" vertex="1">
          <mxGeometry x="40" y="720" width="100" height="30" as="geometry" />
        </mxCell>
        <mxCell id="Yt7thMcMbfZu-RDhDGTs-127" style="edgeStyle=orthogonalEdgeStyle;rounded=0;orthogonalLoop=1;jettySize=auto;html=1;exitX=1;exitY=0.75;exitDx=0;exitDy=0;entryX=1;entryY=0.5;entryDx=0;entryDy=0;entryPerimeter=0;strokeWidth=2;fontSize=13;labelBackgroundColor=default;fontColor=default;jumpStyle=none;" parent="1" target="qKras6gi_AzTFav5Ec5C-21" edge="1">
          <mxGeometry relative="1" as="geometry">
            <Array as="points">
              <mxPoint x="730" y="802" />
              <mxPoint x="730" y="140" />
            </Array>
            <mxPoint x="131.5" y="802.5000000000002" as="sourcePoint" />
          </mxGeometry>
        </mxCell>
        <mxCell id="Yt7thMcMbfZu-RDhDGTs-128" value="HTTPS" style="text;html=1;whiteSpace=wrap;strokeColor=none;fillColor=none;align=center;verticalAlign=middle;rounded=0;labelBackgroundColor=default;fontSize=14;" parent="1" vertex="1">
          <mxGeometry x="698" y="420" width="60" height="30" as="geometry" />
        </mxCell>
        <mxCell id="Yt7thMcMbfZu-RDhDGTs-131" value="АРМ специалиста по режимам" style="text;html=1;whiteSpace=wrap;strokeColor=none;fillColor=none;align=center;verticalAlign=middle;rounded=0;fontSize=14;" parent="1" vertex="1">
          <mxGeometry x="357.5" y="1080.5" width="82.5" height="30" as="geometry" />
        </mxCell>
        <mxCell id="Yt7thMcMbfZu-RDhDGTs-132" value="WAN" style="text;html=1;whiteSpace=wrap;strokeColor=none;fillColor=none;align=center;verticalAlign=middle;rounded=0;fontSize=18;" parent="1" vertex="1">
          <mxGeometry x="167.5" y="930" width="82.5" height="30" as="geometry" />
        </mxCell>
        <mxCell id="Yt7thMcMbfZu-RDhDGTs-139" value="" style="rounded=0;orthogonalLoop=1;jettySize=auto;html=1;strokeWidth=2;strokeColor=default;jumpStyle=arc;" parent="1" edge="1">
          <mxGeometry relative="1" as="geometry">
            <mxPoint x="320" y="1070" as="sourcePoint" />
            <mxPoint x="320.1244827586207" y="757.18" as="targetPoint" />
          </mxGeometry>
        </mxCell>
        <mxCell id="Yt7thMcMbfZu-RDhDGTs-140" value="АРМ ОВБ (Web-клиент)" style="text;html=1;whiteSpace=wrap;strokeColor=none;fillColor=none;align=center;verticalAlign=middle;rounded=0;fontSize=14;" parent="1" vertex="1">
          <mxGeometry x="110" y="1080.5" width="92.5" height="30" as="geometry" />
        </mxCell>
        <mxCell id="Yt7thMcMbfZu-RDhDGTs-141" value="HTTPS" style="text;html=1;whiteSpace=wrap;strokeColor=none;fillColor=none;align=center;verticalAlign=middle;rounded=0;labelBackgroundColor=default;fontSize=14;" parent="1" vertex="1">
          <mxGeometry x="290.75" y="930" width="60.5" height="43.82" as="geometry" />
        </mxCell>
        <mxCell id="Yt7thMcMbfZu-RDhDGTs-142" value="" style="rounded=0;orthogonalLoop=1;jettySize=auto;html=1;strokeWidth=2;exitX=0.408;exitY=0.057;exitDx=0;exitDy=0;exitPerimeter=0;" parent="1" source="qKras6gi_AzTFav5Ec5C-127" edge="1">
          <mxGeometry relative="1" as="geometry">
            <mxPoint x="89.66" y="1078" as="sourcePoint" />
            <mxPoint x="89.90448275862067" y="828" as="targetPoint" />
          </mxGeometry>
        </mxCell>
        <mxCell id="Yt7thMcMbfZu-RDhDGTs-143" value="HTTPS" style="text;html=1;whiteSpace=wrap;strokeColor=none;fillColor=none;align=center;verticalAlign=middle;rounded=0;labelBackgroundColor=default;fontSize=14;" parent="1" vertex="1">
          <mxGeometry x="54.71" y="930" width="60" height="30" as="geometry" />
        </mxCell>
        <mxCell id="QUkc8n2lJ9mTT0OE4B8_-1" value="" style="group" vertex="1" connectable="0" parent="1">
          <mxGeometry x="586" y="552" width="68" height="91" as="geometry" />
        </mxCell>
        <mxCell id="QUkc8n2lJ9mTT0OE4B8_-2" value="" style="rounded=1;whiteSpace=wrap;html=1;strokeColor=#FFFFFF;container=0;" vertex="1" parent="QUkc8n2lJ9mTT0OE4B8_-1">
          <mxGeometry width="42" height="80" as="geometry" />
        </mxCell>
        <mxCell id="QUkc8n2lJ9mTT0OE4B8_-3" value="" style="sketch=0;points=[[0.015,0.015,0],[0.985,0.015,0],[0.985,0.985,0],[0.015,0.985,0],[0.25,0,0],[0.5,0,0],[0.75,0,0],[1,0.25,0],[1,0.5,0],[1,0.75,0],[0.75,1,0],[0.5,1,0],[0.25,1,0],[0,0.75,0],[0,0.5,0],[0,0.25,0]];verticalLabelPosition=bottom;html=1;verticalAlign=top;aspect=fixed;align=center;pointerEvents=1;shape=mxgraph.cisco19.server;fillColor=#005073;strokeColor=none;fontSize=10;container=0;" vertex="1" parent="QUkc8n2lJ9mTT0OE4B8_-1">
          <mxGeometry width="44" height="80" as="geometry" />
        </mxCell>
        <mxCell id="QUkc8n2lJ9mTT0OE4B8_-4" value="" style="image;aspect=fixed;html=1;points=[];align=center;fontSize=12;image=img/lib/azure2/general/Folder_Blank.svg;" vertex="1" parent="QUkc8n2lJ9mTT0OE4B8_-1">
          <mxGeometry x="26" y="59.5" width="33.26" height="27" as="geometry" />
        </mxCell>
        <mxCell id="QUkc8n2lJ9mTT0OE4B8_-24" value="" style="group" vertex="1" connectable="0" parent="1">
          <mxGeometry x="507.25" y="659" width="78" height="93" as="geometry" />
        </mxCell>
        <mxCell id="QUkc8n2lJ9mTT0OE4B8_-25" value="" style="rounded=1;whiteSpace=wrap;html=1;strokeColor=#FFFFFF;container=0;" vertex="1" parent="QUkc8n2lJ9mTT0OE4B8_-24">
          <mxGeometry width="48.1764705882353" height="81.75824175824175" as="geometry" />
        </mxCell>
        <mxCell id="QUkc8n2lJ9mTT0OE4B8_-26" value="" style="sketch=0;points=[[0.015,0.015,0],[0.985,0.015,0],[0.985,0.985,0],[0.015,0.985,0],[0.25,0,0],[0.5,0,0],[0.75,0,0],[1,0.25,0],[1,0.5,0],[1,0.75,0],[0.75,1,0],[0.5,1,0],[0.25,1,0],[0,0.75,0],[0,0.5,0],[0,0.25,0]];verticalLabelPosition=bottom;html=1;verticalAlign=top;aspect=fixed;align=center;pointerEvents=1;shape=mxgraph.cisco19.server;fillColor=#005073;strokeColor=none;fontSize=10;container=0;" vertex="1" parent="QUkc8n2lJ9mTT0OE4B8_-24">
          <mxGeometry width="44.41904761904763" height="80.76190476190476" as="geometry" />
        </mxCell>
        <mxCell id="QUkc8n2lJ9mTT0OE4B8_-27" value="" style="image;aspect=fixed;html=1;points=[];align=center;fontSize=12;image=img/lib/azure2/databases/Azure_Database_PostgreSQL_Server.svg;" vertex="1" parent="QUkc8n2lJ9mTT0OE4B8_-24">
          <mxGeometry x="33.26470588235294" y="43.945054945054956" width="34.82857142857143" height="46.438095238095244" as="geometry" />
        </mxCell>
        <mxCell id="QUkc8n2lJ9mTT0OE4B8_-70" value="" style="shape=image;verticalLabelPosition=bottom;verticalAlign=top;imageAspect=0;aspect=fixed;image=data:image/svg+xml,PHN2ZyB4bWxuczpzdmc9Imh0dHA6Ly93d3cudzMub3JnLzIwMDAvc3ZnIiB4bWxucz0iaHR0cDovL3d3dy53My5vcmcvMjAwMC9zdmciIHhtbG5zOnhsaW5rPSJodHRwOi8vd3d3LnczLm9yZy8xOTk5L3hsaW5rIiB2ZXJzaW9uPSIxLjAiIHdpZHRoPSIxMjgiIGhlaWdodD0iMTI4IiBpZD0ic3ZnMjEwOCIgdmlld0JveD0iMCAwIDEyOCAxMjgiPiYjeGE7ICA8ZGVmcyBpZD0iZGVmczMiPiYjeGE7ICAgIDxsaW5lYXJHcmFkaWVudCBpZD0ibGluZWFyR3JhZGllbnQyMjQ1Ij4mI3hhOyAgICAgIDxzdG9wIGlkPSJzdG9wMjI0NyIgc3R5bGU9InN0b3AtY29sb3I6I2RkZTFkOTtzdG9wLW9wYWNpdHk6MSIgb2Zmc2V0PSIwIi8+JiN4YTsgICAgICA8c3RvcCBpZD0ic3RvcDIyNDkiIHN0eWxlPSJzdG9wLWNvbG9yOiNjYWNkYzY7c3RvcC1vcGFjaXR5OjEiIG9mZnNldD0iMSIvPiYjeGE7ICAgIDwvbGluZWFyR3JhZGllbnQ+JiN4YTsgICAgPGxpbmVhckdyYWRpZW50IGlkPSJsaW5lYXJHcmFkaWVudDIyNTMiPiYjeGE7ICAgICAgPHN0b3AgaWQ9InN0b3AyMjU1IiBzdHlsZT0ic3RvcC1jb2xvcjojOGY4ZjhmO3N0b3Atb3BhY2l0eToxIiBvZmZzZXQ9IjAiLz4mI3hhOyAgICAgIDxzdG9wIGlkPSJzdG9wMjI1NyIgc3R5bGU9InN0b3AtY29sb3I6IzQ5NDk0OTtzdG9wLW9wYWNpdHk6MSIgb2Zmc2V0PSIxIi8+JiN4YTsgICAgPC9saW5lYXJHcmFkaWVudD4mI3hhOyAgICA8bGluZWFyR3JhZGllbnQgaWQ9ImxpbmVhckdyYWRpZW50MjY2NyI+JiN4YTsgICAgICA8c3RvcCBpZD0ic3RvcDI2NjkiIHN0eWxlPSJzdG9wLWNvbG9yOiNmZmZmZmY7c3RvcC1vcGFjaXR5OjEiIG9mZnNldD0iMCIvPiYjeGE7ICAgICAgPHN0b3AgaWQ9InN0b3AyNjcxIiBzdHlsZT0ic3RvcC1jb2xvcjojZmNmY2ZmO3N0b3Atb3BhY2l0eTowIiBvZmZzZXQ9IjEiLz4mI3hhOyAgICA8L2xpbmVhckdyYWRpZW50PiYjeGE7ICAgIDxsaW5lYXJHcmFkaWVudCBpZD0ibGluZWFyR3JhZGllbnQyNzAxIj4mI3hhOyAgICAgIDxzdG9wIGlkPSJzdG9wMjcwMyIgc3R5bGU9InN0b3AtY29sb3I6IzU4NTk1NjtzdG9wLW9wYWNpdHk6MSIgb2Zmc2V0PSIwIi8+JiN4YTsgICAgICA8c3RvcCBpZD0ic3RvcDI3MDUiIHN0eWxlPSJzdG9wLWNvbG9yOiNiYmJlYjg7c3RvcC1vcGFjaXR5OjEiIG9mZnNldD0iMSIvPiYjeGE7ICAgIDwvbGluZWFyR3JhZGllbnQ+JiN4YTsgICAgPGxpbmVhckdyYWRpZW50IGlkPSJsaW5lYXJHcmFkaWVudDI3MTEiPiYjeGE7ICAgICAgPHN0b3AgaWQ9InN0b3AyNzEzIiBzdHlsZT0ic3RvcC1jb2xvcjojOTA5MDkwO3N0b3Atb3BhY2l0eToxIiBvZmZzZXQ9IjAiLz4mI3hhOyAgICAgIDxzdG9wIGlkPSJzdG9wMjcxNSIgc3R5bGU9InN0b3AtY29sb3I6I2JlYmViZTtzdG9wLW9wYWNpdHk6MCIgb2Zmc2V0PSIxIi8+JiN4YTsgICAgPC9saW5lYXJHcmFkaWVudD4mI3hhOyAgICA8bGluZWFyR3JhZGllbnQgaWQ9ImxpbmVhckdyYWRpZW50MjQxNSI+JiN4YTsgICAgICA8c3RvcCBpZD0ic3RvcDI0MTciIHN0eWxlPSJzdG9wLWNvbG9yOiNmZmZmZmY7c3RvcC1vcGFjaXR5OjEiIG9mZnNldD0iMCIvPiYjeGE7ICAgICAgPHN0b3AgaWQ9InN0b3AyNDE5IiBzdHlsZT0ic3RvcC1jb2xvcjojZmZmZmZmO3N0b3Atb3BhY2l0eTowIiBvZmZzZXQ9IjEiLz4mI3hhOyAgICA8L2xpbmVhckdyYWRpZW50PiYjeGE7ICAgIDxsaW5lYXJHcmFkaWVudCBpZD0ibGluZWFyR3JhZGllbnQyNDU0Ij4mI3hhOyAgICAgIDxzdG9wIGlkPSJzdG9wMjQ1NiIgc3R5bGU9InN0b3AtY29sb3I6IzAwMDAwMDtzdG9wLW9wYWNpdHk6MSIgb2Zmc2V0PSIwIi8+JiN4YTsgICAgICA8c3RvcCBpZD0ic3RvcDI0NTgiIHN0eWxlPSJzdG9wLWNvbG9yOiMwMDAwMDA7c3RvcC1vcGFjaXR5OjAiIG9mZnNldD0iMSIvPiYjeGE7ICAgIDwvbGluZWFyR3JhZGllbnQ+JiN4YTsgICAgPGxpbmVhckdyYWRpZW50IGlkPSJsaW5lYXJHcmFkaWVudDI2MzUiPiYjeGE7ICAgICAgPHN0b3AgaWQ9InN0b3AyNjM3IiBzdHlsZT0ic3RvcC1jb2xvcjojZjlmZmY1O3N0b3Atb3BhY2l0eToxIiBvZmZzZXQ9IjAiLz4mI3hhOyAgICAgIDxzdG9wIGlkPSJzdG9wMjYzOSIgc3R5bGU9InN0b3AtY29sb3I6I2Y5ZmZmNTtzdG9wLW9wYWNpdHk6MCIgb2Zmc2V0PSIxIi8+JiN4YTsgICAgPC9saW5lYXJHcmFkaWVudD4mI3hhOyAgICA8bGluZWFyR3JhZGllbnQgaWQ9ImxpbmVhckdyYWRpZW50MjY4MyI+JiN4YTsgICAgICA8c3RvcCBpZD0ic3RvcDI2ODUiIHN0eWxlPSJzdG9wLWNvbG9yOiMwMDAwMDA7c3RvcC1vcGFjaXR5OjEiIG9mZnNldD0iMCIvPiYjeGE7ICAgICAgPHN0b3AgaWQ9InN0b3AyNjg3IiBzdHlsZT0ic3RvcC1jb2xvcjojMDAwMDAwO3N0b3Atb3BhY2l0eTowIiBvZmZzZXQ9IjEiLz4mI3hhOyAgICA8L2xpbmVhckdyYWRpZW50PiYjeGE7ICAgIDxsaW5lYXJHcmFkaWVudCBpZD0ibGluZWFyR3JhZGllbnQyNzUyIj4mI3hhOyAgICAgIDxzdG9wIGlkPSJzdG9wMjc1NCIgc3R5bGU9InN0b3AtY29sb3I6IzlkOWQ5ZDtzdG9wLW9wYWNpdHk6MSIgb2Zmc2V0PSIwIi8+JiN4YTsgICAgICA8c3RvcCBpZD0ic3RvcDI3NTYiIHN0eWxlPSJzdG9wLWNvbG9yOiNiOWI5Yjk7c3RvcC1vcGFjaXR5OjEiIG9mZnNldD0iMSIvPiYjeGE7ICAgIDwvbGluZWFyR3JhZGllbnQ+JiN4YTsgICAgPGxpbmVhckdyYWRpZW50IGlkPSJsaW5lYXJHcmFkaWVudDI5ODUiPiYjeGE7ICAgICAgPHN0b3AgaWQ9InN0b3AyOTg3IiBzdHlsZT0ic3RvcC1jb2xvcjojZDhkZmQ2O3N0b3Atb3BhY2l0eToxIiBvZmZzZXQ9IjAiLz4mI3hhOyAgICAgIDxzdG9wIGlkPSJzdG9wMjk4OSIgc3R5bGU9InN0b3AtY29sb3I6I2Q4ZGZkNjtzdG9wLW9wYWNpdHk6MCIgb2Zmc2V0PSIxIi8+JiN4YTsgICAgPC9saW5lYXJHcmFkaWVudD4mI3hhOyAgICA8bGluZWFyR3JhZGllbnQgaWQ9ImxpbmVhckdyYWRpZW50MzQwMCI+JiN4YTsgICAgICA8c3RvcCBpZD0ic3RvcDM0MDIiIHN0eWxlPSJzdG9wLWNvbG9yOiM0MTZkYjQ7c3RvcC1vcGFjaXR5OjEiIG9mZnNldD0iMCIvPiYjeGE7ICAgICAgPHN0b3AgaWQ9InN0b3AzNDA0IiBzdHlsZT0ic3RvcC1jb2xvcjojMzg1ZTliO3N0b3Atb3BhY2l0eToxIiBvZmZzZXQ9IjEiLz4mI3hhOyAgICA8L2xpbmVhckdyYWRpZW50PiYjeGE7ICAgIDxyYWRpYWxHcmFkaWVudCBjeD0iMTIuNTc1NzEiIGN5PSI2Ny41MDE3MDkiIHI9IjguNzY2Mjc5MiIgZng9IjEyLjU3NTcxIiBmeT0iNjcuNTAxNzA5IiBpZD0icmFkaWFsR3JhZGllbnQzMDkyOCIgeGxpbms6aHJlZj0iI2xpbmVhckdyYWRpZW50MjQ1NCIgZ3JhZGllbnRVbml0cz0idXNlclNwYWNlT25Vc2UiIGdyYWRpZW50VHJhbnNmb3JtPSJzY2FsZSgxLjkyNTgwOCwwLjUxOTI2MikiLz4mI3hhOyAgICA8bGluZWFyR3JhZGllbnQgeDE9Ii0yMy44ODU3IiB5MT0iNDkuOTUzMDAzIiB4Mj0iLTIzLjg4NTciIHkyPSI0NC44Nzg4ODMiIGlkPSJsaW5lYXJHcmFkaWVudDMwOTMwIiB4bGluazpocmVmPSIjbGluZWFyR3JhZGllbnQyOTg1IiBncmFkaWVudFVuaXRzPSJ1c2VyU3BhY2VPblVzZSIgZ3JhZGllbnRUcmFuc2Zvcm09InNjYWxlKDEuNDkyODc1LDAuNjY5ODQ4KSIvPiYjeGE7ICAgIDxyYWRpYWxHcmFkaWVudCBjeD0iMTIuNTc1NzEiIGN5PSI2Ny41MDE3MDkiIHI9IjguNzY2Mjc5MiIgZng9IjEyLjU3NTcxIiBmeT0iNjcuNTAxNzA5IiBpZD0icmFkaWFsR3JhZGllbnQzMDkzMiIgeGxpbms6aHJlZj0iI2xpbmVhckdyYWRpZW50MjQ1NCIgZ3JhZGllbnRVbml0cz0idXNlclNwYWNlT25Vc2UiIGdyYWRpZW50VHJhbnNmb3JtPSJzY2FsZSgxLjkyNTgwOCwwLjUxOTI2MikiLz4mI3hhOyAgICA8bGluZWFyR3JhZGllbnQgeDE9IjEyLjIwNjcwOSIgeTE9IjUzLjUzNTE0MSIgeDI9IjEyLjEyNzcxMSIgeTI9IjY0Ljg5MjUyNSIgaWQ9ImxpbmVhckdyYWRpZW50MzA5MzQiIHhsaW5rOmhyZWY9IiNsaW5lYXJHcmFkaWVudDI3MDEiIGdyYWRpZW50VW5pdHM9InVzZXJTcGFjZU9uVXNlIiBncmFkaWVudFRyYW5zZm9ybT0ic2NhbGUoMS44MTYzNDUsMC41NTA1NTYpIi8+JiN4YTsgICAgPGxpbmVhckdyYWRpZW50IHgxPSI4LjYxMTYyMzgiIHkxPSI3LjIyOTM1ODIiIHgyPSIzNC43ODQ0NzMiIHkyPSIzMy4zMzk3ODciIGlkPSJsaW5lYXJHcmFkaWVudDMwOTM2IiB4bGluazpocmVmPSIjbGluZWFyR3JhZGllbnQyMjQ1IiBncmFkaWVudFVuaXRzPSJ1c2VyU3BhY2VPblVzZSIgZ3JhZGllbnRUcmFuc2Zvcm09Im1hdHJpeCgxLjEyOTg2MywwLDAsMC44ODUwNjMsLTEuNjI1LC0xLjMwNDM3MikiLz4mI3hhOyAgICA8bGluZWFyR3JhZGllbnQgeDE9IjEwLjM5MDczOCIgeTE9IjUuMzgxNzc0NCIgeDI9IjMyLjUzNjgyMyIgeTI9IjMxLjI0NjA1NCIgaWQ9ImxpbmVhckdyYWRpZW50MzA5MzgiIHhsaW5rOmhyZWY9IiNsaW5lYXJHcmFkaWVudDIyNTMiIGdyYWRpZW50VW5pdHM9InVzZXJTcGFjZU9uVXNlIiBncmFkaWVudFRyYW5zZm9ybT0ic2NhbGUoMS4xMDQzOTcsMC45MDU0NzEpIi8+JiN4YTsgICAgPGxpbmVhckdyYWRpZW50IHgxPSItNTcuNTQ3Mjc2IiB5MT0iMzguNjUyNTMxIiB4Mj0iLTU3LjQ5NTQ5OSIgeTI9IjE1LjMyMzQ4NyIgaWQ9ImxpbmVhckdyYWRpZW50MzA5NDAiIHhsaW5rOmhyZWY9IiNsaW5lYXJHcmFkaWVudDM0MDAiIGdyYWRpZW50VW5pdHM9InVzZXJTcGFjZU9uVXNlIiBncmFkaWVudFRyYW5zZm9ybT0ibWF0cml4KDAuNzc5MzQsMCwwLDAuNzc5MzQsNzMuNjM4OSwtNS45NDYxMDIpIi8+JiN4YTsgICAgPGxpbmVhckdyYWRpZW50IHgxPSIzLjcwNjk5NzYiIHkxPSIxNzEuMjkxMzQiIHgyPSIzLjcwNjk5NzQiIHkyPSIxNjIuNDUwNjEiIGlkPSJsaW5lYXJHcmFkaWVudDMwOTQyIiB4bGluazpocmVmPSIjbGluZWFyR3JhZGllbnQyNjgzIiBncmFkaWVudFVuaXRzPSJ1c2VyU3BhY2VPblVzZSIgZ3JhZGllbnRUcmFuc2Zvcm09Im1hdHJpeCg1LjcwNTE1OSwwLDAsMC4xNzUyOCwxLC0wLjY3OTM3MykiLz4mI3hhOyAgICA8bGluZWFyR3JhZGllbnQgeDE9IjE3LjY5ODMzOSIgeTE9IjEzLjAwNDcyNSIgeDI9IjM0Ljk3NDU0OCIgeTI9IjU1LjIwMDc1NiIgaWQ9ImxpbmVhckdyYWRpZW50MzA5NDQiIHhsaW5rOmhyZWY9IiNsaW5lYXJHcmFkaWVudDI0MTUiIGdyYWRpZW50VW5pdHM9InVzZXJTcGFjZU9uVXNlIiBncmFkaWVudFRyYW5zZm9ybT0ibWF0cml4KDEuMTA4MDY5LDAsMCwwLjkwMjQ3MSwxLDEpIi8+JiN4YTsgICAgPGxpbmVhckdyYWRpZW50IHgxPSIxMS40OTIyMzYiIHkxPSIxLjY1Mzc1NzciIHgyPSIxNy4xOTk0MTciIHkyPSIyNi43MjkyNjMiIGlkPSJsaW5lYXJHcmFkaWVudDMwOTQ2IiB4bGluazpocmVmPSIjbGluZWFyR3JhZGllbnQyNjY3IiBncmFkaWVudFVuaXRzPSJ1c2VyU3BhY2VPblVzZSIgZ3JhZGllbnRUcmFuc2Zvcm09Im1hdHJpeCgxLjIzODk3NywwLDAsMC44OTU5NTUsMC41OTA1NTMsLTEuMzMxNTI0KSIvPiYjeGE7ICAgIDxyYWRpYWxHcmFkaWVudCBjeD0iMTIuNTc1NzEiIGN5PSI2Ny41MDE3MDkiIHI9IjguNzY2Mjc5MiIgZng9IjEyLjU3NTcxIiBmeT0iNjcuNTAxNzA5IiBpZD0icmFkaWFsR3JhZGllbnQzMDk0OCIgeGxpbms6aHJlZj0iI2xpbmVhckdyYWRpZW50MjQ1NCIgZ3JhZGllbnRVbml0cz0idXNlclNwYWNlT25Vc2UiIGdyYWRpZW50VHJhbnNmb3JtPSJzY2FsZSgxLjkyNTgwOCwwLjUxOTI2MikiLz4mI3hhOyAgICA8bGluZWFyR3JhZGllbnQgeDE9IjE4LjMxNjk5OSIgeTE9IjQ4LjY0MzIzNCIgeDI9IjE4LjE3Njc1MiIgeTI9IjUyLjUzNjQ2MSIgaWQ9ImxpbmVhckdyYWRpZW50MzA5NTAiIHhsaW5rOmhyZWY9IiNsaW5lYXJHcmFkaWVudDIyNDUiIGdyYWRpZW50VW5pdHM9InVzZXJTcGFjZU9uVXNlIiBncmFkaWVudFRyYW5zZm9ybT0ic2NhbGUoMS4xMjk4NjMsMC44ODUwNjMpIi8+JiN4YTsgICAgPGxpbmVhckdyYWRpZW50IHgxPSIxMC4zOTA3MzgiIHkxPSI1LjM4MTc3NDQiIHgyPSIzMi41MzY4MjMiIHkyPSIzMS4yNDYwNTQiIGlkPSJsaW5lYXJHcmFkaWVudDMwOTUyIiB4bGluazpocmVmPSIjbGluZWFyR3JhZGllbnQyMjUzIiBncmFkaWVudFVuaXRzPSJ1c2VyU3BhY2VPblVzZSIgZ3JhZGllbnRUcmFuc2Zvcm09InNjYWxlKDEuMTA0Mzk3LDAuOTA1NDcxKSIvPiYjeGE7ICAgIDxsaW5lYXJHcmFkaWVudCB4MT0iOC4xMTM0MjQzIiB5MT0iODguNTA5MDcxIiB4Mj0iOC4xMTM0MjMzIiB5Mj0iMTAwLjIwMDE1IiBpZD0ibGluZWFyR3JhZGllbnQzMDk1NCIgeGxpbms6aHJlZj0iI2xpbmVhckdyYWRpZW50Mjc1MiIgZ3JhZGllbnRVbml0cz0idXNlclNwYWNlT25Vc2UiIGdyYWRpZW50VHJhbnNmb3JtPSJzY2FsZSgyLjMwOTg1MSwwLjQzMjkyOCkiLz4mI3hhOyAgICA8bGluZWFyR3JhZGllbnQgeDE9IjguMTEzNDI0MyIgeTE9Ijg4LjUwOTA3MSIgeDI9IjguMTEzNDIzMyIgeTI9IjEwMC4yMDAxNSIgaWQ9ImxpbmVhckdyYWRpZW50MzA5NTYiIHhsaW5rOmhyZWY9IiNsaW5lYXJHcmFkaWVudDI3NTIiIGdyYWRpZW50VW5pdHM9InVzZXJTcGFjZU9uVXNlIiBncmFkaWVudFRyYW5zZm9ybT0ic2NhbGUoMi4zMDk4NTEsMC40MzI5MjgpIi8+JiN4YTsgICAgPGxpbmVhckdyYWRpZW50IHgxPSI4LjExMzQyNDMiIHkxPSI4OC41MDkwNzEiIHgyPSI4LjExMzQyMzMiIHkyPSIxMDAuMjAwMTUiIGlkPSJsaW5lYXJHcmFkaWVudDMwOTU4IiB4bGluazpocmVmPSIjbGluZWFyR3JhZGllbnQyNzUyIiBncmFkaWVudFVuaXRzPSJ1c2VyU3BhY2VPblVzZSIgZ3JhZGllbnRUcmFuc2Zvcm09InNjYWxlKDIuMzA5ODUxLDAuNDMyOTI4KSIvPiYjeGE7ICAgIDxsaW5lYXJHcmFkaWVudCB4MT0iMTMuNjI4NzEiIHkxPSIxMDEuMjg0NiIgeDI9IjguNjQ4NTAxNCIgeTI9Ijc0LjA5ODAwNyIgaWQ9ImxpbmVhckdyYWRpZW50MzA5NjAiIHhsaW5rOmhyZWY9IiNsaW5lYXJHcmFkaWVudDI2MzUiIGdyYWRpZW50VW5pdHM9InVzZXJTcGFjZU9uVXNlIiBncmFkaWVudFRyYW5zZm9ybT0ibWF0cml4KDIuMTQzNjM0LDAsMCwwLjQ2NjQ5OCwxLC0wLjUwODgyNikiLz4mI3hhOyAgICA8bGluZWFyR3JhZGllbnQgeDE9IjM0LjMwMDk5MSIgeTE9IjMuOTM4NDA4NiIgeDI9IjM1LjUyMDU0MiIgeTI9IjMuODQ1MTA5NyIgaWQ9ImxpbmVhckdyYWRpZW50MzA5NjIiIHhsaW5rOmhyZWY9IiNsaW5lYXJHcmFkaWVudDI3MTEiIGdyYWRpZW50VW5pdHM9InVzZXJTcGFjZU9uVXNlIi8+JiN4YTsgICAgPGxpbmVhckdyYWRpZW50IHgxPSIzNC4zMDA5OTEiIHkxPSIzLjkzODQwODYiIHgyPSIzNS41MjA1NDIiIHkyPSIzLjg0NTEwOTciIGlkPSJsaW5lYXJHcmFkaWVudDMwOTY0IiB4bGluazpocmVmPSIjbGluZWFyR3JhZGllbnQyNzExIiBncmFkaWVudFVuaXRzPSJ1c2VyU3BhY2VPblVzZSIvPiYjeGE7ICAgIDxsaW5lYXJHcmFkaWVudCB4MT0iMzQuMzAwOTkxIiB5MT0iMy45Mzg0MDg2IiB4Mj0iMzUuNTIwNTQyIiB5Mj0iMy44NDUxMDk3IiBpZD0ibGluZWFyR3JhZGllbnQzMDk2NiIgeGxpbms6aHJlZj0iI2xpbmVhckdyYWRpZW50MjcxMSIgZ3JhZGllbnRVbml0cz0idXNlclNwYWNlT25Vc2UiLz4mI3hhOyAgICA8bGluZWFyR3JhZGllbnQgeDE9IjM0LjMwMDk5MSIgeTE9IjMuOTM4NDA4NiIgeDI9IjM1LjUyMDU0MiIgeTI9IjMuODQ1MTA5NyIgaWQ9ImxpbmVhckdyYWRpZW50MzA5NjgiIHhsaW5rOmhyZWY9IiNsaW5lYXJHcmFkaWVudDI3MTEiIGdyYWRpZW50VW5pdHM9InVzZXJTcGFjZU9uVXNlIi8+JiN4YTsgICAgPGxpbmVhckdyYWRpZW50IHgxPSIzNC4zMDA5OTEiIHkxPSIzLjkzODQwODYiIHgyPSIzNS41MjA1NDIiIHkyPSIzLjg0NTEwOTciIGlkPSJsaW5lYXJHcmFkaWVudDMwOTcwIiB4bGluazpocmVmPSIjbGluZWFyR3JhZGllbnQyNzExIiBncmFkaWVudFVuaXRzPSJ1c2VyU3BhY2VPblVzZSIvPiYjeGE7ICA8L2RlZnM+JiN4YTsgIDxnIGlkPSJsYXllcjEiIHN0eWxlPSJkaXNwbGF5OmlubGluZSIvPiYjeGE7ICA8ZyBpZD0ibGF5ZXIyIiBzdHlsZT0iZGlzcGxheTppbmxpbmUiPiYjeGE7ICAgIDxnIHRyYW5zZm9ybT0ibWF0cml4KDIuNTIzNzUzLDAsMCwyLjUyMzc1MywtMTQuMzY1MDQ5LDM2LjkxMTM1OSkiIGlkPSJnMjg2MCI+JiN4YTsgICAgICA8ZyB0cmFuc2Zvcm09InRyYW5zbGF0ZSg3LjE2NTgzNiwtMTIuOTQwNzkpIiBpZD0iZzM4ODAiPiYjeGE7ICAgICAgICA8cGF0aCBkPSJtIDQxLjEwMDU4LDM1LjA1MTEwNSBjIDAuMDAyNCwyLjUxNDQ1NCAtNy41NTY3MjMsNC41NTMxNjIgLTE2Ljg4MjE3Myw0LjU1MzE2MiAtOS4zMjU0NTEsMCAtMTYuODg0NTU0MywtMi4wMzg3MDggLTE2Ljg4MjE3MzksLTQuNTUzMTYyIC0wLjAwMjM4LC0yLjUxNDQ1NCA3LjU1NjcyMjksLTQuNTUzMTYyIDE2Ljg4MjE3MzksLTQuNTUzMTYyIDkuMzI1NDUsMCAxNi44ODQ1NTMsMi4wMzg3MDggMTYuODgyMTczLDQuNTUzMTYyIHoiIHRyYW5zZm9ybT0ibWF0cml4KDEsMCwwLDEuMzY4OTMyLC0xLjk3ODU1MywtMTMuNjE3MTMpIiBpZD0icGF0aDI4NjIiIHN0eWxlPSJmaWxsOnVybCgjcmFkaWFsR3JhZGllbnQzMDkyOCk7ZmlsbC1vcGFjaXR5OjE7ZmlsbC1ydWxlOmV2ZW5vZGQ7c3Ryb2tlOm5vbmU7c3Ryb2tlLXdpZHRoOjE7bWFya2VyOm5vbmU7dmlzaWJpbGl0eTp2aXNpYmxlO2Rpc3BsYXk6aW5saW5lO292ZXJmbG93OnZpc2libGUiLz4mI3hhOyAgICAgICAgPHBhdGggZD0ibSAtMjYuMjYzOTY4LDI5LjcxNjIzOCBjIDAuMDAxMSwyLjE3NjA5NiAtNC4yMDUyNjcsMy45NDA0MDggLTkuMzk0NDE4LDMuOTQwNDA4IC01LjE4OTE1MiwwIC05LjM5NTQ5LC0xLjc2NDMxMiAtOS4zOTQ0MTksLTMuOTQwNDA4IC0wLjAwMTEsLTIuMTc2MDk2IDQuMjA1MjY3LC0zLjk0MDQwOCA5LjM5NDQxOSwtMy45NDA0MDggNS4xODkxNTEsMCA5LjM5NTQ4OSwxLjc2NDMxMiA5LjM5NDQxOCwzLjk0MDQwOCBsIDAsMCB6IiB0cmFuc2Zvcm09InRyYW5zbGF0ZSg1Ny41MzMzOSwzLjIwMzQyNykiIGlkPSJwYXRoMjg2NCIgc3R5bGU9ImZpbGw6I2FkYjBhYTtmaWxsLW9wYWNpdHk6MTtmaWxsLXJ1bGU6ZXZlbm9kZDtzdHJva2U6IzRiNGQ0YTtzdHJva2Utd2lkdGg6MS4yODMxMzc1NjtzdHJva2UtbGluZWNhcDpidXR0O3N0cm9rZS1saW5lam9pbjptaXRlcjtzdHJva2UtbWl0ZXJsaW1pdDo0O3N0cm9rZS1vcGFjaXR5OjE7c3Ryb2tlLWRhc2hvZmZzZXQ6MDttYXJrZXI6bm9uZTt2aXNpYmlsaXR5OnZpc2libGU7ZGlzcGxheTppbmxpbmU7b3ZlcmZsb3c6dmlzaWJsZSIvPiYjeGE7ICAgICAgICA8cGF0aCBkPSJtIC0yNi4yNjM5NjgsMjkuNzE2MjM4IGMgMC4wMDExLDIuMTc2MDk2IC00LjIwNTI2NywzLjk0MDQwOCAtOS4zOTQ0MTgsMy45NDA0MDggLTUuMTg5MTUyLDAgLTkuMzk1NDksLTEuNzY0MzEyIC05LjM5NDQxOSwtMy45NDA0MDggLTAuMDAxMSwtMi4xNzYwOTYgNC4yMDUyNjcsLTMuOTQwNDA4IDkuMzk0NDE5LC0zLjk0MDQwOCA1LjE4OTE1MSwwIDkuMzk1NDg5LDEuNzY0MzEyIDkuMzk0NDE4LDMuOTQwNDA4IGwgMCwwIHoiIHRyYW5zZm9ybT0ibWF0cml4KDAuOTQwMjczLDAsMCwwLjk0MDI3Myw1NS40MDM2MSw0LjI3MTE5NCkiIGlkPSJwYXRoMjg2NiIgc3R5bGU9ImZpbGw6bm9uZTtzdHJva2U6IzdiN2Y3YTtzdHJva2Utd2lkdGg6MS4yODMxMzc1NjtzdHJva2UtbGluZWNhcDpidXR0O3N0cm9rZS1saW5lam9pbjptaXRlcjtzdHJva2UtbWl0ZXJsaW1pdDo0O3N0cm9rZS1vcGFjaXR5OjE7c3Ryb2tlLWRhc2hvZmZzZXQ6MDttYXJrZXI6bm9uZTt2aXNpYmlsaXR5OnZpc2libGU7ZGlzcGxheTppbmxpbmU7b3ZlcmZsb3c6dmlzaWJsZSIvPiYjeGE7ICAgICAgICA8cGF0aCBkPSJtIC0yNi4yNjM5NjgsMjkuNzE2MjM4IGMgMC4wMDExLDIuMTc2MDk2IC00LjIwNTI2NywzLjk0MDQwOCAtOS4zOTQ0MTgsMy45NDA0MDggLTUuMTg5MTUyLDAgLTkuMzk1NDksLTEuNzY0MzEyIC05LjM5NDQxOSwtMy45NDA0MDggLTAuMDAxMSwtMi4xNzYwOTYgNC4yMDUyNjcsLTMuOTQwNDA4IDkuMzk0NDE5LC0zLjk0MDQwOCA1LjE4OTE1MSwwIDkuMzk1NDg5LDEuNzY0MzEyIDkuMzk0NDE4LDMuOTQwNDA4IGwgMCwwIHoiIHRyYW5zZm9ybT0ibWF0cml4KDAuOTQwMjczLDAsMCwwLjk0MDI3Myw1NS40MDM2MSwzLjUyMTE5NCkiIGlkPSJwYXRoMjg2OCIgc3R5bGU9ImZpbGw6bm9uZTtzdHJva2U6dXJsKCNsaW5lYXJHcmFkaWVudDMwOTMwKTtzdHJva2Utd2lkdGg6MC44NzMzNzE5O3N0cm9rZS1saW5lY2FwOmJ1dHQ7c3Ryb2tlLWxpbmVqb2luOm1pdGVyO3N0cm9rZS1taXRlcmxpbWl0OjQ7c3Ryb2tlLW9wYWNpdHk6MTtzdHJva2UtZGFzaG9mZnNldDowO21hcmtlcjpub25lO3Zpc2liaWxpdHk6dmlzaWJsZTtkaXNwbGF5OmlubGluZTtvdmVyZmxvdzp2aXNpYmxlIi8+JiN4YTsgICAgICAgIDxwYXRoIGQ9Im0gMjUuNjg3NSwyOC43NjYyNDMgLTAuMDYyNSwxIGMgMCwwIDQuMzI0MTA4LDMuNTk5MTY2IDksNC4yMDI1MDcgMi4zMzc5NDYsMC4zMDE2NyA0Ljc1MzY3NSwwLjcwMjQxMiA2Ljc1LDEuMTg3NSAxLjk5NjMyNSwwLjQ4NTA4OCAzLjU4ODM1NiwxLjExOTYwNiA0LjEyNSwxLjY1NjI1IDAuMzEwNDExLDAuMzEwNDExIDAuNDUxMDYzLDAuNTczNjM5IDAuNSwwLjc4MTI1IDAuMDQ4OTQsMC4yMDc2MTEgMC4wMzgyMiwwLjM1NDgxNSAtMC4wOTM3NSwwLjU2MjUgLTAuMjYzOTMzLDAuNDE1MzcgLTEuMDc5ODU3LDAuOTY3NjUyIC0yLjQ2ODc1LDEuNDA2MjUgQyA0MC42NTk3MTUsNDAuNDM5Njk1IDM1LjcxNzA3Niw0MSAyOC44NzUsNDEgbCAwLDEgYyA2Ljg5NTk5OCwwIDExLjg2MzY2NSwtMC41Mjc2NzEgMTQuODQzNzUsLTEuNDY4NzUgMS40OTAwNDIsLTAuNDcwNTQgMi41MjQ5NDIsLTEuMDE1Njg3IDMuMDMxMjUsLTEuODEyNSBDIDQ3LjAwMzE1NCwzOC4zMjAzNDQgNDcuMTA3MzIxLDM3LjgzMDMwMSA0NywzNy4zNzUgNDYuODkyNjc5LDM2LjkxOTY5OSA0Ni42MTU0NDUsMzYuNDkwNDQ1IDQ2LjIxODc1LDM2LjA5Mzc1IDQ1LjM0MTE4LDM1LjIxNjE4IDQzLjY4MTkxMiwzNC42ODczMSA0MS42MjUsMzQuMTg3NSAzOS41NjgwODgsMzMuNjg3NjkgMzcuMTA5MjY0LDMzLjI3MzE3MSAzNC43NSwzMi45Njg3NSAzMC4wMzE0NzMsMzIuMzU5OTA4IDI1LjY4NzUsMjguNzY2MjQzIDI1LjY4NzUsMjguNzY2MjQzIHoiIGlkPSJwYXRoMjg3MCIgc3R5bGU9ImZpbGw6I2QwZDBkMDtmaWxsLW9wYWNpdHk6MTtmaWxsLXJ1bGU6ZXZlbm9kZDtzdHJva2U6Izk3OTc5NztzdHJva2Utd2lkdGg6MC41MTMyNTU7c3Ryb2tlLWxpbmVjYXA6YnV0dDtzdHJva2UtbGluZWpvaW46cm91bmQ7c3Ryb2tlLW1pdGVybGltaXQ6NDtzdHJva2Utb3BhY2l0eToxIi8+JiN4YTsgICAgICAgIDxwYXRoIGQ9Im0gNDEuMTAwNTgsMzUuMDUxMTA1IGMgMC4wMDI0LDIuNTE0NDU0IC03LjU1NjcyMyw0LjU1MzE2MiAtMTYuODgyMTczLDQuNTUzMTYyIC05LjMyNTQ1MSwwIC0xNi44ODQ1NTQzLC0yLjAzODcwOCAtMTYuODgyMTczOSwtNC41NTMxNjIgLTAuMDAyMzgsLTIuNTE0NDU0IDcuNTU2NzIyOSwtNC41NTMxNjIgMTYuODgyMTczOSwtNC41NTMxNjIgOS4zMjU0NSwwIDE2Ljg4NDU1MywyLjAzODcwOCAxNi44ODIxNzMsNC41NTMxNjIgeiIgdHJhbnNmb3JtPSJtYXRyaXgoMSwwLDAsMS4zNjg5MzIsLTEuOTc4NTUzLC0xOS4wMjEyNikiIGlkPSJwYXRoMjg3MiIgc3R5bGU9ImZpbGw6dXJsKCNyYWRpYWxHcmFkaWVudDMwOTMyKTtmaWxsLW9wYWNpdHk6MTtmaWxsLXJ1bGU6ZXZlbm9kZDtzdHJva2U6bm9uZTtzdHJva2Utd2lkdGg6MTttYXJrZXI6bm9uZTt2aXNpYmlsaXR5OnZpc2libGU7ZGlzcGxheTppbmxpbmU7b3ZlcmZsb3c6dmlzaWJsZSIvPiYjeGE7ICAgICAgICA8cmVjdCB3aWR0aD0iOS4wMzk2NzI5IiBoZWlnaHQ9IjIuNzQwMDM4OSIgeD0iMTcuNDcyMzk3IiB5PSIzMC43MDM2MTEiIGlkPSJyZWN0Mjg3NCIgc3R5bGU9ImZpbGw6dXJsKCNsaW5lYXJHcmFkaWVudDMwOTM0KTtmaWxsLW9wYWNpdHk6MTtmaWxsLXJ1bGU6ZXZlbm9kZDtzdHJva2U6bm9uZTtzdHJva2Utd2lkdGg6MC42MDg3Mjk0ODttYXJrZXI6bm9uZTt2aXNpYmlsaXR5OnZpc2libGU7ZGlzcGxheTppbmxpbmU7b3ZlcmZsb3c6dmlzaWJsZSIvPiYjeGE7ICAgICAgICA8cGF0aCBkPSJtIDcuMDgwOTAyNCwxLjY5NTYyMjEgMjkuNTg4MTk0NiwwIGMgMC45MTEzNDIsMCAxLjYyNDE0NywwLjU4MzQ4MTggMS42NjY3NTIsMS40MDE1ODcgbCAxLjMzMjA0NCwyNS41NzgxMTM5IGMgMC4wNTgyMSwxLjExNzczNSAtMC45MDEwNTYsMi4wMjAzMDUgLTIuMDIwMzA1LDIuMDIwMzA1IGwgLTMxLjU0NTE3NiwwIGMgLTEuMTE5MjQ5MSwwIC0yLjA3ODUxNCwtMC45MDI1NyAtMi4wMjAzMDUyLC0yLjAyMDMwNSBMIDUuNDE0MTUwNiwzLjA5NzIwOTEgYyAwLjA0MDI4NCwtMC43NzM1MzQ2IDAuNTQ3NTAyNywtMS40MDE1ODcgMS42NjY3NTE4LC0xLjQwMTU4NyB6IiBpZD0icGF0aDI4NzYiIHN0eWxlPSJmaWxsOnVybCgjbGluZWFyR3JhZGllbnQzMDkzNik7ZmlsbC1vcGFjaXR5OjE7ZmlsbC1ydWxlOmV2ZW5vZGQ7c3Ryb2tlOnVybCgjbGluZWFyR3JhZGllbnQzMDkzOCk7c3Ryb2tlLXdpZHRoOjEuMjgzMTM3NTY7c3Ryb2tlLWxpbmVjYXA6YnV0dDtzdHJva2UtbGluZWpvaW46bWl0ZXI7c3Ryb2tlLW1pdGVybGltaXQ6NDtzdHJva2Utb3BhY2l0eToxO3N0cm9rZS1kYXNob2Zmc2V0OjA7bWFya2VyOm5vbmU7dmlzaWJpbGl0eTp2aXNpYmxlO2Rpc3BsYXk6aW5saW5lO292ZXJmbG93OnZpc2libGUiLz4mI3hhOyAgICAgICAgPHBhdGggZD0ibSA4LjQxMDUzNDgsNC4zMDU4MjcyIC0xLjI0MjE5NSwyMi4wNDUzMTY4IDI3LjY1MDM4OTIsMCBMIDMzLjQ4MzcxMiw0LjM5OTI1NTggOC40MTA1MzQ4LDQuMzA1ODI3MiB6IiBpZD0icGF0aDI4NzgiIHN0eWxlPSJmaWxsOnVybCgjbGluZWFyR3JhZGllbnQzMDk0MCk7ZmlsbC1vcGFjaXR5OjE7ZmlsbC1ydWxlOmV2ZW5vZGQ7c3Ryb2tlOiM0MjYzYTg7c3Ryb2tlLXdpZHRoOjAuNjQxNTY4ODQ7c3Ryb2tlLWxpbmVjYXA6YnV0dDtzdHJva2UtbGluZWpvaW46cm91bmQ7c3Ryb2tlLW1pdGVybGltaXQ6NDtzdHJva2Utb3BhY2l0eToxO3N0cm9rZS1kYXNoYXJyYXk6bm9uZTtzdHJva2UtZGFzaG9mZnNldDowO21hcmtlcjpub25lO3Zpc2liaWxpdHk6dmlzaWJsZTtkaXNwbGF5OmlubGluZTtvdmVyZmxvdzp2aXNpYmxlIi8+JiN4YTsgICAgICAgIDxwYXRoIGQ9Im0gNi4xNzc0MzMxLDI4LjczNTc4OSAzMS40Mjg0NzY5LDAiIGlkPSJwYXRoMjg4MCIgc3R5bGU9ImZpbGw6bm9uZTtzdHJva2U6dXJsKCNsaW5lYXJHcmFkaWVudDMwOTQyKTtzdHJva2Utd2lkdGg6MS4yNzgyMzc0NjtzdHJva2UtbGluZWNhcDpyb3VuZDtzdHJva2UtbGluZWpvaW46bWl0ZXI7c3Ryb2tlLW1pdGVybGltaXQ6NDtzdHJva2Utb3BhY2l0eTowLjI0ODQwNzY0Ii8+JiN4YTsgICAgICAgIDxwYXRoIGQ9Ik0gNi45MTQ1OTg1LDIuNzA2MzM5NiAzNi43NjAxMDEsMi42Njg1MzgzIGMgMC4yODM2OTcsLTMuNTkzZS00IDAuNTU5MzAyLDAuMjM3MjQ5OCAwLjU4MjEwNSwwLjY1MjU0MzggTCAzOC43MDQwOTgsMjguMTI0MzMgYyAwLjA1ODA0LDEuMDU3MDMxIC0wLjUzOTc0OSwxLjc4NTg3MSAtMS41OTgzNzEsMS43ODU4NzEgbCAtMzAuNTIzOTY4NywwIGMgLTEuMDU4NjIyOCwwIC0xLjU5MzAxNDQsLTAuNzI4NzkxIC0xLjUzNTg3MTQsLTEuNzg1ODcxIEwgNi4zNjk5NzczLDMuNjMwMTYzMyBDIDYuNDA4NjczMiwyLjkxNDMzMjYgNi41MzYzNjI3LDIuNzA2ODE4NyA2LjkxNDU5ODUsMi43MDYzMzk2IHoiIGlkPSJwYXRoMjg4MiIgc3R5bGU9ImZpbGw6bm9uZTtzdHJva2U6dXJsKCNsaW5lYXJHcmFkaWVudDMwOTQ0KTtzdHJva2Utd2lkdGg6MS4yODMxMzcwODtzdHJva2UtbGluZWNhcDpidXR0O3N0cm9rZS1saW5lam9pbjptaXRlcjtzdHJva2UtbWl0ZXJsaW1pdDo0O3N0cm9rZS1vcGFjaXR5OjAuNzAwNjM2OTI7c3Ryb2tlLWRhc2hvZmZzZXQ6MDttYXJrZXI6bm9uZTt2aXNpYmlsaXR5OnZpc2libGU7ZGlzcGxheTppbmxpbmU7b3ZlcmZsb3c6dmlzaWJsZSIvPiYjeGE7ICAgICAgICA8cGF0aCBkPSJNIDguNzExNTM2NCw0Ljc0NjM2MjYgNy45MDkwMDY5LDIyLjYxNjY5MyBDIDE4Ljk1MzY0NSwyMC4yMTYwNjMgMTkuMzMwNDcsMTIuMTI0NDk0IDMzLjA2MzAzOSw5LjQ2OTk0MjYgTCAzMi45MDE1NjcsNC44MTI0MjY3IDguNzExNTM2NCw0Ljc0NjM2MjYgeiIgaWQ9InBhdGgyODg0IiBzdHlsZT0ib3BhY2l0eTowLjUzMTQyODU2O2ZpbGw6dXJsKCNsaW5lYXJHcmFkaWVudDMwOTQ2KTtmaWxsLW9wYWNpdHk6MTtmaWxsLXJ1bGU6ZXZlbm9kZDtzdHJva2U6bm9uZSIvPiYjeGE7ICAgICAgICA8cGF0aCBkPSJtIDQxLjEwMDU4LDM1LjA1MTEwNSBjIDAuMDAyNCwyLjUxNDQ1NCAtNy41NTY3MjMsNC41NTMxNjIgLTE2Ljg4MjE3Myw0LjU1MzE2MiAtOS4zMjU0NTEsMCAtMTYuODg0NTU0MywtMi4wMzg3MDggLTE2Ljg4MjE3MzksLTQuNTUzMTYyIC0wLjAwMjM4LC0yLjUxNDQ1NCA3LjU1NjcyMjksLTQuNTUzMTYyIDE2Ljg4MjE3MzksLTQuNTUzMTYyIDkuMzI1NDUsMCAxNi44ODQ1NTMsMi4wMzg3MDggMTYuODgyMTczLDQuNTUzMTYyIHoiIHRyYW5zZm9ybT0ibWF0cml4KDEuMjY0Mzk4LDAsMCwxLjI5MTI2MiwtNi4yMTYzMzIsLTQuMDAwNDIzKSIgaWQ9InBhdGgyODg2IiBzdHlsZT0iZmlsbDp1cmwoI3JhZGlhbEdyYWRpZW50MzA5NDgpO2ZpbGwtb3BhY2l0eToxO2ZpbGwtcnVsZTpldmVub2RkO3N0cm9rZTpub25lO3N0cm9rZS13aWR0aDoxO21hcmtlcjpub25lO3Zpc2liaWxpdHk6dmlzaWJsZTtkaXNwbGF5OmlubGluZTtvdmVyZmxvdzp2aXNpYmxlIi8+JiN4YTsgICAgICAgIDxwYXRoIGQ9Im0gNi40NjIxODM5LDM2LjgxNzQ1MiAzMS4wMDI0MDYxLDAgYyAxLjExOTI0OSwwIDAuOTc3MzU1LDAuMjcxNDM4IDEuMDkyMjI3LDAuNjEyODQ2IGwgMi44MzQ2NDYsOC40MjQ4MSBjIDAuMTE0ODcyLDAuMzQxNDA5IDAuMDI3MDIsMC42MTI4NDYgLTEuMDkyMjI3LDAuNjEyODQ2IGwgLTM2LjY3MTY5NzgsMCBjIC0xLjExOTI0OTEsMCAtMS4yMDcwOTk1LC0wLjI3MTQzNyAtMS4wOTIyMjc1LC0wLjYxMjg0NiBsIDIuODM0NjQ1NywtOC40MjQ4MSBjIDAuMTE0ODcyLC0wLjM0MTQwOSAtMC4wMjcwMjIsLTAuNjEyODQ2IDEuMDkyMjI3NSwtMC42MTI4NDYgeiIgaWQ9InBhdGgyODg4IiBzdHlsZT0iZmlsbDp1cmwoI2xpbmVhckdyYWRpZW50MzA5NTApO2ZpbGwtb3BhY2l0eToxO2ZpbGwtcnVsZTpldmVub2RkO3N0cm9rZTp1cmwoI2xpbmVhckdyYWRpZW50MzA5NTIpO3N0cm9rZS13aWR0aDoxLjI4MzEzNzU2O3N0cm9rZS1saW5lY2FwOmJ1dHQ7c3Ryb2tlLWxpbmVqb2luOm1pdGVyO3N0cm9rZS1taXRlcmxpbWl0OjQ7c3Ryb2tlLW9wYWNpdHk6MTtzdHJva2UtZGFzaGFycmF5Om5vbmU7c3Ryb2tlLWRhc2hvZmZzZXQ6MDttYXJrZXI6bm9uZTt2aXNpYmlsaXR5OnZpc2libGU7ZGlzcGxheTppbmxpbmU7b3ZlcmZsb3c6dmlzaWJsZSIvPiYjeGE7ICAgICAgICA8cGF0aCBkPSJtIDYuMzkxNjg5MiwzOC44MjkxMTMgLTEuNzY3NzY2OSw1LjEyNjUyNSA1LjQ4MDA3NzcsMCAwLjUzMDMzLC0yLjAzMjkzMiAxNC44NDkyNDIsMCAwLjU0OTY3OSwyLjA3NTExNCA2LjE2NzgzNSwwIC0xLjY3OTM3OCwtNS4xNjg3MDcgLTI0LjEzMDAxODgsMCB6IiBpZD0icGF0aDI4OTAiIHN0eWxlPSJmaWxsOiM3YTdkNzc7ZmlsbC1vcGFjaXR5OjE7ZmlsbC1ydWxlOmV2ZW5vZGQ7c3Ryb2tlOm5vbmUiLz4mI3hhOyAgICAgICAgPHBhdGggZD0ibSAxMS4wNzYyNzIsNDIuMjc2MjYgLTAuNDQxOTQyLDEuNjc5Mzc5IDE0Ljc2MDg1NCwwIC0wLjQ0MTk0MiwtMS43Njc3NjcgLTEzLjg3Njk3LDAuMDg4MzkgeiIgaWQ9InBhdGgyODkyIiBzdHlsZT0iZmlsbDojNzc3ODc0O2ZpbGwtb3BhY2l0eToxO2ZpbGwtcnVsZTpldmVub2RkO3N0cm9rZTpub25lIi8+JiN4YTsgICAgICAgIDxwYXRoIGQ9Im0gMzcuNTkyNzc2LDM4LjgyOTExNCAxLjY3OTM3OSw1LjAzODEzNiAtNS40ODAwNzgsLTAuMDg4MzkgLTEuNTAyNjAyLC00Ljg2MTM1OSA1LjMwMzMwMSwtMC4wODgzOSB6IiBpZD0icGF0aDI4OTQiIHN0eWxlPSJmaWxsOiM3NzdhNzU7ZmlsbC1vcGFjaXR5OjE7ZmlsbC1ydWxlOmV2ZW5vZGQ7c3Ryb2tlOm5vbmU7c3Ryb2tlLXdpZHRoOjAuMjVwdDttYXJrZXI6bm9uZTt2aXNpYmlsaXR5OnZpc2libGU7ZGlzcGxheTppbmxpbmU7b3ZlcmZsb3c6dmlzaWJsZSIvPiYjeGE7ICAgICAgICA8cGF0aCBkPSJtIDM3LjU5Mjc3NiwzOC4yOTg3ODYgMS42NzkzNzksNS4wMzgxMzYgLTUuNDgwMDc4LC0wLjA4ODM5IC0xLjUwMjYwMiwtNC44NjEzNTkgNS4zMDMzMDEsLTAuMDg4MzkgeiIgaWQ9InBhdGgyODk2IiBzdHlsZT0iZmlsbDp1cmwoI2xpbmVhckdyYWRpZW50MzA5NTQpO2ZpbGwtb3BhY2l0eToxO2ZpbGwtcnVsZTpldmVub2RkO3N0cm9rZTpub25lO3N0cm9rZS13aWR0aDowLjI1cHQ7bWFya2VyOm5vbmU7dmlzaWJpbGl0eTp2aXNpYmxlO2Rpc3BsYXk6aW5saW5lO292ZXJmbG93OnZpc2libGUiLz4mI3hhOyAgICAgICAgPHBhdGggZD0ibSA2LjM5MTY4OTIsMzguMjEwMzk3IC0xLjc2Nzc2NjksNS4xMjY1MjUgNS40ODAwNzc3LDAgMC41MzAzMywtMi4wMzI5MzIgMTQuODQ5MjQyLDAgMC41NDk2NzksMi4wNzUxMTQgNi4xNjc4MzUsMCAtMS42NzkzNzgsLTUuMTY4NzA3IC0yNC4xMzAwMTg4LDAgeiIgaWQ9InBhdGgyODk4IiBzdHlsZT0iZmlsbDp1cmwoI2xpbmVhckdyYWRpZW50MzA5NTYpO2ZpbGwtb3BhY2l0eToxO2ZpbGwtcnVsZTpldmVub2RkO3N0cm9rZTpub25lIi8+JiN4YTsgICAgICAgIDxwYXRoIGQ9Im0gMTEuMDc2MjcyLDQxLjc0NTkzMiAtMC40NDE5NDIsMS42NzkzNzkgMTQuNzYwODU0LDAgLTAuNDQxOTQyLC0xLjc2Nzc2NyAtMTMuODc2OTcsMC4wODgzOSB6IiBpZD0icGF0aDI5MDAiIHN0eWxlPSJmaWxsOnVybCgjbGluZWFyR3JhZGllbnQzMDk1OCk7ZmlsbC1vcGFjaXR5OjE7ZmlsbC1ydWxlOmV2ZW5vZGQ7c3Ryb2tlOm5vbmU7c3Ryb2tlLXdpZHRoOjAuMjVwdDttYXJrZXI6bm9uZTt2aXNpYmlsaXR5OnZpc2libGU7ZGlzcGxheTppbmxpbmU7b3ZlcmZsb3c6dmlzaWJsZSIvPiYjeGE7ICAgICAgICA8cGF0aCBkPSJtIDYuMTI3ODE4OSwzNy41NzgxMTYgMzEuODI1ODE1MSwwIDIuNjM3MTc5LDguMDkyNTYzIC0zNy4yNjEwNzAxLDAgMi43OTgwNzYsLTguMDkyNTYzIHoiIGlkPSJwYXRoMjkwMiIgc3R5bGU9ImZpbGw6bm9uZTtzdHJva2U6dXJsKCNsaW5lYXJHcmFkaWVudDMwOTYwKTtzdHJva2Utd2lkdGg6MC42NDE1Njg3ODtzdHJva2UtbGluZWNhcDpidXR0O3N0cm9rZS1saW5lam9pbjpyb3VuZDtzdHJva2UtbWl0ZXJsaW1pdDo0O3N0cm9rZS1vcGFjaXR5OjE7c3Ryb2tlLWRhc2hvZmZzZXQ6MDttYXJrZXI6bm9uZTt2aXNpYmlsaXR5OnZpc2libGU7ZGlzcGxheTppbmxpbmU7b3ZlcmZsb3c6dmlzaWJsZSIvPiYjeGE7ICAgICAgICA8cGF0aCBkPSJtIDM1LjYyMDUwNCwzLjkzODQwODYgYyAzLjk5ZS00LDAuNDY0MDI5MiAtMC4zNzU2NiwwLjg0MDQxMDggLTAuODM5Njg5LDAuODQwNDEwOCAtMC40NjQwMjksMCAtMC44NDAwODgsLTAuMzc2MzgxNiAtMC44Mzk2ODksLTAuODQwNDEwOCAtMy45OWUtNCwtMC40NjQwMjkyIDAuMzc1NjYsLTAuODQwNDEwOCAwLjgzOTY4OSwtMC44NDA0MTA4IDAuNDY0MDI5LDAgMC44NDAwODgsMC4zNzYzODE2IDAuODM5Njg5LDAuODQwNDEwOCB6IiB0cmFuc2Zvcm09Im1hdHJpeCgxLjMzMTIzNywwLDAsMC42NTg0NDksLTEwLjQxOTMzLDIuODUzODY2KSIgaWQ9InBhdGgyOTA0IiBzdHlsZT0iZmlsbDp1cmwoI2xpbmVhckdyYWRpZW50MzA5NjIpO2ZpbGwtb3BhY2l0eToxO2ZpbGwtcnVsZTpldmVub2RkO3N0cm9rZTpub25lO3N0cm9rZS13aWR0aDowLjU7bWFya2VyOm5vbmU7dmlzaWJpbGl0eTp2aXNpYmxlO2Rpc3BsYXk6aW5saW5lO292ZXJmbG93OnZpc2libGUiLz4mI3hhOyAgICAgICAgPHBhdGggZD0ibSAzNS42MjA1MDQsMy45Mzg0MDg2IGMgMy45OWUtNCwwLjQ2NDAyOTIgLTAuMzc1NjYsMC44NDA0MTA4IC0wLjgzOTY4OSwwLjg0MDQxMDggLTAuNDY0MDI5LDAgLTAuODQwMDg4LC0wLjM3NjM4MTYgLTAuODM5Njg5LC0wLjg0MDQxMDggLTMuOTllLTQsLTAuNDY0MDI5MiAwLjM3NTY2LC0wLjg0MDQxMDggMC44Mzk2ODksLTAuODQwNDEwOCAwLjQ2NDAyOSwwIDAuODQwMDg4LDAuMzc2MzgxNiAwLjgzOTY4OSwwLjg0MDQxMDggeiIgdHJhbnNmb3JtPSJtYXRyaXgoMS4zMzEyMzcsMCwwLDAuNjU4NDQ5LC0xMC4zMDU3Myw0Ljk1OTY1MSkiIGlkPSJwYXRoMjkwNiIgc3R5bGU9ImZpbGw6dXJsKCNsaW5lYXJHcmFkaWVudDMwOTY0KTtmaWxsLW9wYWNpdHk6MTtmaWxsLXJ1bGU6ZXZlbm9kZDtzdHJva2U6bm9uZTtzdHJva2Utd2lkdGg6MC41O21hcmtlcjpub25lO3Zpc2liaWxpdHk6dmlzaWJsZTtkaXNwbGF5OmlubGluZTtvdmVyZmxvdzp2aXNpYmxlIi8+JiN4YTsgICAgICAgIDxwYXRoIGQ9Im0gMzUuNjIwNTA0LDMuOTM4NDA4NiBjIDMuOTllLTQsMC40NjQwMjkyIC0wLjM3NTY2LDAuODQwNDEwOCAtMC44Mzk2ODksMC44NDA0MTA4IC0wLjQ2NDAyOSwwIC0wLjg0MDA4OCwtMC4zNzYzODE2IC0wLjgzOTY4OSwtMC44NDA0MTA4IC0zLjk5ZS00LC0wLjQ2NDAyOTIgMC4zNzU2NiwtMC44NDA0MTA4IDAuODM5Njg5LC0wLjg0MDQxMDggMC40NjQwMjksMCAwLjg0MDA4OCwwLjM3NjM4MTYgMC44Mzk2ODksMC44NDA0MTA4IHoiIHRyYW5zZm9ybT0ibWF0cml4KDEuMzMxMjM3LDAsMCwwLjY1ODQ0OSwtMTAuMTkyMTMsNi45NTk2NTEpIiBpZD0icGF0aDI5MDgiIHN0eWxlPSJmaWxsOnVybCgjbGluZWFyR3JhZGllbnQzMDk2Nik7ZmlsbC1vcGFjaXR5OjE7ZmlsbC1ydWxlOmV2ZW5vZGQ7c3Ryb2tlOm5vbmU7c3Ryb2tlLXdpZHRoOjAuNTttYXJrZXI6bm9uZTt2aXNpYmlsaXR5OnZpc2libGU7ZGlzcGxheTppbmxpbmU7b3ZlcmZsb3c6dmlzaWJsZSIvPiYjeGE7ICAgICAgICA8cGF0aCBkPSJtIDM1LjYyMDUwNCwzLjkzODQwODYgYyAzLjk5ZS00LDAuNDY0MDI5MiAtMC4zNzU2NiwwLjg0MDQxMDggLTAuODM5Njg5LDAuODQwNDEwOCAtMC40NjQwMjksMCAtMC44NDAwODgsLTAuMzc2MzgxNiAtMC44Mzk2ODksLTAuODQwNDEwOCAtMy45OWUtNCwtMC40NjQwMjkyIDAuMzc1NjYsLTAuODQwNDEwOCAwLjgzOTY4OSwtMC44NDA0MTA4IDAuNDY0MDI5LDAgMC44NDAwODgsMC4zNzYzODE2IDAuODM5Njg5LDAuODQwNDEwOCB6IiB0cmFuc2Zvcm09Im1hdHJpeCgxLjMzMTIzNywwLDAsMC42NTg0NDksLTEwLjA3ODUzLDguOTU5NjUxKSIgaWQ9InBhdGgyOTEwIiBzdHlsZT0iZmlsbDp1cmwoI2xpbmVhckdyYWRpZW50MzA5NjgpO2ZpbGwtb3BhY2l0eToxO2ZpbGwtcnVsZTpldmVub2RkO3N0cm9rZTpub25lO3N0cm9rZS13aWR0aDowLjU7bWFya2VyOm5vbmU7dmlzaWJpbGl0eTp2aXNpYmxlO2Rpc3BsYXk6aW5saW5lO292ZXJmbG93OnZpc2libGUiLz4mI3hhOyAgICAgICAgPHBhdGggZD0ibSAzNS42MjA1MDQsMy45Mzg0MDg2IGMgMy45OWUtNCwwLjQ2NDAyOTIgLTAuMzc1NjYsMC44NDA0MTA4IC0wLjgzOTY4OSwwLjg0MDQxMDggLTAuNDY0MDI5LDAgLTAuODQwMDg4LC0wLjM3NjM4MTYgLTAuODM5Njg5LC0wLjg0MDQxMDggLTMuOTllLTQsLTAuNDY0MDI5MiAwLjM3NTY2LC0wLjg0MDQxMDggMC44Mzk2ODksLTAuODQwNDEwOCAwLjQ2NDAyOSwwIDAuODQwMDg4LDAuMzc2MzgxNiAwLjgzOTY4OSwwLjg0MDQxMDggeiIgdHJhbnNmb3JtPSJtYXRyaXgoMS4zMzEyMzcsMCwwLDAuNjU4NDQ5LC05Ljk2NDkzLDEwLjk1OTY1KSIgaWQ9InBhdGgyOTEyIiBzdHlsZT0iZmlsbDp1cmwoI2xpbmVhckdyYWRpZW50MzA5NzApO2ZpbGwtb3BhY2l0eToxO2ZpbGwtcnVsZTpldmVub2RkO3N0cm9rZTpub25lO3N0cm9rZS13aWR0aDowLjU7bWFya2VyOm5vbmU7dmlzaWJpbGl0eTp2aXNpYmxlO2Rpc3BsYXk6aW5saW5lO292ZXJmbG93OnZpc2libGUiLz4mI3hhOyAgICAgICAgPHBhdGggZD0ibSAyMCwyNy4zMTc2NjYgMC4yODE3MTYsMCBjIDAuMDgzNzYsMWUtNiAwLjE0Nzk4NSwwLjAxODY2IDAuMTkyNjYsMC4wNTU5OSAwLjA0NDk3LDAuMDM3MDMgMC4wNjc0NSwwLjA4OTk0IDAuMDY3NDUsMC4xNTg3MTQgLTFlLTYsMC4wNjkwNyAtMC4wMjI0OCwwLjEyMjI2OCAtMC4wNjc0NSwwLjE1OTU5NSAtMC4wNDQ2NywwLjAzNzAzIC0wLjEwODg5NSwwLjA1NTU1IC0wLjE5MjY2LDAuMDU1NTUgbCAtMC4xMTE5ODEsMCAwLDAuMjI4MzcgLTAuMTY5NzM1LDAgMCwtMC42NTgyMTkgbSAwLjE2OTczNSwwLjEyMzAwMyAwLDAuMTgzODQzIDAuMDkzOSwwIGMgMC4wMzI5MiwwIDAuMDU4MzQsLTAuMDA3OSAwLjA3NjI3LC0wLjAyMzgxIDAuMDE3OTMsLTAuMDE2MTcgMC4wMjY4OSwtMC4wMzg5NCAwLjAyNjg5LC0wLjA2ODM0IDAsLTAuMDI5MzkgLTAuMDA5LC0wLjA1MjAyIC0wLjAyNjg5LC0wLjA2Nzg5IC0wLjAxNzkzLC0wLjAxNTg3IC0wLjA0MzM1LC0wLjAyMzgxIC0wLjA3NjI3LC0wLjAyMzgxIGwgLTAuMDkzOSwwIG0gMC43OTIyNDQsLTAuMDExOSBjIC0wLjA1MTczLDFlLTYgLTAuMDkxODUsMC4wMTkxMSAtMC4xMjAzNTgsMC4wNTczMSAtMC4wMjg1MSwwLjAzODIxIC0wLjA0Mjc2LDAuMDkyIC0wLjA0Mjc2LDAuMTYxMzU5IDAsMC4wNjkwNyAwLjAxNDI1LDAuMTIyNzA5IDAuMDQyNzYsMC4xNjA5MTggMC4wMjg1MSwwLjAzODIxIDAuMDY4NjMsMC4wNTczMSAwLjEyMDM1OCwwLjA1NzMxIDAuMDUyMDIsMCAwLjA5MjI5LC0wLjAxOTEgMC4xMjA3OTksLTAuMDU3MzEgMC4wMjg1MSwtMC4wMzgyMSAwLjA0Mjc2LC0wLjA5MTg1IDAuMDQyNzYsLTAuMTYwOTE4IC0xZS02LC0wLjA2OTM2IC0wLjAxNDI1LC0wLjEyMzE0OSAtMC4wNDI3NiwtMC4xNjEzNTkgLTAuMDI4NTEsLTAuMDM4MjEgLTAuMDY4NzgsLTAuMDU3MzEgLTAuMTIwNzk5LC0wLjA1NzMxIG0gMCwtMC4xMjMwMDMgYyAwLjEwNTgwOCwxMGUtNyAwLjE4ODY5MiwwLjAzMDI3IDAuMjQ4NjUxLDAuMDkwODIgMC4wNTk5NiwwLjA2MDU1IDAuMDg5OTQsMC4xNDQxNjUgMC4wODk5NCwwLjI1MDg1NSAtMTBlLTcsMC4xMDYzOTcgLTAuMDI5OTgsMC4xODk4NjggLTAuMDg5OTQsMC4yNTA0MTQgLTAuMDU5OTYsMC4wNjA1NSAtMC4xNDI4NDMsMC4wOTA4MiAtMC4yNDg2NTEsMC4wOTA4MiAtMC4xMDU1MTUsMCAtMC4xODgzOTksLTAuMDMwMjcgLTAuMjQ4NjUxLC0wLjA5MDgyIC0wLjA1OTk2LC0wLjA2MDU1IC0wLjA4OTk0LC0wLjE0NDAxNyAtMC4wODk5NCwtMC4yNTA0MTQgMCwtMC4xMDY2OSAwLjAyOTk4LC0wLjE5MDMwOSAwLjA4OTk0LC0wLjI1MDg1NSAwLjA2MDI1LC0wLjA2MDU1IDAuMTQzMTM2LC0wLjA5MDgyIDAuMjQ4NjUxLC0wLjA5MDgyIG0gMC40NjY0NDEsMC4wMTE5IDAuMTg5NTc0LDAgMC4yMzkzOTMsMC40NTE0NTEgMCwtMC40NTE0NTEgMC4xNjA5MTgsMCAwLDAuNjU4MjE5IC0wLjE4OTU3NSwwIC0wLjIzOTM5MiwtMC40NTE0NTEgMCwwLjQ1MTQ1MSAtMC4xNjA5MTgsMCAwLC0wLjY1ODIxOSBtIDAuNjYzMDY5LDAgMC4xODU2MDYsMCAwLjE0OTg5NiwwLjIzNDU0MyAwLjE0OTg5NiwtMC4yMzQ1NDMgMC4xODYwNDgsMCAtMC4yNTA4NTYsMC4zODA5MTIgMCwwLjI3NzMwNyAtMC4xNjk3MzUsMCAwLC0wLjI3NzMwNyAtMC4yNTA4NTUsLTAuMzgwOTEyIiBpZD0icGF0aDI5MTQiIHN0eWxlPSJmb250LXNpemU6MC45MDI5MDI2cHg7Zm9udC1zdHlsZTpub3JtYWw7Zm9udC12YXJpYW50Om5vcm1hbDtmb250LXdlaWdodDpib2xkO2ZvbnQtc3RyZXRjaDpub3JtYWw7d3JpdGluZy1tb2RlOmxyLXRiO3RleHQtYW5jaG9yOnN0YXJ0O2ZpbGw6IzRhNGE0YTtmaWxsLW9wYWNpdHk6MTtzdHJva2U6bm9uZTtmb250LWZhbWlseTpCaXRzdHJlYW0gVmVyYSBTYW5zIi8+JiN4YTsgICAgICA8L2c+JiN4YTsgICAgPC9nPiYjeGE7ICA8L2c+JiN4YTs8L3N2Zz4=;" vertex="1" parent="1">
          <mxGeometry x="82" y="158" width="64" height="64" as="geometry" />
        </mxCell>
        <mxCell id="qKras6gi_AzTFav5Ec5C-147" value="Брокер X2Go - сессий" style="text;html=1;whiteSpace=wrap;strokeColor=none;fillColor=none;align=center;verticalAlign=middle;rounded=0;fontSize=14;" parent="1" vertex="1">
          <mxGeometry x="341.25" y="666.0000000000001" width="52.5" height="34.92" as="geometry" />
        </mxCell>
        <mxCell id="QUkc8n2lJ9mTT0OE4B8_-72" value="" style="sketch=0;points=[[0.015,0.015,0],[0.985,0.015,0],[0.985,0.985,0],[0.015,0.985,0],[0.25,0,0],[0.5,0,0],[0.75,0,0],[1,0.25,0],[1,0.5,0],[1,0.75,0],[0.75,1,0],[0.5,1,0],[0.25,1,0],[0,0.75,0],[0,0.5,0],[0,0.25,0]];verticalLabelPosition=bottom;html=1;verticalAlign=top;aspect=fixed;align=center;pointerEvents=1;shape=mxgraph.cisco19.server;fillColor=#005073;strokeColor=none;fontSize=10;container=0;" vertex="1" parent="1">
          <mxGeometry x="230" y="516" width="44.55" height="81" as="geometry" />
        </mxCell>
        <mxCell id="qKras6gi_AzTFav5Ec5C-120" value="" style="shape=image;verticalLabelPosition=bottom;verticalAlign=top;imageAspect=0;aspect=fixed;image=data:image/svg+xml,PHN2ZyB4bWxuczpzdmc9Imh0dHA6Ly93d3cudzMub3JnLzIwMDAvc3ZnIiB4bWxucz0iaHR0cDovL3d3dy53My5vcmcvMjAwMC9zdmciIHhtbG5zOnhsaW5rPSJodHRwOi8vd3d3LnczLm9yZy8xOTk5L3hsaW5rIiB2ZXJzaW9uPSIxLjAiIHdpZHRoPSIxMjgiIGhlaWdodD0iMTI4IiBpZD0ic3ZnMjEwOCIgdmlld0JveD0iMCAwIDEyOCAxMjgiPiYjeGE7ICA8ZGVmcyBpZD0iZGVmczMiPiYjeGE7ICAgIDxsaW5lYXJHcmFkaWVudCBpZD0ibGluZWFyR3JhZGllbnQ0MzU2Ij4mI3hhOyAgICAgIDxzdG9wIGlkPSJzdG9wNDM1OCIgc3R5bGU9InN0b3AtY29sb3I6IzAwMDAwMDtzdG9wLW9wYWNpdHk6MSIgb2Zmc2V0PSIwIi8+JiN4YTsgICAgICA8c3RvcCBpZD0ic3RvcDQzNjAiIHN0eWxlPSJzdG9wLWNvbG9yOiMwMDAwMDA7c3RvcC1vcGFjaXR5OjAiIG9mZnNldD0iMSIvPiYjeGE7ICAgIDwvbGluZWFyR3JhZGllbnQ+JiN4YTsgICAgPGxpbmVhckdyYWRpZW50IGlkPSJsaW5lYXJHcmFkaWVudDQxNjMiPiYjeGE7ICAgICAgPHN0b3AgaWQ9InN0b3A0MTY1IiBzdHlsZT0ic3RvcC1jb2xvcjojM2I3NGJjO3N0b3Atb3BhY2l0eToxIiBvZmZzZXQ9IjAiLz4mI3hhOyAgICAgIDxzdG9wIGlkPSJzdG9wNDE2NyIgc3R5bGU9InN0b3AtY29sb3I6IzJkNTk5MDtzdG9wLW9wYWNpdHk6MSIgb2Zmc2V0PSIxIi8+JiN4YTsgICAgPC9saW5lYXJHcmFkaWVudD4mI3hhOyAgICA8bGluZWFyR3JhZGllbnQgaWQ9ImxpbmVhckdyYWRpZW50MzgyNCI+JiN4YTsgICAgICA8c3RvcCBpZD0ic3RvcDM4MjYiIHN0eWxlPSJzdG9wLWNvbG9yOiNmZmZmZmY7c3RvcC1vcGFjaXR5OjEiIG9mZnNldD0iMCIvPiYjeGE7ICAgICAgPHN0b3AgaWQ9InN0b3AzODI4IiBzdHlsZT0ic3RvcC1jb2xvcjojYzljOWM5O3N0b3Atb3BhY2l0eToxIiBvZmZzZXQ9IjEiLz4mI3hhOyAgICA8L2xpbmVhckdyYWRpZW50PiYjeGE7ICAgIDxsaW5lYXJHcmFkaWVudCBpZD0ibGluZWFyR3JhZGllbnQzODE2Ij4mI3hhOyAgICAgIDxzdG9wIGlkPSJzdG9wMzgxOCIgc3R5bGU9InN0b3AtY29sb3I6IzAwMDAwMDtzdG9wLW9wYWNpdHk6MSIgb2Zmc2V0PSIwIi8+JiN4YTsgICAgICA8c3RvcCBpZD0ic3RvcDM4MjAiIHN0eWxlPSJzdG9wLWNvbG9yOiMwMDAwMDA7c3RvcC1vcGFjaXR5OjAiIG9mZnNldD0iMSIvPiYjeGE7ICAgIDwvbGluZWFyR3JhZGllbnQ+JiN4YTsgICAgPGxpbmVhckdyYWRpZW50IGlkPSJsaW5lYXJHcmFkaWVudDM4MDAiPiYjeGE7ICAgICAgPHN0b3AgaWQ9InN0b3AzODAyIiBzdHlsZT0ic3RvcC1jb2xvcjojZjRkOWIxO3N0b3Atb3BhY2l0eToxIiBvZmZzZXQ9IjAiLz4mI3hhOyAgICAgIDxzdG9wIGlkPSJzdG9wMzgwNCIgc3R5bGU9InN0b3AtY29sb3I6I2RmOTcyNTtzdG9wLW9wYWNpdHk6MSIgb2Zmc2V0PSIxIi8+JiN4YTsgICAgPC9saW5lYXJHcmFkaWVudD4mI3hhOyAgICA8cmFkaWFsR3JhZGllbnQgY3g9IjMxLjExMjY5OCIgY3k9IjE5LjAwODYyMSIgcj0iOC42NjIwNTc5IiBmeD0iMzEuMTEyNjk4IiBmeT0iMTkuMDA4NjIxIiBpZD0icmFkaWFsR3JhZGllbnQyNDY4IiB4bGluazpocmVmPSIjbGluZWFyR3JhZGllbnQzODE2IiBncmFkaWVudFVuaXRzPSJ1c2VyU3BhY2VPblVzZSIgZ3JhZGllbnRUcmFuc2Zvcm09Im1hdHJpeCg1LjE0Nzk4MjcsMCwwLDEuNjkzMjI1OSwtOTYuMDM3MjU1LDcwLjU4NTA4MykiLz4mI3hhOyAgICA8bGluZWFyR3JhZGllbnQgeDE9IjIyLjY4Njc2NiIgeTE9IjM2LjM5MDQiIHgyPSIyMS40MDg0NTUiIHkyPSIzNS43Mzk2MzIiIGlkPSJsaW5lYXJHcmFkaWVudDI0ODciIHhsaW5rOmhyZWY9IiNsaW5lYXJHcmFkaWVudDQzNTYiIGdyYWRpZW50VW5pdHM9InVzZXJTcGFjZU9uVXNlIiBncmFkaWVudFRyYW5zZm9ybT0ibWF0cml4KC0yLjgzNDczNzksMC42MDkwOTk2LDAuNjA5MDk5NiwyLjgzNDczNzksMTM0LjA3MDM5LC0yOS44NDU3NjUpIi8+JiN4YTsgICAgPGxpbmVhckdyYWRpZW50IHgxPSIyMC42NjE2OTUiIHkxPSIzNS44MTc5NzQiIHgyPSIyMi42MjY5MjUiIHkyPSIzNi4yMTc3NTgiIGlkPSJsaW5lYXJHcmFkaWVudDI0OTAiIHhsaW5rOmhyZWY9IiNsaW5lYXJHcmFkaWVudDQzNTYiIGdyYWRpZW50VW5pdHM9InVzZXJTcGFjZU9uVXNlIiBncmFkaWVudFRyYW5zZm9ybT0ibWF0cml4KDIuODUxMjM1NywwLjUyNjUwMzMsLTAuNTI2NTAzMywyLjg1MTIzNTcsLTcuNjQ4MDUsLTI2LjA5NDYzNykiLz4mI3hhOyAgICA8cmFkaWFsR3JhZGllbnQgY3g9IjI5LjM0NDkzMSIgY3k9IjE3LjA2NDA3NyIgcj0iOS4xNjIwNTc5IiBmeD0iMjkuMzQ0OTMxIiBmeT0iMTcuMDY0MDc3IiBpZD0icmFkaWFsR3JhZGllbnQyNDk0IiB4bGluazpocmVmPSIjbGluZWFyR3JhZGllbnQzODAwIiBncmFkaWVudFVuaXRzPSJ1c2VyU3BhY2VPblVzZSIgZ3JhZGllbnRUcmFuc2Zvcm09Im1hdHJpeCgyLjI4NDc1MjEsMCwwLDIuMjg0NzUyMSwtNy42Nzg1NDI1LC03LjkxNzc4NDYpIi8+JiN4YTsgICAgPHJhZGlhbEdyYWRpZW50IGN4PSIzMS4xMTI2OTgiIGN5PSIxOS4wMDg2MjEiIHI9IjguNjYyMDU3OSIgZng9IjMxLjExMjY5OCIgZnk9IjE5LjAwODYyMSIgaWQ9InJhZGlhbEdyYWRpZW50MjQ5NyIgeGxpbms6aHJlZj0iI2xpbmVhckdyYWRpZW50MzgxNiIgZ3JhZGllbnRVbml0cz0idXNlclNwYWNlT25Vc2UiIGdyYWRpZW50VHJhbnNmb3JtPSJtYXRyaXgoMi44OTk0Mzg5LDAsMCwyLjg5OTQzODksLTI2LjA3ODk1NiwtOC4yNTg4MzcpIi8+JiN4YTsgICAgPGxpbmVhckdyYWRpZW50IHgxPSIzMC45MzU5MjEiIHkxPSIyOS41NTM0ODYiIHgyPSIzMC45MzU5MjEiIHkyPSIzNS44MDM0ODYiIGlkPSJsaW5lYXJHcmFkaWVudDI1MDMiIHhsaW5rOmhyZWY9IiNsaW5lYXJHcmFkaWVudDM4MjQiIGdyYWRpZW50VW5pdHM9InVzZXJTcGFjZU9uVXNlIiBncmFkaWVudFRyYW5zZm9ybT0ibWF0cml4KDIuODk5NDM4OSwwLDAsMi44OTk0Mzg5LC0yNS43MTY1MjYsLTE4LjQwNjg3MykiLz4mI3hhOyAgICA8cmFkaWFsR3JhZGllbnQgY3g9IjI4LjA4OTc0MSIgY3k9IjI3LjIwMzA4MyIgcj0iMTMuNTY1MzYiIGZ4PSIyOC4wODk3NDEiIGZ5PSIyNy4yMDMwODMiIGlkPSJyYWRpYWxHcmFkaWVudDI1MDYiIHhsaW5rOmhyZWY9IiNsaW5lYXJHcmFkaWVudDQxNjMiIGdyYWRpZW50VW5pdHM9InVzZXJTcGFjZU9uVXNlIiBncmFkaWVudFRyYW5zZm9ybT0ibWF0cml4KDMuNzYyMjA3NSwwLDAsMi41NjU1MTM0LC00OS45NTE1LC00LjA4MjI4NTEpIi8+JiN4YTsgICAgPGxpbmVhckdyYWRpZW50IHgxPSIyMi42ODY3NjYiIHkxPSIzNi4zOTA0IiB4Mj0iMjEuNDA4NDU1IiB5Mj0iMzUuNzM5NjMyIiBpZD0ibGluZWFyR3JhZGllbnQyNTA5IiB4bGluazpocmVmPSIjbGluZWFyR3JhZGllbnQ0MzU2IiBncmFkaWVudFVuaXRzPSJ1c2VyU3BhY2VPblVzZSIgZ3JhZGllbnRUcmFuc2Zvcm09Im1hdHJpeCgtMi44MzQ3Mzc5LDAuNjA5MDk5NiwwLjYwOTA5OTYsMi44MzQ3Mzc5LDk1LjQ5NjcyLC01MC42NDQ3NDgpIi8+JiN4YTsgICAgPGxpbmVhckdyYWRpZW50IHgxPSIzMC45MzU5MjEiIHkxPSIyOS41NTM0ODYiIHgyPSIzMC45MzU5MjEiIHkyPSIzNS44MDM0ODYiIGlkPSJsaW5lYXJHcmFkaWVudDI1MTIiIHhsaW5rOmhyZWY9IiNsaW5lYXJHcmFkaWVudDM4MjQiIGdyYWRpZW50VW5pdHM9InVzZXJTcGFjZU9uVXNlIiBncmFkaWVudFRyYW5zZm9ybT0ibWF0cml4KDIuODk5NDM4OSwwLDAsMi44OTk0Mzg5LC02MS43MjE0MzksLTM4LjcwMjk0NSkiLz4mI3hhOyAgPC9kZWZzPiYjeGE7ICA8ZyBpZD0iZzI1MTQiPiYjeGE7ICAgIDxnIGlkPSJsYXllcjEiIHN0eWxlPSJkaXNwbGF5OmlubGluZSIvPiYjeGE7ICAgIDxwYXRoIGQ9Im0gMTA4LjcyMjUsMTAyLjc3MDk3IGMgMC4wMDcsOC4xMDIgLTE5Ljk1OTI4NCwxNC42NzEyOCAtNDQuNTkyMTI5LDE0LjY3MTI4IC0yNC42MzI4NCwwIC00NC41OTk2MDUsLTYuNTY5MjggLTQ0LjU5MjEyLC0xNC42NzEyOCAtMC4wMDc1LC04LjEwMTk5OSAxOS45NTkyOCwtMTQuNjcxMjc1IDQ0LjU5MjEyLC0xNC42NzEyNzUgMjQuNjMyODQ1LDAgNDQuNTk5NjA5LDYuNTY5Mjc2IDQ0LjU5MjEyOSwxNC42NzEyNzUgbCAwLDAgeiIgaWQ9InBhdGg0MzA2IiBzdHlsZT0iZmlsbDp1cmwoI3JhZGlhbEdyYWRpZW50MjQ2OCk7ZmlsbC1vcGFjaXR5OjE7ZmlsbC1ydWxlOmV2ZW5vZGQ7c3Ryb2tlOm5vbmU7c3Ryb2tlLXdpZHRoOjFweDttYXJrZXI6bm9uZTt2aXNpYmlsaXR5OnZpc2libGU7ZGlzcGxheTppbmxpbmU7b3ZlcmZsb3c6dmlzaWJsZSIvPiYjeGE7ICAgIDxwYXRoIGQ9Im0gMzkuNzY0MDksNTkuOTc4NDE2IDEyLjMwMTI4LDAgLTcuMTc1NzQsLTYuNjYzMTkyIC0xLjUzNzY2LDIuMDUwMjE0IC0xLjUzNzY3LC0xLjUzNzY2IC0yLjA1MDIxLDYuMTUwNjM4IHoiIGlkPSJwYXRoNDE3MyIgc3R5bGU9ImZpbGw6dXJsKCNsaW5lYXJHcmFkaWVudDI1MTIpO2ZpbGwtb3BhY2l0eToxO2ZpbGwtcnVsZTpldmVub2RkO3N0cm9rZTpub25lO3N0cm9rZS13aWR0aDoxcHg7bWFya2VyOm5vbmU7dmlzaWJpbGl0eTp2aXNpYmxlO2Rpc3BsYXk6aW5saW5lO292ZXJmbG93OnZpc2libGUiLz4mI3hhOyAgICA8cGF0aCBkPSJtIDUzLjg4MzY5LDc2LjUzMDYwMiBjIDMuNTY5OTMsLTEuNjg0NTEgNS4yMzE2OSwtNS44MDU2MDcgNS4yMzE2OSwtNS44MDU2MDcgQyA1Ni4zMzQ0Nyw1OS4wMDI2MTMgNDcuNTg2NzcsNTAuODg0NjU0IDQ3LjU4Njc3LDUwLjg4NDY1NCBjIDAsMCA3LjE0NTk0LDE4LjM4OTk4NiA2LjI5NjkyLDI1LjY0NTk0OCB6IiBpZD0icGF0aDQzNzAiIHN0eWxlPSJvcGFjaXR5OjAuMjI3ODQ4MDc7ZmlsbDp1cmwoI2xpbmVhckdyYWRpZW50MjUwOSk7ZmlsbC1vcGFjaXR5OjE7ZmlsbC1ydWxlOmV2ZW5vZGQ7c3Ryb2tlOm5vbmU7c3Ryb2tlLXdpZHRoOjFweDttYXJrZXI6bm9uZTt2aXNpYmlsaXR5OnZpc2libGU7ZGlzcGxheTppbmxpbmU7b3ZlcmZsb3c6dmlzaWJsZSIvPiYjeGE7ICAgIDxwYXRoIGQ9Im0gNDkuNjI4OCwxMDIuMzE0MjggMzAuNzUzMTksMCBjIDguNzEzNDEsMCAxNy4zNDAwNSwtMy4xOTQ5OSAyMC41MDIxMywtMTIuMzAxMjggMy4wMDI3NywtOC42NDc1MDggMC41MTI1NSwtMjUuMTE1MTA5IC0xOC45NjQ0NywtMzguNDQxNDkzIGwgLTM2LjM5MTI4LDAgQyAyNi4wNTEzNSw2My44NzI3ODMgMjMuNjE3MzQsODAuNjk1ODgxIDI4LjEwMTU2LDkwLjUyNTU1IDMyLjY2OTksMTAwLjUzOTYgNDAuNDAyODQsMTAyLjMxNDI4IDQ5LjYyODgsMTAyLjMxNDI4IHoiIGlkPSJwYXRoNDMwOCIgc3R5bGU9ImZpbGw6dXJsKCNyYWRpYWxHcmFkaWVudDI1MDYpO2ZpbGwtb3BhY2l0eToxO2ZpbGwtcnVsZTpldmVub2RkO3N0cm9rZTojMjA0YTg3O3N0cm9rZS13aWR0aDoyLjg5OTQzODg2cHg7c3Ryb2tlLWxpbmVjYXA6cm91bmQ7c3Ryb2tlLWxpbmVqb2luOnJvdW5kO3N0cm9rZS1taXRlcmxpbWl0OjQ7c3Ryb2tlLW9wYWNpdHk6MTtzdHJva2UtZGFzaGFycmF5Om5vbmU7c3Ryb2tlLWRhc2hvZmZzZXQ6MDttYXJrZXI6bm9uZTt2aXNpYmlsaXR5OnZpc2libGU7ZGlzcGxheTppbmxpbmU7b3ZlcmZsb3c6dmlzaWJsZSIvPiYjeGE7ICAgIDxwYXRoIGQ9Im0gNTEuNjc5MDEsNTYuMTg0NDg2IGMgOS4yMjU5Niw4LjIwMDg1MSAxMy4zMjYzOCwzNy45Mjg5NDQgMTMuMzI2MzgsMzcuOTI4OTQ0IDAsMCA0LjEwMDQzLC0yOS43MjgwOSAxMS4yNzYxNywtMzguNDQxNDk2IGwgLTI0LjYwMjU1LDAuNTEyNTUyIHoiIGlkPSJwYXRoNDMxMCIgc3R5bGU9ImZpbGw6dXJsKCNsaW5lYXJHcmFkaWVudDI1MDMpO2ZpbGwtb3BhY2l0eToxO2ZpbGwtcnVsZTpldmVub2RkO3N0cm9rZTpub25lO3N0cm9rZS13aWR0aDoxcHg7bWFya2VyOm5vbmU7dmlzaWJpbGl0eTp2aXNpYmxlO2Rpc3BsYXk6aW5saW5lO292ZXJmbG93OnZpc2libGUiLz4mI3hhOyAgICA8cGF0aCBkPSJtIDU4LjI4ODExLDU5LjI1OTgwNyBjIDAsMCAtNi4yMzc2Myw0LjgxNDA0IC01LjcwMDI3LDEwLjYxMzQ5MiAtNS45MTg0MSwtNS4yMjEyOTIgLTYuMDg4NDYsLTE1LjIyNjQ3MyAtNi4wODg0NiwtMTUuMjI2NDczIGwgMTEuNzg4NzMsNC42MTI5ODEgeiIgaWQ9InBhdGg0MzEyIiBzdHlsZT0iZmlsbDojNzI5ZmNmO2ZpbGwtb3BhY2l0eToxO2ZpbGwtcnVsZTpldmVub2RkO3N0cm9rZTpub25lO3N0cm9rZS13aWR0aDoxcHg7bWFya2VyOm5vbmU7dmlzaWJpbGl0eTp2aXNpYmxlO2Rpc3BsYXk6aW5saW5lO292ZXJmbG93OnZpc2libGUiLz4mI3hhOyAgICA8cGF0aCBkPSJtIDQ5LjQyMjAzLDk5LjI5Mjc1IDMwLjQyNTExLC0wLjA2NDA2IGMgNy42NTM3MiwwIDE1LjIzMTIyLC0yLjgwNjQzIDE4LjAwODc0LC0xMC44MDUyNSAyLjYzNzU5LC03LjU5NTgzMiAtMC4yNzQ2NCwtMjIuMDYwNzA5IC0xNy4zODI5NCwtMzMuNzY2MzkgTCA0Ny4wNTc3LDUzLjk1MjI4OSBDIDI5Ljk0OTQsNjQuNzU3NTMyIDI2LjYzODA1LDc5LjUzNDY3MyAzMC42NDA5OSw4OC44NzM2NiBjIDQuMDAyOTQsOS4zMzg5OCA5Ljg0NDIxLDEwLjM1NTAzIDE4Ljc4MTA0LDEwLjQxOTA5IHoiIGlkPSJwYXRoNDMxNCIgc3R5bGU9Im9wYWNpdHk6MC4yMTUxODk4NjtmaWxsOm5vbmU7c3Ryb2tlOiNmZmZmZmY7c3Ryb2tlLXdpZHRoOjIuODk5NDM4MTRweDtzdHJva2UtbGluZWNhcDpyb3VuZDtzdHJva2UtbGluZWpvaW46cm91bmQ7c3Ryb2tlLW1pdGVybGltaXQ6NDtzdHJva2Utb3BhY2l0eToxO3N0cm9rZS1kYXNoYXJyYXk6bm9uZTtzdHJva2UtZGFzaG9mZnNldDowO21hcmtlcjpub25lO3Zpc2liaWxpdHk6dmlzaWJsZTtkaXNwbGF5OmlubGluZTtvdmVyZmxvdzp2aXNpYmxlIi8+JiN4YTsgICAgPHBhdGggZD0ibSA3MS4xNTYwMyw1OS4yNTk4MDcgYyAwLDAgNi4yMzc2Myw0LjgxNDA0IDUuNzAwMjcsMTAuNjEzNDkyIDUuOTE4NDEsLTUuMjIxMjkyIDYuMDg4NDYsLTE1LjIyNjQ3MyA2LjA4ODQ2LC0xNS4yMjY0NzMgbCAtMTEuNzg4NzMsNC42MTI5ODEgeiIgaWQ9InBhdGg0MzE2IiBzdHlsZT0iZmlsbDojNzI5ZmNmO2ZpbGwtb3BhY2l0eToxO2ZpbGwtcnVsZTpldmVub2RkO3N0cm9rZTpub25lO3N0cm9rZS13aWR0aDoxcHg7bWFya2VyOm5vbmU7dmlzaWJpbGl0eTp2aXNpYmxlO2Rpc3BsYXk6aW5saW5lO292ZXJmbG93OnZpc2libGUiLz4mI3hhOyAgICA8cGF0aCBkPSJtIDg5LjI0NTUxNiw0Ni44NTU0OTggYyAwLjAwNDIsMTMuODczNjcgLTExLjI0MTQzNSwyNS4xMjI3MzkgLTI1LjExNTEwOCwyNS4xMjI3MzkgLTEzLjg3MzY3LDAgLTI1LjExOTMyMSwtMTEuMjQ5MDY5IC0yNS4xMTUxMDUsLTI1LjEyMjczOSAtMC4wMDQyLC0xMy44NzM2NyAxMS4yNDE0MzUsLTI1LjEyMjczOSAyNS4xMTUxMDUsLTI1LjEyMjczOSAxMy44NzM2NzMsMCAyNS4xMTkzMjQsMTEuMjQ5MDY5IDI1LjExNTEwOCwyNS4xMjI3MzkgbCAwLDAgeiIgaWQ9InBhdGg0MzE4IiBzdHlsZT0iZmlsbDp1cmwoI3JhZGlhbEdyYWRpZW50MjQ5Nyk7ZmlsbC1vcGFjaXR5OjE7ZmlsbC1ydWxlOmV2ZW5vZGQ7c3Ryb2tlOm5vbmU7c3Ryb2tlLXdpZHRoOjFweDttYXJrZXI6bm9uZTt2aXNpYmlsaXR5OnZpc2libGU7ZGlzcGxheTppbmxpbmU7b3ZlcmZsb3c6dmlzaWJsZSIvPiYjeGE7ICAgIDxwYXRoIGQ9Im0gODkuNjA3OTQ2LDM2LjcwNzQ2MiBjIDAuMDA0MiwxMy44NzM2NyAtMTEuMjQxNDM1LDI1LjEyMjczOSAtMjUuMTE1MTA4LDI1LjEyMjczOSAtMTMuODczNjcsMCAtMjUuMTE5MzIxLC0xMS4yNDkwNjkgLTI1LjExNTEwNSwtMjUuMTIyNzM5IC0wLjAwNDIsLTEzLjg3MzY3IDExLjI0MTQzNSwtMjUuMTIyNzM5IDI1LjExNTEwNSwtMjUuMTIyNzM5IDEzLjg3MzY3MywwIDI1LjExOTMyNCwxMS4yNDkwNjkgMjUuMTE1MTA4LDI1LjEyMjczOSBsIDAsMCB6IiBpZD0icGF0aDQzMjAiIHN0eWxlPSJmaWxsOnVybCgjcmFkaWFsR3JhZGllbnQyNDk0KTtmaWxsLW9wYWNpdHk6MTtmaWxsLXJ1bGU6ZXZlbm9kZDtzdHJva2U6I2MxN2QxMTtzdHJva2Utd2lkdGg6Mi44OTk0Mzg4NnB4O3N0cm9rZS1saW5lY2FwOnJvdW5kO3N0cm9rZS1saW5lam9pbjpyb3VuZDtzdHJva2UtbWl0ZXJsaW1pdDo0O3N0cm9rZS1vcGFjaXR5OjE7c3Ryb2tlLWRhc2hhcnJheTpub25lO3N0cm9rZS1kYXNob2Zmc2V0OjA7bWFya2VyOm5vbmU7dmlzaWJpbGl0eTp2aXNpYmxlO2Rpc3BsYXk6aW5saW5lO292ZXJmbG93OnZpc2libGUiLz4mI3hhOyAgICA8cGF0aCBkPSJtIDg2LjUyMTIzMiwzNi43MDc0OTcgYyAwLjAwMzcsMTIuMTY4NTI2IC05Ljg1OTgwNiwyMi4wMzUwMjggLTIyLjAyODMzNSwyMi4wMzUwMjggLTEyLjE2ODUyNiwwIC0yMi4wMzIwMywtOS44NjY1MDIgLTIyLjAyODMzMiwtMjIuMDM1MDI4IC0wLjAwMzcsLTEyLjE2ODUyNyA5Ljg1OTgwNiwtMjIuMDM1MDI5IDIyLjAyODMzMiwtMjIuMDM1MDI5IDEyLjE2ODUyOSwwIDIyLjAzMjAzMyw5Ljg2NjUwMiAyMi4wMjgzMzUsMjIuMDM1MDI5IGwgMCwwIHoiIGlkPSJwYXRoNDMyMiIgc3R5bGU9Im9wYWNpdHk6MC4xOTYyMDI1NDtmaWxsOm5vbmU7c3Ryb2tlOiNmZmZmZmY7c3Ryb2tlLXdpZHRoOjIuODk5NDQxMjRweDtzdHJva2UtbGluZWNhcDpyb3VuZDtzdHJva2UtbGluZWpvaW46cm91bmQ7c3Ryb2tlLW1pdGVybGltaXQ6NDtzdHJva2Utb3BhY2l0eToxO3N0cm9rZS1kYXNoYXJyYXk6bm9uZTtzdHJva2UtZGFzaG9mZnNldDowO21hcmtlcjpub25lO3Zpc2liaWxpdHk6dmlzaWJsZTtkaXNwbGF5OmlubGluZTtvdmVyZmxvdzp2aXNpYmxlIi8+JiN4YTsgICAgPHBhdGggZD0ibSAzNy42NDE0LDk5LjgxODMyIGMgLTMuNjE3MzYsLTEuNTgwMTEgLTUuMjM2MzcsLTUuMzg3OTYgLTUuMjM2MzcsLTUuMzg3OTYgMi40MzkyNSwtMTEuNzk4MjE0IDEwLjc4NTcsLTIwLjQzMDA3NSAxMC43ODU3LC0yMC40MzAwNzUgMCwwIC02LjYwODc1LDE4LjU4OTc5NSAtNS41NDkzMywyNS44MTgwMzUgeiIgaWQ9InBhdGg0MzU0IiBzdHlsZT0ib3BhY2l0eTowLjIyNzg0ODA3O2ZpbGw6dXJsKCNsaW5lYXJHcmFkaWVudDI0OTApO2ZpbGwtb3BhY2l0eToxO2ZpbGwtcnVsZTpldmVub2RkO3N0cm9rZTpub25lO3N0cm9rZS13aWR0aDoxcHg7bWFya2VyOm5vbmU7dmlzaWJpbGl0eTp2aXNpYmxlO2Rpc3BsYXk6aW5saW5lO292ZXJmbG93OnZpc2libGUiLz4mI3hhOyAgICA8cGF0aCBkPSJtIDkyLjQ1NzM1LDk3LjMyOTU4IGMgMy41Njk5MywtMS42ODQ1MSA1LjIzMTY4LC01LjgwNTYxIDUuMjMxNjgsLTUuODA1NjEgLTIuNzgwOSwtMTEuNzIyMzc4IC0xMS41Mjg2LC0xOS44NDAzMzcgLTExLjUyODYsLTE5Ljg0MDMzNyAwLDAgNy4xNDU5NCwxOC4zODk5ODcgNi4yOTY5MiwyNS42NDU5NDcgeiIgaWQ9InBhdGg0MzY0IiBzdHlsZT0ib3BhY2l0eTowLjIyNzg0ODA3O2ZpbGw6dXJsKCNsaW5lYXJHcmFkaWVudDI0ODcpO2ZpbGwtb3BhY2l0eToxO2ZpbGwtcnVsZTpldmVub2RkO3N0cm9rZTpub25lO3N0cm9rZS13aWR0aDoxcHg7bWFya2VyOm5vbmU7dmlzaWJpbGl0eTp2aXNpYmxlO2Rpc3BsYXk6aW5saW5lO292ZXJmbG93OnZpc2libGUiLz4mI3hhOyAgPC9nPiYjeGE7PC9zdmc+;" parent="1" vertex="1">
          <mxGeometry x="255" y="571" width="42" height="42" as="geometry" />
        </mxCell>
        <mxCell id="QUkc8n2lJ9mTT0OE4B8_-73" value="" style="sketch=0;points=[[0.015,0.015,0],[0.985,0.015,0],[0.985,0.985,0],[0.015,0.985,0],[0.25,0,0],[0.5,0,0],[0.75,0,0],[1,0.25,0],[1,0.5,0],[1,0.75,0],[0.75,1,0],[0.5,1,0],[0.25,1,0],[0,0.75,0],[0,0.5,0],[0,0.25,0]];verticalLabelPosition=bottom;html=1;verticalAlign=top;aspect=fixed;align=center;pointerEvents=1;shape=mxgraph.cisco19.server;fillColor=#005073;strokeColor=none;fontSize=10;container=0;" vertex="1" parent="1">
          <mxGeometry x="341.25" y="516" width="44.55" height="81" as="geometry" />
        </mxCell>
        <mxCell id="QUkc8n2lJ9mTT0OE4B8_-74" value="" style="shape=image;verticalLabelPosition=bottom;verticalAlign=top;imageAspect=0;aspect=fixed;image=data:image/svg+xml,PHN2ZyB4bWxuczpzdmc9Imh0dHA6Ly93d3cudzMub3JnLzIwMDAvc3ZnIiB4bWxucz0iaHR0cDovL3d3dy53My5vcmcvMjAwMC9zdmciIHhtbG5zOnhsaW5rPSJodHRwOi8vd3d3LnczLm9yZy8xOTk5L3hsaW5rIiB2ZXJzaW9uPSIxLjAiIHdpZHRoPSIxMjgiIGhlaWdodD0iMTI4IiBpZD0ic3ZnMjEwOCIgdmlld0JveD0iMCAwIDEyOCAxMjgiPiYjeGE7ICA8ZGVmcyBpZD0iZGVmczMiPiYjeGE7ICAgIDxsaW5lYXJHcmFkaWVudCBpZD0ibGluZWFyR3JhZGllbnQ0MzU2Ij4mI3hhOyAgICAgIDxzdG9wIGlkPSJzdG9wNDM1OCIgc3R5bGU9InN0b3AtY29sb3I6IzAwMDAwMDtzdG9wLW9wYWNpdHk6MSIgb2Zmc2V0PSIwIi8+JiN4YTsgICAgICA8c3RvcCBpZD0ic3RvcDQzNjAiIHN0eWxlPSJzdG9wLWNvbG9yOiMwMDAwMDA7c3RvcC1vcGFjaXR5OjAiIG9mZnNldD0iMSIvPiYjeGE7ICAgIDwvbGluZWFyR3JhZGllbnQ+JiN4YTsgICAgPGxpbmVhckdyYWRpZW50IGlkPSJsaW5lYXJHcmFkaWVudDQxNjMiPiYjeGE7ICAgICAgPHN0b3AgaWQ9InN0b3A0MTY1IiBzdHlsZT0ic3RvcC1jb2xvcjojM2I3NGJjO3N0b3Atb3BhY2l0eToxIiBvZmZzZXQ9IjAiLz4mI3hhOyAgICAgIDxzdG9wIGlkPSJzdG9wNDE2NyIgc3R5bGU9InN0b3AtY29sb3I6IzJkNTk5MDtzdG9wLW9wYWNpdHk6MSIgb2Zmc2V0PSIxIi8+JiN4YTsgICAgPC9saW5lYXJHcmFkaWVudD4mI3hhOyAgICA8bGluZWFyR3JhZGllbnQgaWQ9ImxpbmVhckdyYWRpZW50MzgyNCI+JiN4YTsgICAgICA8c3RvcCBpZD0ic3RvcDM4MjYiIHN0eWxlPSJzdG9wLWNvbG9yOiNmZmZmZmY7c3RvcC1vcGFjaXR5OjEiIG9mZnNldD0iMCIvPiYjeGE7ICAgICAgPHN0b3AgaWQ9InN0b3AzODI4IiBzdHlsZT0ic3RvcC1jb2xvcjojYzljOWM5O3N0b3Atb3BhY2l0eToxIiBvZmZzZXQ9IjEiLz4mI3hhOyAgICA8L2xpbmVhckdyYWRpZW50PiYjeGE7ICAgIDxsaW5lYXJHcmFkaWVudCBpZD0ibGluZWFyR3JhZGllbnQzODE2Ij4mI3hhOyAgICAgIDxzdG9wIGlkPSJzdG9wMzgxOCIgc3R5bGU9InN0b3AtY29sb3I6IzAwMDAwMDtzdG9wLW9wYWNpdHk6MSIgb2Zmc2V0PSIwIi8+JiN4YTsgICAgICA8c3RvcCBpZD0ic3RvcDM4MjAiIHN0eWxlPSJzdG9wLWNvbG9yOiMwMDAwMDA7c3RvcC1vcGFjaXR5OjAiIG9mZnNldD0iMSIvPiYjeGE7ICAgIDwvbGluZWFyR3JhZGllbnQ+JiN4YTsgICAgPGxpbmVhckdyYWRpZW50IGlkPSJsaW5lYXJHcmFkaWVudDM4MDAiPiYjeGE7ICAgICAgPHN0b3AgaWQ9InN0b3AzODAyIiBzdHlsZT0ic3RvcC1jb2xvcjojZjRkOWIxO3N0b3Atb3BhY2l0eToxIiBvZmZzZXQ9IjAiLz4mI3hhOyAgICAgIDxzdG9wIGlkPSJzdG9wMzgwNCIgc3R5bGU9InN0b3AtY29sb3I6I2RmOTcyNTtzdG9wLW9wYWNpdHk6MSIgb2Zmc2V0PSIxIi8+JiN4YTsgICAgPC9saW5lYXJHcmFkaWVudD4mI3hhOyAgICA8cmFkaWFsR3JhZGllbnQgY3g9IjMxLjExMjY5OCIgY3k9IjE5LjAwODYyMSIgcj0iOC42NjIwNTc5IiBmeD0iMzEuMTEyNjk4IiBmeT0iMTkuMDA4NjIxIiBpZD0icmFkaWFsR3JhZGllbnQyNDY4IiB4bGluazpocmVmPSIjbGluZWFyR3JhZGllbnQzODE2IiBncmFkaWVudFVuaXRzPSJ1c2VyU3BhY2VPblVzZSIgZ3JhZGllbnRUcmFuc2Zvcm09Im1hdHJpeCg1LjE0Nzk4MjcsMCwwLDEuNjkzMjI1OSwtOTYuMDM3MjU1LDcwLjU4NTA4MykiLz4mI3hhOyAgICA8bGluZWFyR3JhZGllbnQgeDE9IjIyLjY4Njc2NiIgeTE9IjM2LjM5MDQiIHgyPSIyMS40MDg0NTUiIHkyPSIzNS43Mzk2MzIiIGlkPSJsaW5lYXJHcmFkaWVudDI0ODciIHhsaW5rOmhyZWY9IiNsaW5lYXJHcmFkaWVudDQzNTYiIGdyYWRpZW50VW5pdHM9InVzZXJTcGFjZU9uVXNlIiBncmFkaWVudFRyYW5zZm9ybT0ibWF0cml4KC0yLjgzNDczNzksMC42MDkwOTk2LDAuNjA5MDk5NiwyLjgzNDczNzksMTM0LjA3MDM5LC0yOS44NDU3NjUpIi8+JiN4YTsgICAgPGxpbmVhckdyYWRpZW50IHgxPSIyMC42NjE2OTUiIHkxPSIzNS44MTc5NzQiIHgyPSIyMi42MjY5MjUiIHkyPSIzNi4yMTc3NTgiIGlkPSJsaW5lYXJHcmFkaWVudDI0OTAiIHhsaW5rOmhyZWY9IiNsaW5lYXJHcmFkaWVudDQzNTYiIGdyYWRpZW50VW5pdHM9InVzZXJTcGFjZU9uVXNlIiBncmFkaWVudFRyYW5zZm9ybT0ibWF0cml4KDIuODUxMjM1NywwLjUyNjUwMzMsLTAuNTI2NTAzMywyLjg1MTIzNTcsLTcuNjQ4MDUsLTI2LjA5NDYzNykiLz4mI3hhOyAgICA8cmFkaWFsR3JhZGllbnQgY3g9IjI5LjM0NDkzMSIgY3k9IjE3LjA2NDA3NyIgcj0iOS4xNjIwNTc5IiBmeD0iMjkuMzQ0OTMxIiBmeT0iMTcuMDY0MDc3IiBpZD0icmFkaWFsR3JhZGllbnQyNDk0IiB4bGluazpocmVmPSIjbGluZWFyR3JhZGllbnQzODAwIiBncmFkaWVudFVuaXRzPSJ1c2VyU3BhY2VPblVzZSIgZ3JhZGllbnRUcmFuc2Zvcm09Im1hdHJpeCgyLjI4NDc1MjEsMCwwLDIuMjg0NzUyMSwtNy42Nzg1NDI1LC03LjkxNzc4NDYpIi8+JiN4YTsgICAgPHJhZGlhbEdyYWRpZW50IGN4PSIzMS4xMTI2OTgiIGN5PSIxOS4wMDg2MjEiIHI9IjguNjYyMDU3OSIgZng9IjMxLjExMjY5OCIgZnk9IjE5LjAwODYyMSIgaWQ9InJhZGlhbEdyYWRpZW50MjQ5NyIgeGxpbms6aHJlZj0iI2xpbmVhckdyYWRpZW50MzgxNiIgZ3JhZGllbnRVbml0cz0idXNlclNwYWNlT25Vc2UiIGdyYWRpZW50VHJhbnNmb3JtPSJtYXRyaXgoMi44OTk0Mzg5LDAsMCwyLjg5OTQzODksLTI2LjA3ODk1NiwtOC4yNTg4MzcpIi8+JiN4YTsgICAgPGxpbmVhckdyYWRpZW50IHgxPSIzMC45MzU5MjEiIHkxPSIyOS41NTM0ODYiIHgyPSIzMC45MzU5MjEiIHkyPSIzNS44MDM0ODYiIGlkPSJsaW5lYXJHcmFkaWVudDI1MDMiIHhsaW5rOmhyZWY9IiNsaW5lYXJHcmFkaWVudDM4MjQiIGdyYWRpZW50VW5pdHM9InVzZXJTcGFjZU9uVXNlIiBncmFkaWVudFRyYW5zZm9ybT0ibWF0cml4KDIuODk5NDM4OSwwLDAsMi44OTk0Mzg5LC0yNS43MTY1MjYsLTE4LjQwNjg3MykiLz4mI3hhOyAgICA8cmFkaWFsR3JhZGllbnQgY3g9IjI4LjA4OTc0MSIgY3k9IjI3LjIwMzA4MyIgcj0iMTMuNTY1MzYiIGZ4PSIyOC4wODk3NDEiIGZ5PSIyNy4yMDMwODMiIGlkPSJyYWRpYWxHcmFkaWVudDI1MDYiIHhsaW5rOmhyZWY9IiNsaW5lYXJHcmFkaWVudDQxNjMiIGdyYWRpZW50VW5pdHM9InVzZXJTcGFjZU9uVXNlIiBncmFkaWVudFRyYW5zZm9ybT0ibWF0cml4KDMuNzYyMjA3NSwwLDAsMi41NjU1MTM0LC00OS45NTE1LC00LjA4MjI4NTEpIi8+JiN4YTsgICAgPGxpbmVhckdyYWRpZW50IHgxPSIyMi42ODY3NjYiIHkxPSIzNi4zOTA0IiB4Mj0iMjEuNDA4NDU1IiB5Mj0iMzUuNzM5NjMyIiBpZD0ibGluZWFyR3JhZGllbnQyNTA5IiB4bGluazpocmVmPSIjbGluZWFyR3JhZGllbnQ0MzU2IiBncmFkaWVudFVuaXRzPSJ1c2VyU3BhY2VPblVzZSIgZ3JhZGllbnRUcmFuc2Zvcm09Im1hdHJpeCgtMi44MzQ3Mzc5LDAuNjA5MDk5NiwwLjYwOTA5OTYsMi44MzQ3Mzc5LDk1LjQ5NjcyLC01MC42NDQ3NDgpIi8+JiN4YTsgICAgPGxpbmVhckdyYWRpZW50IHgxPSIzMC45MzU5MjEiIHkxPSIyOS41NTM0ODYiIHgyPSIzMC45MzU5MjEiIHkyPSIzNS44MDM0ODYiIGlkPSJsaW5lYXJHcmFkaWVudDI1MTIiIHhsaW5rOmhyZWY9IiNsaW5lYXJHcmFkaWVudDM4MjQiIGdyYWRpZW50VW5pdHM9InVzZXJTcGFjZU9uVXNlIiBncmFkaWVudFRyYW5zZm9ybT0ibWF0cml4KDIuODk5NDM4OSwwLDAsMi44OTk0Mzg5LC02MS43MjE0MzksLTM4LjcwMjk0NSkiLz4mI3hhOyAgPC9kZWZzPiYjeGE7ICA8ZyBpZD0iZzI1MTQiPiYjeGE7ICAgIDxnIGlkPSJsYXllcjEiIHN0eWxlPSJkaXNwbGF5OmlubGluZSIvPiYjeGE7ICAgIDxwYXRoIGQ9Im0gMTA4LjcyMjUsMTAyLjc3MDk3IGMgMC4wMDcsOC4xMDIgLTE5Ljk1OTI4NCwxNC42NzEyOCAtNDQuNTkyMTI5LDE0LjY3MTI4IC0yNC42MzI4NCwwIC00NC41OTk2MDUsLTYuNTY5MjggLTQ0LjU5MjEyLC0xNC42NzEyOCAtMC4wMDc1LC04LjEwMTk5OSAxOS45NTkyOCwtMTQuNjcxMjc1IDQ0LjU5MjEyLC0xNC42NzEyNzUgMjQuNjMyODQ1LDAgNDQuNTk5NjA5LDYuNTY5Mjc2IDQ0LjU5MjEyOSwxNC42NzEyNzUgbCAwLDAgeiIgaWQ9InBhdGg0MzA2IiBzdHlsZT0iZmlsbDp1cmwoI3JhZGlhbEdyYWRpZW50MjQ2OCk7ZmlsbC1vcGFjaXR5OjE7ZmlsbC1ydWxlOmV2ZW5vZGQ7c3Ryb2tlOm5vbmU7c3Ryb2tlLXdpZHRoOjFweDttYXJrZXI6bm9uZTt2aXNpYmlsaXR5OnZpc2libGU7ZGlzcGxheTppbmxpbmU7b3ZlcmZsb3c6dmlzaWJsZSIvPiYjeGE7ICAgIDxwYXRoIGQ9Im0gMzkuNzY0MDksNTkuOTc4NDE2IDEyLjMwMTI4LDAgLTcuMTc1NzQsLTYuNjYzMTkyIC0xLjUzNzY2LDIuMDUwMjE0IC0xLjUzNzY3LC0xLjUzNzY2IC0yLjA1MDIxLDYuMTUwNjM4IHoiIGlkPSJwYXRoNDE3MyIgc3R5bGU9ImZpbGw6dXJsKCNsaW5lYXJHcmFkaWVudDI1MTIpO2ZpbGwtb3BhY2l0eToxO2ZpbGwtcnVsZTpldmVub2RkO3N0cm9rZTpub25lO3N0cm9rZS13aWR0aDoxcHg7bWFya2VyOm5vbmU7dmlzaWJpbGl0eTp2aXNpYmxlO2Rpc3BsYXk6aW5saW5lO292ZXJmbG93OnZpc2libGUiLz4mI3hhOyAgICA8cGF0aCBkPSJtIDUzLjg4MzY5LDc2LjUzMDYwMiBjIDMuNTY5OTMsLTEuNjg0NTEgNS4yMzE2OSwtNS44MDU2MDcgNS4yMzE2OSwtNS44MDU2MDcgQyA1Ni4zMzQ0Nyw1OS4wMDI2MTMgNDcuNTg2NzcsNTAuODg0NjU0IDQ3LjU4Njc3LDUwLjg4NDY1NCBjIDAsMCA3LjE0NTk0LDE4LjM4OTk4NiA2LjI5NjkyLDI1LjY0NTk0OCB6IiBpZD0icGF0aDQzNzAiIHN0eWxlPSJvcGFjaXR5OjAuMjI3ODQ4MDc7ZmlsbDp1cmwoI2xpbmVhckdyYWRpZW50MjUwOSk7ZmlsbC1vcGFjaXR5OjE7ZmlsbC1ydWxlOmV2ZW5vZGQ7c3Ryb2tlOm5vbmU7c3Ryb2tlLXdpZHRoOjFweDttYXJrZXI6bm9uZTt2aXNpYmlsaXR5OnZpc2libGU7ZGlzcGxheTppbmxpbmU7b3ZlcmZsb3c6dmlzaWJsZSIvPiYjeGE7ICAgIDxwYXRoIGQ9Im0gNDkuNjI4OCwxMDIuMzE0MjggMzAuNzUzMTksMCBjIDguNzEzNDEsMCAxNy4zNDAwNSwtMy4xOTQ5OSAyMC41MDIxMywtMTIuMzAxMjggMy4wMDI3NywtOC42NDc1MDggMC41MTI1NSwtMjUuMTE1MTA5IC0xOC45NjQ0NywtMzguNDQxNDkzIGwgLTM2LjM5MTI4LDAgQyAyNi4wNTEzNSw2My44NzI3ODMgMjMuNjE3MzQsODAuNjk1ODgxIDI4LjEwMTU2LDkwLjUyNTU1IDMyLjY2OTksMTAwLjUzOTYgNDAuNDAyODQsMTAyLjMxNDI4IDQ5LjYyODgsMTAyLjMxNDI4IHoiIGlkPSJwYXRoNDMwOCIgc3R5bGU9ImZpbGw6dXJsKCNyYWRpYWxHcmFkaWVudDI1MDYpO2ZpbGwtb3BhY2l0eToxO2ZpbGwtcnVsZTpldmVub2RkO3N0cm9rZTojMjA0YTg3O3N0cm9rZS13aWR0aDoyLjg5OTQzODg2cHg7c3Ryb2tlLWxpbmVjYXA6cm91bmQ7c3Ryb2tlLWxpbmVqb2luOnJvdW5kO3N0cm9rZS1taXRlcmxpbWl0OjQ7c3Ryb2tlLW9wYWNpdHk6MTtzdHJva2UtZGFzaGFycmF5Om5vbmU7c3Ryb2tlLWRhc2hvZmZzZXQ6MDttYXJrZXI6bm9uZTt2aXNpYmlsaXR5OnZpc2libGU7ZGlzcGxheTppbmxpbmU7b3ZlcmZsb3c6dmlzaWJsZSIvPiYjeGE7ICAgIDxwYXRoIGQ9Im0gNTEuNjc5MDEsNTYuMTg0NDg2IGMgOS4yMjU5Niw4LjIwMDg1MSAxMy4zMjYzOCwzNy45Mjg5NDQgMTMuMzI2MzgsMzcuOTI4OTQ0IDAsMCA0LjEwMDQzLC0yOS43MjgwOSAxMS4yNzYxNywtMzguNDQxNDk2IGwgLTI0LjYwMjU1LDAuNTEyNTUyIHoiIGlkPSJwYXRoNDMxMCIgc3R5bGU9ImZpbGw6dXJsKCNsaW5lYXJHcmFkaWVudDI1MDMpO2ZpbGwtb3BhY2l0eToxO2ZpbGwtcnVsZTpldmVub2RkO3N0cm9rZTpub25lO3N0cm9rZS13aWR0aDoxcHg7bWFya2VyOm5vbmU7dmlzaWJpbGl0eTp2aXNpYmxlO2Rpc3BsYXk6aW5saW5lO292ZXJmbG93OnZpc2libGUiLz4mI3hhOyAgICA8cGF0aCBkPSJtIDU4LjI4ODExLDU5LjI1OTgwNyBjIDAsMCAtNi4yMzc2Myw0LjgxNDA0IC01LjcwMDI3LDEwLjYxMzQ5MiAtNS45MTg0MSwtNS4yMjEyOTIgLTYuMDg4NDYsLTE1LjIyNjQ3MyAtNi4wODg0NiwtMTUuMjI2NDczIGwgMTEuNzg4NzMsNC42MTI5ODEgeiIgaWQ9InBhdGg0MzEyIiBzdHlsZT0iZmlsbDojNzI5ZmNmO2ZpbGwtb3BhY2l0eToxO2ZpbGwtcnVsZTpldmVub2RkO3N0cm9rZTpub25lO3N0cm9rZS13aWR0aDoxcHg7bWFya2VyOm5vbmU7dmlzaWJpbGl0eTp2aXNpYmxlO2Rpc3BsYXk6aW5saW5lO292ZXJmbG93OnZpc2libGUiLz4mI3hhOyAgICA8cGF0aCBkPSJtIDQ5LjQyMjAzLDk5LjI5Mjc1IDMwLjQyNTExLC0wLjA2NDA2IGMgNy42NTM3MiwwIDE1LjIzMTIyLC0yLjgwNjQzIDE4LjAwODc0LC0xMC44MDUyNSAyLjYzNzU5LC03LjU5NTgzMiAtMC4yNzQ2NCwtMjIuMDYwNzA5IC0xNy4zODI5NCwtMzMuNzY2MzkgTCA0Ny4wNTc3LDUzLjk1MjI4OSBDIDI5Ljk0OTQsNjQuNzU3NTMyIDI2LjYzODA1LDc5LjUzNDY3MyAzMC42NDA5OSw4OC44NzM2NiBjIDQuMDAyOTQsOS4zMzg5OCA5Ljg0NDIxLDEwLjM1NTAzIDE4Ljc4MTA0LDEwLjQxOTA5IHoiIGlkPSJwYXRoNDMxNCIgc3R5bGU9Im9wYWNpdHk6MC4yMTUxODk4NjtmaWxsOm5vbmU7c3Ryb2tlOiNmZmZmZmY7c3Ryb2tlLXdpZHRoOjIuODk5NDM4MTRweDtzdHJva2UtbGluZWNhcDpyb3VuZDtzdHJva2UtbGluZWpvaW46cm91bmQ7c3Ryb2tlLW1pdGVybGltaXQ6NDtzdHJva2Utb3BhY2l0eToxO3N0cm9rZS1kYXNoYXJyYXk6bm9uZTtzdHJva2UtZGFzaG9mZnNldDowO21hcmtlcjpub25lO3Zpc2liaWxpdHk6dmlzaWJsZTtkaXNwbGF5OmlubGluZTtvdmVyZmxvdzp2aXNpYmxlIi8+JiN4YTsgICAgPHBhdGggZD0ibSA3MS4xNTYwMyw1OS4yNTk4MDcgYyAwLDAgNi4yMzc2Myw0LjgxNDA0IDUuNzAwMjcsMTAuNjEzNDkyIDUuOTE4NDEsLTUuMjIxMjkyIDYuMDg4NDYsLTE1LjIyNjQ3MyA2LjA4ODQ2LC0xNS4yMjY0NzMgbCAtMTEuNzg4NzMsNC42MTI5ODEgeiIgaWQ9InBhdGg0MzE2IiBzdHlsZT0iZmlsbDojNzI5ZmNmO2ZpbGwtb3BhY2l0eToxO2ZpbGwtcnVsZTpldmVub2RkO3N0cm9rZTpub25lO3N0cm9rZS13aWR0aDoxcHg7bWFya2VyOm5vbmU7dmlzaWJpbGl0eTp2aXNpYmxlO2Rpc3BsYXk6aW5saW5lO292ZXJmbG93OnZpc2libGUiLz4mI3hhOyAgICA8cGF0aCBkPSJtIDg5LjI0NTUxNiw0Ni44NTU0OTggYyAwLjAwNDIsMTMuODczNjcgLTExLjI0MTQzNSwyNS4xMjI3MzkgLTI1LjExNTEwOCwyNS4xMjI3MzkgLTEzLjg3MzY3LDAgLTI1LjExOTMyMSwtMTEuMjQ5MDY5IC0yNS4xMTUxMDUsLTI1LjEyMjczOSAtMC4wMDQyLC0xMy44NzM2NyAxMS4yNDE0MzUsLTI1LjEyMjczOSAyNS4xMTUxMDUsLTI1LjEyMjczOSAxMy44NzM2NzMsMCAyNS4xMTkzMjQsMTEuMjQ5MDY5IDI1LjExNTEwOCwyNS4xMjI3MzkgbCAwLDAgeiIgaWQ9InBhdGg0MzE4IiBzdHlsZT0iZmlsbDp1cmwoI3JhZGlhbEdyYWRpZW50MjQ5Nyk7ZmlsbC1vcGFjaXR5OjE7ZmlsbC1ydWxlOmV2ZW5vZGQ7c3Ryb2tlOm5vbmU7c3Ryb2tlLXdpZHRoOjFweDttYXJrZXI6bm9uZTt2aXNpYmlsaXR5OnZpc2libGU7ZGlzcGxheTppbmxpbmU7b3ZlcmZsb3c6dmlzaWJsZSIvPiYjeGE7ICAgIDxwYXRoIGQ9Im0gODkuNjA3OTQ2LDM2LjcwNzQ2MiBjIDAuMDA0MiwxMy44NzM2NyAtMTEuMjQxNDM1LDI1LjEyMjczOSAtMjUuMTE1MTA4LDI1LjEyMjczOSAtMTMuODczNjcsMCAtMjUuMTE5MzIxLC0xMS4yNDkwNjkgLTI1LjExNTEwNSwtMjUuMTIyNzM5IC0wLjAwNDIsLTEzLjg3MzY3IDExLjI0MTQzNSwtMjUuMTIyNzM5IDI1LjExNTEwNSwtMjUuMTIyNzM5IDEzLjg3MzY3MywwIDI1LjExOTMyNCwxMS4yNDkwNjkgMjUuMTE1MTA4LDI1LjEyMjczOSBsIDAsMCB6IiBpZD0icGF0aDQzMjAiIHN0eWxlPSJmaWxsOnVybCgjcmFkaWFsR3JhZGllbnQyNDk0KTtmaWxsLW9wYWNpdHk6MTtmaWxsLXJ1bGU6ZXZlbm9kZDtzdHJva2U6I2MxN2QxMTtzdHJva2Utd2lkdGg6Mi44OTk0Mzg4NnB4O3N0cm9rZS1saW5lY2FwOnJvdW5kO3N0cm9rZS1saW5lam9pbjpyb3VuZDtzdHJva2UtbWl0ZXJsaW1pdDo0O3N0cm9rZS1vcGFjaXR5OjE7c3Ryb2tlLWRhc2hhcnJheTpub25lO3N0cm9rZS1kYXNob2Zmc2V0OjA7bWFya2VyOm5vbmU7dmlzaWJpbGl0eTp2aXNpYmxlO2Rpc3BsYXk6aW5saW5lO292ZXJmbG93OnZpc2libGUiLz4mI3hhOyAgICA8cGF0aCBkPSJtIDg2LjUyMTIzMiwzNi43MDc0OTcgYyAwLjAwMzcsMTIuMTY4NTI2IC05Ljg1OTgwNiwyMi4wMzUwMjggLTIyLjAyODMzNSwyMi4wMzUwMjggLTEyLjE2ODUyNiwwIC0yMi4wMzIwMywtOS44NjY1MDIgLTIyLjAyODMzMiwtMjIuMDM1MDI4IC0wLjAwMzcsLTEyLjE2ODUyNyA5Ljg1OTgwNiwtMjIuMDM1MDI5IDIyLjAyODMzMiwtMjIuMDM1MDI5IDEyLjE2ODUyOSwwIDIyLjAzMjAzMyw5Ljg2NjUwMiAyMi4wMjgzMzUsMjIuMDM1MDI5IGwgMCwwIHoiIGlkPSJwYXRoNDMyMiIgc3R5bGU9Im9wYWNpdHk6MC4xOTYyMDI1NDtmaWxsOm5vbmU7c3Ryb2tlOiNmZmZmZmY7c3Ryb2tlLXdpZHRoOjIuODk5NDQxMjRweDtzdHJva2UtbGluZWNhcDpyb3VuZDtzdHJva2UtbGluZWpvaW46cm91bmQ7c3Ryb2tlLW1pdGVybGltaXQ6NDtzdHJva2Utb3BhY2l0eToxO3N0cm9rZS1kYXNoYXJyYXk6bm9uZTtzdHJva2UtZGFzaG9mZnNldDowO21hcmtlcjpub25lO3Zpc2liaWxpdHk6dmlzaWJsZTtkaXNwbGF5OmlubGluZTtvdmVyZmxvdzp2aXNpYmxlIi8+JiN4YTsgICAgPHBhdGggZD0ibSAzNy42NDE0LDk5LjgxODMyIGMgLTMuNjE3MzYsLTEuNTgwMTEgLTUuMjM2MzcsLTUuMzg3OTYgLTUuMjM2MzcsLTUuMzg3OTYgMi40MzkyNSwtMTEuNzk4MjE0IDEwLjc4NTcsLTIwLjQzMDA3NSAxMC43ODU3LC0yMC40MzAwNzUgMCwwIC02LjYwODc1LDE4LjU4OTc5NSAtNS41NDkzMywyNS44MTgwMzUgeiIgaWQ9InBhdGg0MzU0IiBzdHlsZT0ib3BhY2l0eTowLjIyNzg0ODA3O2ZpbGw6dXJsKCNsaW5lYXJHcmFkaWVudDI0OTApO2ZpbGwtb3BhY2l0eToxO2ZpbGwtcnVsZTpldmVub2RkO3N0cm9rZTpub25lO3N0cm9rZS13aWR0aDoxcHg7bWFya2VyOm5vbmU7dmlzaWJpbGl0eTp2aXNpYmxlO2Rpc3BsYXk6aW5saW5lO292ZXJmbG93OnZpc2libGUiLz4mI3hhOyAgICA8cGF0aCBkPSJtIDkyLjQ1NzM1LDk3LjMyOTU4IGMgMy41Njk5MywtMS42ODQ1MSA1LjIzMTY4LC01LjgwNTYxIDUuMjMxNjgsLTUuODA1NjEgLTIuNzgwOSwtMTEuNzIyMzc4IC0xMS41Mjg2LC0xOS44NDAzMzcgLTExLjUyODYsLTE5Ljg0MDMzNyAwLDAgNy4xNDU5NCwxOC4zODk5ODcgNi4yOTY5MiwyNS42NDU5NDcgeiIgaWQ9InBhdGg0MzY0IiBzdHlsZT0ib3BhY2l0eTowLjIyNzg0ODA3O2ZpbGw6dXJsKCNsaW5lYXJHcmFkaWVudDI0ODcpO2ZpbGwtb3BhY2l0eToxO2ZpbGwtcnVsZTpldmVub2RkO3N0cm9rZTpub25lO3N0cm9rZS13aWR0aDoxcHg7bWFya2VyOm5vbmU7dmlzaWJpbGl0eTp2aXNpYmxlO2Rpc3BsYXk6aW5saW5lO292ZXJmbG93OnZpc2libGUiLz4mI3hhOyAgPC9nPiYjeGE7PC9zdmc+;" vertex="1" parent="1">
          <mxGeometry x="368" y="571" width="42" height="42" as="geometry" />
        </mxCell>
        <mxCell id="QUkc8n2lJ9mTT0OE4B8_-75" value="" style="sketch=0;points=[[0.015,0.015,0],[0.985,0.015,0],[0.985,0.985,0],[0.015,0.985,0],[0.25,0,0],[0.5,0,0],[0.75,0,0],[1,0.25,0],[1,0.5,0],[1,0.75,0],[0.75,1,0],[0.5,1,0],[0.25,1,0],[0,0.75,0],[0,0.5,0],[0,0.25,0]];verticalLabelPosition=bottom;html=1;verticalAlign=top;aspect=fixed;align=center;pointerEvents=1;shape=mxgraph.cisco19.server;fillColor=#005073;strokeColor=none;fontSize=10;container=0;" vertex="1" parent="1">
          <mxGeometry x="447.25" y="516" width="46.26" height="84.11" as="geometry" />
        </mxCell>
        <mxCell id="QUkc8n2lJ9mTT0OE4B8_-76" value="" style="shape=image;verticalLabelPosition=bottom;verticalAlign=top;imageAspect=0;aspect=fixed;image=data:image/svg+xml,PHN2ZyB4bWxuczpzdmc9Imh0dHA6Ly93d3cudzMub3JnLzIwMDAvc3ZnIiB4bWxucz0iaHR0cDovL3d3dy53My5vcmcvMjAwMC9zdmciIHhtbG5zOnhsaW5rPSJodHRwOi8vd3d3LnczLm9yZy8xOTk5L3hsaW5rIiB2ZXJzaW9uPSIxLjAiIHdpZHRoPSIxMjgiIGhlaWdodD0iMTI4IiBpZD0ic3ZnMjEwOCIgdmlld0JveD0iMCAwIDEyOCAxMjgiPiYjeGE7ICA8ZGVmcyBpZD0iZGVmczMiPiYjeGE7ICAgIDxsaW5lYXJHcmFkaWVudCBpZD0ibGluZWFyR3JhZGllbnQ0MzU2Ij4mI3hhOyAgICAgIDxzdG9wIGlkPSJzdG9wNDM1OCIgc3R5bGU9InN0b3AtY29sb3I6IzAwMDAwMDtzdG9wLW9wYWNpdHk6MSIgb2Zmc2V0PSIwIi8+JiN4YTsgICAgICA8c3RvcCBpZD0ic3RvcDQzNjAiIHN0eWxlPSJzdG9wLWNvbG9yOiMwMDAwMDA7c3RvcC1vcGFjaXR5OjAiIG9mZnNldD0iMSIvPiYjeGE7ICAgIDwvbGluZWFyR3JhZGllbnQ+JiN4YTsgICAgPGxpbmVhckdyYWRpZW50IGlkPSJsaW5lYXJHcmFkaWVudDQxNjMiPiYjeGE7ICAgICAgPHN0b3AgaWQ9InN0b3A0MTY1IiBzdHlsZT0ic3RvcC1jb2xvcjojM2I3NGJjO3N0b3Atb3BhY2l0eToxIiBvZmZzZXQ9IjAiLz4mI3hhOyAgICAgIDxzdG9wIGlkPSJzdG9wNDE2NyIgc3R5bGU9InN0b3AtY29sb3I6IzJkNTk5MDtzdG9wLW9wYWNpdHk6MSIgb2Zmc2V0PSIxIi8+JiN4YTsgICAgPC9saW5lYXJHcmFkaWVudD4mI3hhOyAgICA8bGluZWFyR3JhZGllbnQgaWQ9ImxpbmVhckdyYWRpZW50MzgyNCI+JiN4YTsgICAgICA8c3RvcCBpZD0ic3RvcDM4MjYiIHN0eWxlPSJzdG9wLWNvbG9yOiNmZmZmZmY7c3RvcC1vcGFjaXR5OjEiIG9mZnNldD0iMCIvPiYjeGE7ICAgICAgPHN0b3AgaWQ9InN0b3AzODI4IiBzdHlsZT0ic3RvcC1jb2xvcjojYzljOWM5O3N0b3Atb3BhY2l0eToxIiBvZmZzZXQ9IjEiLz4mI3hhOyAgICA8L2xpbmVhckdyYWRpZW50PiYjeGE7ICAgIDxsaW5lYXJHcmFkaWVudCBpZD0ibGluZWFyR3JhZGllbnQzODE2Ij4mI3hhOyAgICAgIDxzdG9wIGlkPSJzdG9wMzgxOCIgc3R5bGU9InN0b3AtY29sb3I6IzAwMDAwMDtzdG9wLW9wYWNpdHk6MSIgb2Zmc2V0PSIwIi8+JiN4YTsgICAgICA8c3RvcCBpZD0ic3RvcDM4MjAiIHN0eWxlPSJzdG9wLWNvbG9yOiMwMDAwMDA7c3RvcC1vcGFjaXR5OjAiIG9mZnNldD0iMSIvPiYjeGE7ICAgIDwvbGluZWFyR3JhZGllbnQ+JiN4YTsgICAgPGxpbmVhckdyYWRpZW50IGlkPSJsaW5lYXJHcmFkaWVudDM4MDAiPiYjeGE7ICAgICAgPHN0b3AgaWQ9InN0b3AzODAyIiBzdHlsZT0ic3RvcC1jb2xvcjojZjRkOWIxO3N0b3Atb3BhY2l0eToxIiBvZmZzZXQ9IjAiLz4mI3hhOyAgICAgIDxzdG9wIGlkPSJzdG9wMzgwNCIgc3R5bGU9InN0b3AtY29sb3I6I2RmOTcyNTtzdG9wLW9wYWNpdHk6MSIgb2Zmc2V0PSIxIi8+JiN4YTsgICAgPC9saW5lYXJHcmFkaWVudD4mI3hhOyAgICA8cmFkaWFsR3JhZGllbnQgY3g9IjMxLjExMjY5OCIgY3k9IjE5LjAwODYyMSIgcj0iOC42NjIwNTc5IiBmeD0iMzEuMTEyNjk4IiBmeT0iMTkuMDA4NjIxIiBpZD0icmFkaWFsR3JhZGllbnQyNDY4IiB4bGluazpocmVmPSIjbGluZWFyR3JhZGllbnQzODE2IiBncmFkaWVudFVuaXRzPSJ1c2VyU3BhY2VPblVzZSIgZ3JhZGllbnRUcmFuc2Zvcm09Im1hdHJpeCg1LjE0Nzk4MjcsMCwwLDEuNjkzMjI1OSwtOTYuMDM3MjU1LDcwLjU4NTA4MykiLz4mI3hhOyAgICA8bGluZWFyR3JhZGllbnQgeDE9IjIyLjY4Njc2NiIgeTE9IjM2LjM5MDQiIHgyPSIyMS40MDg0NTUiIHkyPSIzNS43Mzk2MzIiIGlkPSJsaW5lYXJHcmFkaWVudDI0ODciIHhsaW5rOmhyZWY9IiNsaW5lYXJHcmFkaWVudDQzNTYiIGdyYWRpZW50VW5pdHM9InVzZXJTcGFjZU9uVXNlIiBncmFkaWVudFRyYW5zZm9ybT0ibWF0cml4KC0yLjgzNDczNzksMC42MDkwOTk2LDAuNjA5MDk5NiwyLjgzNDczNzksMTM0LjA3MDM5LC0yOS44NDU3NjUpIi8+JiN4YTsgICAgPGxpbmVhckdyYWRpZW50IHgxPSIyMC42NjE2OTUiIHkxPSIzNS44MTc5NzQiIHgyPSIyMi42MjY5MjUiIHkyPSIzNi4yMTc3NTgiIGlkPSJsaW5lYXJHcmFkaWVudDI0OTAiIHhsaW5rOmhyZWY9IiNsaW5lYXJHcmFkaWVudDQzNTYiIGdyYWRpZW50VW5pdHM9InVzZXJTcGFjZU9uVXNlIiBncmFkaWVudFRyYW5zZm9ybT0ibWF0cml4KDIuODUxMjM1NywwLjUyNjUwMzMsLTAuNTI2NTAzMywyLjg1MTIzNTcsLTcuNjQ4MDUsLTI2LjA5NDYzNykiLz4mI3hhOyAgICA8cmFkaWFsR3JhZGllbnQgY3g9IjI5LjM0NDkzMSIgY3k9IjE3LjA2NDA3NyIgcj0iOS4xNjIwNTc5IiBmeD0iMjkuMzQ0OTMxIiBmeT0iMTcuMDY0MDc3IiBpZD0icmFkaWFsR3JhZGllbnQyNDk0IiB4bGluazpocmVmPSIjbGluZWFyR3JhZGllbnQzODAwIiBncmFkaWVudFVuaXRzPSJ1c2VyU3BhY2VPblVzZSIgZ3JhZGllbnRUcmFuc2Zvcm09Im1hdHJpeCgyLjI4NDc1MjEsMCwwLDIuMjg0NzUyMSwtNy42Nzg1NDI1LC03LjkxNzc4NDYpIi8+JiN4YTsgICAgPHJhZGlhbEdyYWRpZW50IGN4PSIzMS4xMTI2OTgiIGN5PSIxOS4wMDg2MjEiIHI9IjguNjYyMDU3OSIgZng9IjMxLjExMjY5OCIgZnk9IjE5LjAwODYyMSIgaWQ9InJhZGlhbEdyYWRpZW50MjQ5NyIgeGxpbms6aHJlZj0iI2xpbmVhckdyYWRpZW50MzgxNiIgZ3JhZGllbnRVbml0cz0idXNlclNwYWNlT25Vc2UiIGdyYWRpZW50VHJhbnNmb3JtPSJtYXRyaXgoMi44OTk0Mzg5LDAsMCwyLjg5OTQzODksLTI2LjA3ODk1NiwtOC4yNTg4MzcpIi8+JiN4YTsgICAgPGxpbmVhckdyYWRpZW50IHgxPSIzMC45MzU5MjEiIHkxPSIyOS41NTM0ODYiIHgyPSIzMC45MzU5MjEiIHkyPSIzNS44MDM0ODYiIGlkPSJsaW5lYXJHcmFkaWVudDI1MDMiIHhsaW5rOmhyZWY9IiNsaW5lYXJHcmFkaWVudDM4MjQiIGdyYWRpZW50VW5pdHM9InVzZXJTcGFjZU9uVXNlIiBncmFkaWVudFRyYW5zZm9ybT0ibWF0cml4KDIuODk5NDM4OSwwLDAsMi44OTk0Mzg5LC0yNS43MTY1MjYsLTE4LjQwNjg3MykiLz4mI3hhOyAgICA8cmFkaWFsR3JhZGllbnQgY3g9IjI4LjA4OTc0MSIgY3k9IjI3LjIwMzA4MyIgcj0iMTMuNTY1MzYiIGZ4PSIyOC4wODk3NDEiIGZ5PSIyNy4yMDMwODMiIGlkPSJyYWRpYWxHcmFkaWVudDI1MDYiIHhsaW5rOmhyZWY9IiNsaW5lYXJHcmFkaWVudDQxNjMiIGdyYWRpZW50VW5pdHM9InVzZXJTcGFjZU9uVXNlIiBncmFkaWVudFRyYW5zZm9ybT0ibWF0cml4KDMuNzYyMjA3NSwwLDAsMi41NjU1MTM0LC00OS45NTE1LC00LjA4MjI4NTEpIi8+JiN4YTsgICAgPGxpbmVhckdyYWRpZW50IHgxPSIyMi42ODY3NjYiIHkxPSIzNi4zOTA0IiB4Mj0iMjEuNDA4NDU1IiB5Mj0iMzUuNzM5NjMyIiBpZD0ibGluZWFyR3JhZGllbnQyNTA5IiB4bGluazpocmVmPSIjbGluZWFyR3JhZGllbnQ0MzU2IiBncmFkaWVudFVuaXRzPSJ1c2VyU3BhY2VPblVzZSIgZ3JhZGllbnRUcmFuc2Zvcm09Im1hdHJpeCgtMi44MzQ3Mzc5LDAuNjA5MDk5NiwwLjYwOTA5OTYsMi44MzQ3Mzc5LDk1LjQ5NjcyLC01MC42NDQ3NDgpIi8+JiN4YTsgICAgPGxpbmVhckdyYWRpZW50IHgxPSIzMC45MzU5MjEiIHkxPSIyOS41NTM0ODYiIHgyPSIzMC45MzU5MjEiIHkyPSIzNS44MDM0ODYiIGlkPSJsaW5lYXJHcmFkaWVudDI1MTIiIHhsaW5rOmhyZWY9IiNsaW5lYXJHcmFkaWVudDM4MjQiIGdyYWRpZW50VW5pdHM9InVzZXJTcGFjZU9uVXNlIiBncmFkaWVudFRyYW5zZm9ybT0ibWF0cml4KDIuODk5NDM4OSwwLDAsMi44OTk0Mzg5LC02MS43MjE0MzksLTM4LjcwMjk0NSkiLz4mI3hhOyAgPC9kZWZzPiYjeGE7ICA8ZyBpZD0iZzI1MTQiPiYjeGE7ICAgIDxnIGlkPSJsYXllcjEiIHN0eWxlPSJkaXNwbGF5OmlubGluZSIvPiYjeGE7ICAgIDxwYXRoIGQ9Im0gMTA4LjcyMjUsMTAyLjc3MDk3IGMgMC4wMDcsOC4xMDIgLTE5Ljk1OTI4NCwxNC42NzEyOCAtNDQuNTkyMTI5LDE0LjY3MTI4IC0yNC42MzI4NCwwIC00NC41OTk2MDUsLTYuNTY5MjggLTQ0LjU5MjEyLC0xNC42NzEyOCAtMC4wMDc1LC04LjEwMTk5OSAxOS45NTkyOCwtMTQuNjcxMjc1IDQ0LjU5MjEyLC0xNC42NzEyNzUgMjQuNjMyODQ1LDAgNDQuNTk5NjA5LDYuNTY5Mjc2IDQ0LjU5MjEyOSwxNC42NzEyNzUgbCAwLDAgeiIgaWQ9InBhdGg0MzA2IiBzdHlsZT0iZmlsbDp1cmwoI3JhZGlhbEdyYWRpZW50MjQ2OCk7ZmlsbC1vcGFjaXR5OjE7ZmlsbC1ydWxlOmV2ZW5vZGQ7c3Ryb2tlOm5vbmU7c3Ryb2tlLXdpZHRoOjFweDttYXJrZXI6bm9uZTt2aXNpYmlsaXR5OnZpc2libGU7ZGlzcGxheTppbmxpbmU7b3ZlcmZsb3c6dmlzaWJsZSIvPiYjeGE7ICAgIDxwYXRoIGQ9Im0gMzkuNzY0MDksNTkuOTc4NDE2IDEyLjMwMTI4LDAgLTcuMTc1NzQsLTYuNjYzMTkyIC0xLjUzNzY2LDIuMDUwMjE0IC0xLjUzNzY3LC0xLjUzNzY2IC0yLjA1MDIxLDYuMTUwNjM4IHoiIGlkPSJwYXRoNDE3MyIgc3R5bGU9ImZpbGw6dXJsKCNsaW5lYXJHcmFkaWVudDI1MTIpO2ZpbGwtb3BhY2l0eToxO2ZpbGwtcnVsZTpldmVub2RkO3N0cm9rZTpub25lO3N0cm9rZS13aWR0aDoxcHg7bWFya2VyOm5vbmU7dmlzaWJpbGl0eTp2aXNpYmxlO2Rpc3BsYXk6aW5saW5lO292ZXJmbG93OnZpc2libGUiLz4mI3hhOyAgICA8cGF0aCBkPSJtIDUzLjg4MzY5LDc2LjUzMDYwMiBjIDMuNTY5OTMsLTEuNjg0NTEgNS4yMzE2OSwtNS44MDU2MDcgNS4yMzE2OSwtNS44MDU2MDcgQyA1Ni4zMzQ0Nyw1OS4wMDI2MTMgNDcuNTg2NzcsNTAuODg0NjU0IDQ3LjU4Njc3LDUwLjg4NDY1NCBjIDAsMCA3LjE0NTk0LDE4LjM4OTk4NiA2LjI5NjkyLDI1LjY0NTk0OCB6IiBpZD0icGF0aDQzNzAiIHN0eWxlPSJvcGFjaXR5OjAuMjI3ODQ4MDc7ZmlsbDp1cmwoI2xpbmVhckdyYWRpZW50MjUwOSk7ZmlsbC1vcGFjaXR5OjE7ZmlsbC1ydWxlOmV2ZW5vZGQ7c3Ryb2tlOm5vbmU7c3Ryb2tlLXdpZHRoOjFweDttYXJrZXI6bm9uZTt2aXNpYmlsaXR5OnZpc2libGU7ZGlzcGxheTppbmxpbmU7b3ZlcmZsb3c6dmlzaWJsZSIvPiYjeGE7ICAgIDxwYXRoIGQ9Im0gNDkuNjI4OCwxMDIuMzE0MjggMzAuNzUzMTksMCBjIDguNzEzNDEsMCAxNy4zNDAwNSwtMy4xOTQ5OSAyMC41MDIxMywtMTIuMzAxMjggMy4wMDI3NywtOC42NDc1MDggMC41MTI1NSwtMjUuMTE1MTA5IC0xOC45NjQ0NywtMzguNDQxNDkzIGwgLTM2LjM5MTI4LDAgQyAyNi4wNTEzNSw2My44NzI3ODMgMjMuNjE3MzQsODAuNjk1ODgxIDI4LjEwMTU2LDkwLjUyNTU1IDMyLjY2OTksMTAwLjUzOTYgNDAuNDAyODQsMTAyLjMxNDI4IDQ5LjYyODgsMTAyLjMxNDI4IHoiIGlkPSJwYXRoNDMwOCIgc3R5bGU9ImZpbGw6dXJsKCNyYWRpYWxHcmFkaWVudDI1MDYpO2ZpbGwtb3BhY2l0eToxO2ZpbGwtcnVsZTpldmVub2RkO3N0cm9rZTojMjA0YTg3O3N0cm9rZS13aWR0aDoyLjg5OTQzODg2cHg7c3Ryb2tlLWxpbmVjYXA6cm91bmQ7c3Ryb2tlLWxpbmVqb2luOnJvdW5kO3N0cm9rZS1taXRlcmxpbWl0OjQ7c3Ryb2tlLW9wYWNpdHk6MTtzdHJva2UtZGFzaGFycmF5Om5vbmU7c3Ryb2tlLWRhc2hvZmZzZXQ6MDttYXJrZXI6bm9uZTt2aXNpYmlsaXR5OnZpc2libGU7ZGlzcGxheTppbmxpbmU7b3ZlcmZsb3c6dmlzaWJsZSIvPiYjeGE7ICAgIDxwYXRoIGQ9Im0gNTEuNjc5MDEsNTYuMTg0NDg2IGMgOS4yMjU5Niw4LjIwMDg1MSAxMy4zMjYzOCwzNy45Mjg5NDQgMTMuMzI2MzgsMzcuOTI4OTQ0IDAsMCA0LjEwMDQzLC0yOS43MjgwOSAxMS4yNzYxNywtMzguNDQxNDk2IGwgLTI0LjYwMjU1LDAuNTEyNTUyIHoiIGlkPSJwYXRoNDMxMCIgc3R5bGU9ImZpbGw6dXJsKCNsaW5lYXJHcmFkaWVudDI1MDMpO2ZpbGwtb3BhY2l0eToxO2ZpbGwtcnVsZTpldmVub2RkO3N0cm9rZTpub25lO3N0cm9rZS13aWR0aDoxcHg7bWFya2VyOm5vbmU7dmlzaWJpbGl0eTp2aXNpYmxlO2Rpc3BsYXk6aW5saW5lO292ZXJmbG93OnZpc2libGUiLz4mI3hhOyAgICA8cGF0aCBkPSJtIDU4LjI4ODExLDU5LjI1OTgwNyBjIDAsMCAtNi4yMzc2Myw0LjgxNDA0IC01LjcwMDI3LDEwLjYxMzQ5MiAtNS45MTg0MSwtNS4yMjEyOTIgLTYuMDg4NDYsLTE1LjIyNjQ3MyAtNi4wODg0NiwtMTUuMjI2NDczIGwgMTEuNzg4NzMsNC42MTI5ODEgeiIgaWQ9InBhdGg0MzEyIiBzdHlsZT0iZmlsbDojNzI5ZmNmO2ZpbGwtb3BhY2l0eToxO2ZpbGwtcnVsZTpldmVub2RkO3N0cm9rZTpub25lO3N0cm9rZS13aWR0aDoxcHg7bWFya2VyOm5vbmU7dmlzaWJpbGl0eTp2aXNpYmxlO2Rpc3BsYXk6aW5saW5lO292ZXJmbG93OnZpc2libGUiLz4mI3hhOyAgICA8cGF0aCBkPSJtIDQ5LjQyMjAzLDk5LjI5Mjc1IDMwLjQyNTExLC0wLjA2NDA2IGMgNy42NTM3MiwwIDE1LjIzMTIyLC0yLjgwNjQzIDE4LjAwODc0LC0xMC44MDUyNSAyLjYzNzU5LC03LjU5NTgzMiAtMC4yNzQ2NCwtMjIuMDYwNzA5IC0xNy4zODI5NCwtMzMuNzY2MzkgTCA0Ny4wNTc3LDUzLjk1MjI4OSBDIDI5Ljk0OTQsNjQuNzU3NTMyIDI2LjYzODA1LDc5LjUzNDY3MyAzMC42NDA5OSw4OC44NzM2NiBjIDQuMDAyOTQsOS4zMzg5OCA5Ljg0NDIxLDEwLjM1NTAzIDE4Ljc4MTA0LDEwLjQxOTA5IHoiIGlkPSJwYXRoNDMxNCIgc3R5bGU9Im9wYWNpdHk6MC4yMTUxODk4NjtmaWxsOm5vbmU7c3Ryb2tlOiNmZmZmZmY7c3Ryb2tlLXdpZHRoOjIuODk5NDM4MTRweDtzdHJva2UtbGluZWNhcDpyb3VuZDtzdHJva2UtbGluZWpvaW46cm91bmQ7c3Ryb2tlLW1pdGVybGltaXQ6NDtzdHJva2Utb3BhY2l0eToxO3N0cm9rZS1kYXNoYXJyYXk6bm9uZTtzdHJva2UtZGFzaG9mZnNldDowO21hcmtlcjpub25lO3Zpc2liaWxpdHk6dmlzaWJsZTtkaXNwbGF5OmlubGluZTtvdmVyZmxvdzp2aXNpYmxlIi8+JiN4YTsgICAgPHBhdGggZD0ibSA3MS4xNTYwMyw1OS4yNTk4MDcgYyAwLDAgNi4yMzc2Myw0LjgxNDA0IDUuNzAwMjcsMTAuNjEzNDkyIDUuOTE4NDEsLTUuMjIxMjkyIDYuMDg4NDYsLTE1LjIyNjQ3MyA2LjA4ODQ2LC0xNS4yMjY0NzMgbCAtMTEuNzg4NzMsNC42MTI5ODEgeiIgaWQ9InBhdGg0MzE2IiBzdHlsZT0iZmlsbDojNzI5ZmNmO2ZpbGwtb3BhY2l0eToxO2ZpbGwtcnVsZTpldmVub2RkO3N0cm9rZTpub25lO3N0cm9rZS13aWR0aDoxcHg7bWFya2VyOm5vbmU7dmlzaWJpbGl0eTp2aXNpYmxlO2Rpc3BsYXk6aW5saW5lO292ZXJmbG93OnZpc2libGUiLz4mI3hhOyAgICA8cGF0aCBkPSJtIDg5LjI0NTUxNiw0Ni44NTU0OTggYyAwLjAwNDIsMTMuODczNjcgLTExLjI0MTQzNSwyNS4xMjI3MzkgLTI1LjExNTEwOCwyNS4xMjI3MzkgLTEzLjg3MzY3LDAgLTI1LjExOTMyMSwtMTEuMjQ5MDY5IC0yNS4xMTUxMDUsLTI1LjEyMjczOSAtMC4wMDQyLC0xMy44NzM2NyAxMS4yNDE0MzUsLTI1LjEyMjczOSAyNS4xMTUxMDUsLTI1LjEyMjczOSAxMy44NzM2NzMsMCAyNS4xMTkzMjQsMTEuMjQ5MDY5IDI1LjExNTEwOCwyNS4xMjI3MzkgbCAwLDAgeiIgaWQ9InBhdGg0MzE4IiBzdHlsZT0iZmlsbDp1cmwoI3JhZGlhbEdyYWRpZW50MjQ5Nyk7ZmlsbC1vcGFjaXR5OjE7ZmlsbC1ydWxlOmV2ZW5vZGQ7c3Ryb2tlOm5vbmU7c3Ryb2tlLXdpZHRoOjFweDttYXJrZXI6bm9uZTt2aXNpYmlsaXR5OnZpc2libGU7ZGlzcGxheTppbmxpbmU7b3ZlcmZsb3c6dmlzaWJsZSIvPiYjeGE7ICAgIDxwYXRoIGQ9Im0gODkuNjA3OTQ2LDM2LjcwNzQ2MiBjIDAuMDA0MiwxMy44NzM2NyAtMTEuMjQxNDM1LDI1LjEyMjczOSAtMjUuMTE1MTA4LDI1LjEyMjczOSAtMTMuODczNjcsMCAtMjUuMTE5MzIxLC0xMS4yNDkwNjkgLTI1LjExNTEwNSwtMjUuMTIyNzM5IC0wLjAwNDIsLTEzLjg3MzY3IDExLjI0MTQzNSwtMjUuMTIyNzM5IDI1LjExNTEwNSwtMjUuMTIyNzM5IDEzLjg3MzY3MywwIDI1LjExOTMyNCwxMS4yNDkwNjkgMjUuMTE1MTA4LDI1LjEyMjczOSBsIDAsMCB6IiBpZD0icGF0aDQzMjAiIHN0eWxlPSJmaWxsOnVybCgjcmFkaWFsR3JhZGllbnQyNDk0KTtmaWxsLW9wYWNpdHk6MTtmaWxsLXJ1bGU6ZXZlbm9kZDtzdHJva2U6I2MxN2QxMTtzdHJva2Utd2lkdGg6Mi44OTk0Mzg4NnB4O3N0cm9rZS1saW5lY2FwOnJvdW5kO3N0cm9rZS1saW5lam9pbjpyb3VuZDtzdHJva2UtbWl0ZXJsaW1pdDo0O3N0cm9rZS1vcGFjaXR5OjE7c3Ryb2tlLWRhc2hhcnJheTpub25lO3N0cm9rZS1kYXNob2Zmc2V0OjA7bWFya2VyOm5vbmU7dmlzaWJpbGl0eTp2aXNpYmxlO2Rpc3BsYXk6aW5saW5lO292ZXJmbG93OnZpc2libGUiLz4mI3hhOyAgICA8cGF0aCBkPSJtIDg2LjUyMTIzMiwzNi43MDc0OTcgYyAwLjAwMzcsMTIuMTY4NTI2IC05Ljg1OTgwNiwyMi4wMzUwMjggLTIyLjAyODMzNSwyMi4wMzUwMjggLTEyLjE2ODUyNiwwIC0yMi4wMzIwMywtOS44NjY1MDIgLTIyLjAyODMzMiwtMjIuMDM1MDI4IC0wLjAwMzcsLTEyLjE2ODUyNyA5Ljg1OTgwNiwtMjIuMDM1MDI5IDIyLjAyODMzMiwtMjIuMDM1MDI5IDEyLjE2ODUyOSwwIDIyLjAzMjAzMyw5Ljg2NjUwMiAyMi4wMjgzMzUsMjIuMDM1MDI5IGwgMCwwIHoiIGlkPSJwYXRoNDMyMiIgc3R5bGU9Im9wYWNpdHk6MC4xOTYyMDI1NDtmaWxsOm5vbmU7c3Ryb2tlOiNmZmZmZmY7c3Ryb2tlLXdpZHRoOjIuODk5NDQxMjRweDtzdHJva2UtbGluZWNhcDpyb3VuZDtzdHJva2UtbGluZWpvaW46cm91bmQ7c3Ryb2tlLW1pdGVybGltaXQ6NDtzdHJva2Utb3BhY2l0eToxO3N0cm9rZS1kYXNoYXJyYXk6bm9uZTtzdHJva2UtZGFzaG9mZnNldDowO21hcmtlcjpub25lO3Zpc2liaWxpdHk6dmlzaWJsZTtkaXNwbGF5OmlubGluZTtvdmVyZmxvdzp2aXNpYmxlIi8+JiN4YTsgICAgPHBhdGggZD0ibSAzNy42NDE0LDk5LjgxODMyIGMgLTMuNjE3MzYsLTEuNTgwMTEgLTUuMjM2MzcsLTUuMzg3OTYgLTUuMjM2MzcsLTUuMzg3OTYgMi40MzkyNSwtMTEuNzk4MjE0IDEwLjc4NTcsLTIwLjQzMDA3NSAxMC43ODU3LC0yMC40MzAwNzUgMCwwIC02LjYwODc1LDE4LjU4OTc5NSAtNS41NDkzMywyNS44MTgwMzUgeiIgaWQ9InBhdGg0MzU0IiBzdHlsZT0ib3BhY2l0eTowLjIyNzg0ODA3O2ZpbGw6dXJsKCNsaW5lYXJHcmFkaWVudDI0OTApO2ZpbGwtb3BhY2l0eToxO2ZpbGwtcnVsZTpldmVub2RkO3N0cm9rZTpub25lO3N0cm9rZS13aWR0aDoxcHg7bWFya2VyOm5vbmU7dmlzaWJpbGl0eTp2aXNpYmxlO2Rpc3BsYXk6aW5saW5lO292ZXJmbG93OnZpc2libGUiLz4mI3hhOyAgICA8cGF0aCBkPSJtIDkyLjQ1NzM1LDk3LjMyOTU4IGMgMy41Njk5MywtMS42ODQ1MSA1LjIzMTY4LC01LjgwNTYxIDUuMjMxNjgsLTUuODA1NjEgLTIuNzgwOSwtMTEuNzIyMzc4IC0xMS41Mjg2LC0xOS44NDAzMzcgLTExLjUyODYsLTE5Ljg0MDMzNyAwLDAgNy4xNDU5NCwxOC4zODk5ODcgNi4yOTY5MiwyNS42NDU5NDcgeiIgaWQ9InBhdGg0MzY0IiBzdHlsZT0ib3BhY2l0eTowLjIyNzg0ODA3O2ZpbGw6dXJsKCNsaW5lYXJHcmFkaWVudDI0ODcpO2ZpbGwtb3BhY2l0eToxO2ZpbGwtcnVsZTpldmVub2RkO3N0cm9rZTpub25lO3N0cm9rZS13aWR0aDoxcHg7bWFya2VyOm5vbmU7dmlzaWJpbGl0eTp2aXNpYmxlO2Rpc3BsYXk6aW5saW5lO292ZXJmbG93OnZpc2libGUiLz4mI3hhOyAgPC9nPiYjeGE7PC9zdmc+;" vertex="1" parent="1">
          <mxGeometry x="472.5" y="574" width="42" height="42" as="geometry" />
        </mxCell>
        <mxCell id="QUkc8n2lJ9mTT0OE4B8_-77" value="" style="sketch=0;points=[[0.015,0.015,0],[0.985,0.015,0],[0.985,0.985,0],[0.015,0.985,0],[0.25,0,0],[0.5,0,0],[0.75,0,0],[1,0.25,0],[1,0.5,0],[1,0.75,0],[0.75,1,0],[0.5,1,0],[0.25,1,0],[0,0.75,0],[0,0.5,0],[0,0.25,0]];verticalLabelPosition=bottom;html=1;verticalAlign=top;aspect=fixed;align=center;pointerEvents=1;shape=mxgraph.cisco19.server;fillColor=#005073;strokeColor=none;fontSize=10;container=0;" vertex="1" parent="1">
          <mxGeometry x="65.45" y="745" width="44.55" height="81" as="geometry" />
        </mxCell>
        <mxCell id="qKras6gi_AzTFav5Ec5C-130" style="vsdxID=5;fillColor=none;gradientColor=none;image;aspect=fixed;image=data:image/png,iVBORw0KGgoAAAANSUhEUgAAAi4AAAISCAYAAADr8kQJAAAABGdBTUEAALGPC/xhBQAAAAlwSFlzAAAOxAAADsQBlSsOGwAAXkFJREFUeF7tvQd4V1l+mP09n+04a2d33bZ512s7idcljr2O7axb7C92bCdx4nW8cdwd787uzNCr6DB0BoY6QxuKUANGIAQI0bvovQkEolfRhQQCUaTf9//dexhgdI5Q+Zdb3vd53mf82HgG/cs5r+4995z/R17inXfeQURERAykCuGCiIiIoVAhXBARETEUKq8NFwAAAIB042oSwgUgQDQ0NMjTp0+lvv6xPHz4UO7fvy/V1ffk9u07cuPGTbl2rUouXrwk586dl8rK01JRcVLKy8vl8OEjcvDgIdm7d5/s3r1Htm/fIWVl22Tjxs0JN8natetk1ao1nitWlEpJyQpZvnyFFBcvlSVLihMulUWLiuSjjxZJYaGv/s8FBQuS7oIFHyX+/Ys//u+oRUX+3+H530P/77NmZcuAAe9I376DXrFHj77SvXtWu83KGvjKv7dfvyEyZMgIz3feGSmjRo2T0aPHyZgx42XChCmeH3wwQ6ZPn+X93XJy8iU/f2Hi71oky5atSLymK2Xduo2yadPWxOu/K/FeHEi8L0cT79EpOXPmrPe+6fun76W+r/r+PnnyxHvPAaApriYhXACShE5AOhE9evRIamtr5c6dO3L9+nW5fPlKIjTOycmTp+To0WNy4MBBLy62bduemOQ2y5o1a6W0dGVi8lvuTeA6kc+fvzAxKc6X3Nx8mTcvV+bOnRcrc3NzZfLkD+SNNzrI977XKTK+/XZX6dy5h3TrliW9evX3wmzo0FFeII0fP0WmTp0pc+bkJN7/wkRULpfVq9clPic7ZP/+g3L8eIWcPXtOrly5mvhs3ZUHD+q8wCV8IKq4moRwAbDw7Nkzb1K4f/+BN0lUVV2XCxcuyqlTp+TIkaOyb99+76qGXs1YvXqNdwVDr1wsXFgoBQXzE7+N51knZGyZ+vpNmDA5cuGSDN96q4sXP92795F+/QZ74TN27ETvalBubkEifpcmPpNrveA5dOiIVFae8eJZP8d6lefp02fmUw4QbFxNQrhAbNCrITpw662X69dvyMWLF+XEiYrE4H5Ydu3aLZs2bfEiZPnyEu92hV710Cse2dk51skVU6eGy3vvTSRckuSbb3ZOxE5P6dWrnwwePNy7/aVXd/LzF3i3uTZu3OJd1Tl1qtK7oqPfEb1y2NjYaL49AOnH1SSEC4QeDZK6ujrv1owOurr2Q6+K6O0YjRFd17F06XJvzYbefonjrZewSbhkTr2i06VLL+nTZ6AMHz5GJk5831vPo4Gj63f0Ko7esrp581bie/eQW1WQMlxNQrhAoNFBUQfH27dvy+XLl73FqLpGRBee6toQXReiQZKXV8CVkQhJuATfjh27S8+e/bzFzOPHT5bZs+fJkiXLZMuWMikvPy4XL16We/fuyePHj823GaB1uJqEcIGMo1dMdDGrriM5ffqM93SMhsmqVau9xap6lcQ2uWF0JVyioV650ae19NbUtGkfSkHBR7JixSpv/c2xY8e9dWPEDbhwNQnhAmlB75XrPfNbt257j/LqVZPNm7dISUmpt6BVJyrbBIbxlHCJj5+Mm8LCJbJ+/UbvltT58xekurra++UG4oerSQgXSCoaKHpr58aNG1JZWek9faOD0NKly7ynbWyTFOInJVzwuRo2+tj4e+9N9q7YrF27wYsavRWl++GwgDi6uJqEcIE2oxul6WXeS5cueU/mbNiwUYqLl3nrTWyTEWJLJVzwdeqTUrqR4LBho70rNbq+ZufO3d7C4ZqaGjNKQZhxNQnhAi1C70HrAlldg7J7915vYazubsoTOpgKCRdsj1279paRI8cmPks53iZ+uvGjboHALadw4WoSwgVeQb/Y+lixPlK8Z89eb2dX3dVVt2m3TTCIqZBwwWTboUM375aTPt6tQbN4cbGUlW2Xc+cuePs7QfBwNQnhEmP0UWO9pKor+/fvPyBr1qzzHi22TSSI6ZRwwXSq51ZNnjxVlixZLgcOHPLOBdPdsyGzuJqEcIkR+kXU2z0VFRWydWuZd8CeThC2iQMxkxIumEn16ozuT6N702zYsFlOnz7rnQ0F6cXVJIRLxNGzdnQb7y1btkpR0RLrJIEYNDVcxo4dL9/5ztvWiQUx3epxCXpCuJ4Cruc/ETKpx9UkhEsE0VtAeg6PHgDIEz4YRjVc3n33PcIFA6ue7j19+izvSaba2vtm9IVk4moSwiVC6JM/emigPpJsmwwQwyLhgmFSI2b+/EJvvSAkD1eTEC4RQNeuaLAsWrTYOgkghk3CBcOoHlCpp26fPFlpRmdoD64mIVxCzq1bt7yDBm2DP2JYJVww7M6YMVsuX75iRmpoC64mIVxCil5l0d1qc3PzrQM/YpglXDAK6nEFW7duN6M2tBZXkxAuIeTOnbuyYkWpdcBHjIKEC0bJyZOneaffQ+twNQnhEjJ0y32eFMKoS7hg1OzWLUt27NhlRnJoCa4mIVxCgm7Fv3fvPusgjxg1CReMqvr0EY9PtwxXkxAuIUCPbl+6lAW4GB8JF4yy/fsP8U6xhuZxNQnhEnD0LKHFi9nxFuMl4YJRt1u33lJefsKM9GDD1SSES4Cpq6uToqJi68COGGU1XMaMIVww2nbu3EOOHydeXLiahHAJKLqmZfnyFdZBHTHqariMHPku4YKRt2vX3nLu3Hkz8sPLuJqEcAkgjY2NsmnTZuuAjhgHCReMk336DPRO7odXcTUJ4RJAzp07Zx3MEeMi4YJxc+zYCd7GovACV5MQLgFDbxEVFbEYF+Mt4YJxdNeuPWYmAMXVJIRLwNi1a7d1IEeMk4QLxtFevfrJ3bvVZjYAV5MQLgHixo2bkp2dYx3IEeMk4YJxddasuWZGAFeTEC4BYuXK1dZBHDFuEi4YZ48frzCzQrxxNQnhEhD0+HPbAI4YRwkXjLOjRo3zni6NO64mIVwCgK4kZ0t/xBcSLhh3y8q2mxkivriahHAJALr5kG3wRoyrhAvG3X79hnhPmcYZV5MQLgFgzZp11sEbMa4SLoidZP/+g2aWiCeuJiFcMkxtba03SNsGb8S4mpubJyNGjCFcMNa+//50M1PEE1eTEC4ZRg/Ysg3ciHFWw2XYsFHy7W8TLhhfO3XqIbdv3zGzRfxwNQnhkmHWruU2EeInJVwQfbdt22Fmi/jhahLCJYPU1z+W+fMXWgduxDhLuCD6zpgx28wY8cPVJIRLBqmqum4dtBHjLuGC6Nu37yDvl9w44moSwiWDlJeXWwdtxLhLuCD6vvlmZ7l48bKZNeKFq0kIlwxSVrbNOmgjxl3CBfGFO3fuNrNGvHA1CeGSQUpKSq2DNmLcJVwQX7hoUbGZNeKFq0kIlwzBwlxEt4QL4gsnTfrAzBzxwtUkhEuGuHHjpnXARkTCBfFls7IGJH7ZrTezR3xwNQnhkiEqK09bB2xEJFwQX/att7rI1avXzOwRH1xNQrhkiL1791kHbEQkXBA/6cGDh83sER9cTUK4ZIi1a9dbB2xE9A9ZHDJkBGcVIRpLS1eb2SM+uJqEcMkADQ0NUlRUbB2wEfF5uAwnXBCNs2ZlmxkkPriahHDJAHV1dZKbm28dsBGRcEH8pCNHjpXGxkYzi8QDV5MQLhng+nW2+kdsTsIF8VV79Ojr/dIbJ1xNQrhkgFOnKq2DNSL6Ei6Ir6pb/1++fMXMIvHA1SSESwbgiSLE5iVcEJt64MAhM4vEA1eTEC4ZYP36DdbBGhF9CRfEpq5cucbMIvHA1SSES5rRxVXFxcusgzUi+hIuiE3Nzs4zM0k8cDUJ4ZJmHj58KPn5862DNSL6Ei6ITR09elysnixyNQnhkmZu3uSMIsTXSbggNrVnz35SV/fQzCbRx9UkhEuaOXv2rHWgRsQXEi6ITdUzi65dqzKzSfRxNQnhkmYOHTpsHagR8YUaLoMHDyNcED9hefkJM5tEH1eTEC5ppqxsm3WgRsQXargMGPAO4YL4CTdt2mpmk+jjahLCJc2sXLnaOlAj4gsJF0S7ixYtMbNJ9HE1CeGSRp49eyaLFy+xDtSI+ELCBdHutGkfmhkl+riahHBJI7oaPC+vwDpQI+ILCRdEuyNGvBubR6JdTUK4pJHbt+9IdnaOdaBGxBcSLoh2e/ceII8ePTKzSrRxNQnhkkYuXrxkHaQR8VUJF0S7HTt2l5s3b5lZJdq4moRwSSMnTlRYB2lEfFXCBdHt6dNnzKwSbVxNQrikEU6FRmyZhAui2z179plZJdq4moRwSSMbNmy0DtKI+KqEC6Lb0tJVZlaJNq4mIVzSSElJqXWQRsRXJVwQ3eblLTCzSrRxNQnhkiZ0D5dFi4qsgzQivirhguh2ypRpZmaJNq4mIVzShD6+lp8/3zpII+Kr5uTkSr9+gwkXRItx2cvF1SSES5qorq6WefNyrYM0Ir6qflf69h1EuCBa1O9Gff1jM7tEF1eTEC5p4vr169YBGhGbSrgguu3cuaf3y3DUcTUJ4ZImzp8/bx2gEbGphAui2zff7CyXL18xs0t0cTUJ4ZImjh8/YR2gEbGphAti81ZUnDKzS3RxNQnhkiYOHjxkHaARsamEC2LzHj581Mwu0cXVJIRLmmDXXMSWS7ggNu/u3XvN7BJdXE1CuKSJXbt2WwdoRGwq4YLYvFu3bjOzS3RxNQnhkibKyrZbB2hEbCrhgti8a9duMLNLdHE1CeGSJjZt2mIdoBGxqYQLYvMuW7bCzC7RxdUkhEuaWL9+g3WARsSmEi6IzZufv9DMLtHF1SSES5pYs2atdYBGxKYSLojNO336LDO7RBdXkxAuaaK0dKV1gEbEpmq49OrVLxEuHayDNmLcHTdukpldoourSQiXNKCHYS1dusw6QCNiUwkXxOYdNmy0NDQ0mFkmmriahHBJA8+ePZNFi4qsAzQiNpVwQWxevZUa9YMWXU1CuKSBx48fy/z5C60DNCI2lXBBbN5u3bLk/v37ZpaJJq4mIVzSQF3dQ8nLK7AO0IjYVMIFsXk7duwuN2/eMrNMNHE1CeGSBmpqaiQnJ886QCNiUwkXxObVE6IvXrxsZplo4moSwiUN3LlzR7Kzc6wDNCI2lXBBfL2VlafNLBNNXE1CuKSBGzduWgdnRLRLuCC+3kOHjphZJpq4moRwSQNXrlyxDs6IaJdwQXy927btNLNMNHE1CeGSBs6fP28dnBHRLuGC+HrXrdtoZplo4moSwiUN6H1I2+CMiHYJF8TXu3x5qZlloomrSQiXNHDiRIV1cEZEu/Pm5UjPnn3ljTcIF0SXhYVFZpaJJq4mIVzSwNGjx6yDMyLazc6eJz169CFcEJsxJ6fAzDLRxNUkhEsaOHjwkHVwRkS7hAvi6505c46ZZaKJq0kIlzSwd+8+6+CMiHYJF8TXO3nyNDPLRBNXkxAuaWDXrt3WwRkR7RIuiK933LhJZpaJJq4mIVzSwLZt262DMyLaJVwQX++oUePMLBNNXE1CuKSBLVvKrIMzItolXBBf79Cho6ShocHMNNHD1SSESxrYsGGjdXBGRLuEC+LrHThwqDx9+tTMNNHD1SSESxpYu3addXBGRLuEC+Lr7dt3kNTX15uZJnq4moRwSQOrVq2xDs6IaJdwQXy93bv3kbq6OjPTRA9XkxAuaWDlytXWwRkR7RIuiK+3W7csuX//vplpooerSQiXNFBSssI6OCOiXcIF8fV27txD7ty5a2aa6OFqEsIlDZSUlFoHZ0RsanZ2TuKf2d5vk4QLolsNl9u375iZJnq4moRwSQPLlpU0GZwR0a6Gy5w52dK1a2/CBbEZ3367q1y7VmVmmujhahLCJcXoM/ZLlhRbB2hEbCrhgtgy33qrC+Hi+kPQdvxwWWodoBGxqYQLYsvUcLly5aqZbaKHq0kIlxRDuCC2TsIFseWeO3fBzDbRw9UkhEuK4VYRYuskXBBbLuHi+EPQdnQ75sLCxdYBGhGbSrggtlzCxfGHoO344bLIOkAjYlMJF8SWe+7ceTPbRA9XkxAuKYZwQWydhAtiyz158pSZbaKHq0kIlxRDuCC2TsIFseVWVBAu1j8EbYdwQWydhAtiyyVcHH8I2g7hgtg6X4RLL8IF8TUSLo4/BG2HcMGoOW9e7ivm5uZbzcsrkIKCBa02P3++99/p2bOvdOrU3TuP5YU9pWPH7t7GW7rduf7TNpgjxkXCxfGHoO0QLpgKnwdDQcF8mT9/YeIztliKiopl6dLl3mnkK1euljVr1sqGDRtly5atUla2XXbt2i27d++VAwcOysGDh+To0WNSXl6eGPhOSmVlpZw5c1YuXLgo589f8HbjvHbtmueNGzfl1q1bcvOm/vO2VFdXv+Q971j9+/cfNPHBgwdSX1/fauvq6rx/tx4ed+eOevcV9e9z9ar+3ao89e+sj4Sqp05VegP58eMViZ/xsOeuXXtk+/ZdsnnzVlm/fpOsWrU28RqtlOLi5YnXrSjxGn4kOTn5Mnv2PJk+fZZMnTpT3ntvsgwfPkYGDHgnEVD9pHv3rI/VeNJosk0iiOmWcHH8IWg7hAt+0pycPO+qwoIFH8nixUu8Qzg1NNat2+BFxo4du2Tfvv1y+PCRxAR8IhEVpz+OievXr3uT+b17GgwP5NGjR/L48WPvc6abHTY2NppPHrQXfS2fPHmSCKmHiQirMz7w4kmD6ezZc977c+DAoZciaW/iPSxLvJ9rZNGi4sR7XeBF0Zw5OTJt2ocyadIHMmrUOBk4cKj07TtIevTo+3EQ6WnYnTr1kDff7GydoBBt6i8eUcXVJIRLitEJ5aOPCJeo+jxCNE6XLl2WmLBWJX6r35D4DX+H7N9/wLuqoVcBLl68KFVVVXL79u1EdNTIw4cPveB49uyZ+aRAnNBx4fnVpedRpFeu9IrW5ctXErF6RsrL/Sg6dOiI7N17wAui0tLVidgtltzc+R9fJZowYYqMGDHm4xh6WV3gzO20aHv69FnzqYoeriYhXFKMTkyLFrFzbpjU2zB+jCz2roboLRedNPQqyLFj5d4tFb36cfPmLampqfGueuhExNUOyCR6dci/3fbYWO99PvXqkG5Spvt96G2F5+7du9+7yrd0aYl3yyw/X9cY6W3HJTJrVraMGzdJhg0b/XEAcSUomOrV2KjiahLCJcVwyGKw1CskuiZEz49atWq1bN3qB0l5+XFvANBbMbq+Qq+IaIwAxBmNcY0gDSC9EvQ8fvbvPygbNmxOhP0Kb43QjBmzZezYCYk5Y6RkZQ30bnnZJllMvmz57/hD0HYIl/SqC1b1tk1JSam3MFUXo+rtGv2NU6NEB2D9TVTfFwBILvq90iuQektUF03r+gtd96NrfnRB9IIFhd7i57FjJ8rQoaOkd+8B0qEDC53bI1v+O/4QtB0/XDgdOhnq47W6mFWvlGzbtt17MkYXR54+fUYuXryUCJMb3oJVrpQABJ/nkVNVdd27aqBrNfSXDF3PowvUN23a6j0BpoucdXGzPuk1ZMgIL3b00XjbJB439fbdxYuXzSsaPVxNQrikGP1yFhcvs07E2FRdX7JwYaF3xWTz5i3eo7v6G4WuJ9GFjCxmBYgvz2NHn+zSKzr6ZJcuXt64UW9blXprdPSKzujR42IRN7rwWtcwRRVXkxAuaUD31bBN0nFWb+ksWlTkLXzduXOXd+VEF7zqY766yBAAoD3ofj+HDx81T2OtSvxCtMh7JH306PekX7/B0qVLr9A/caV/f93TKKq4moRwSQPLl8c3XHT7dt2vZMWKUm8TNH0qRxf56aOfXD0BgEygC471lyS9WqG3qPQJK92ccM2a9d5iY38dzgQZPHi4t79OUK/e6C7SejU6qriahHBJA6WlK62TetTUqyi6e6suin1+i0c3S9P9SgAAwob+clVbe9/bxVmfOtQrOLr2ZsmS5d6TVM/X3XTv3seLCFtcpFINKr1tFlVcTUK4pIFVq9ZYJ/owq48VFxUt+ThSdHGsXkXRe9AAAHFB40Y3ENQrH7rIWDcN3L59p/cklW4UOHnyVBk5cqy3qFiv3iRzPxy93aVPSkYVV5MQLmlg9epwh4ve7tFN9HSzKj9SLnpfFm71AAC0DF1UrL/cXbp02Xt6asuWbYlf/pbKzJlzvCs3ei5Wazf60xDSaIoqriYhXNKAXpWwBUFQ1Vs+eljfjh07vV1i7969S6QAAKQQfSihpqbWWwPoPxa+3zviIS9vgUyePC0xH4+UPn0Geod8vgiX3l4QRRVXkxAuaWDjxk3WQAiKunhWrwrp2TrPb/kAAEBwePlRcP2F8siRY94Gf1E+asTVJIRLGigr22YNhkypZ/CsX7/Rq3rdTVZX2AMAAAQJV5MQLmlg27Yd1oBIlwUFC7wFwrrTrO5twD4p0CaeJT43DU/9fz6uE6l/8OKfdXebev+WyN1L7ffORZF71+z/jUe1/t/h5b/P87+jysGXAKHF1SSESxrYvXuPNShSoT7toxu76YZLe/fuk8uXL3sHBkKI0cn3aX1iYr4v8uCOSM31xIR+WeTWeZEbp0WqKkSuHBW5dFDk/D6Rs7tETm8TOblJ5MgKkX2FIrvyRLbMENk4RWTVaJHSESJL+okszhIp6CCS/5bInL8Xmf23IlP/XOT9PxOZ/F9F3vsD37H/SWTkryf8Df+fQ35JZPAvJPxF/599vyrS56c+4VdEen4+Ofb+kuXfn3DAvzV/F/P30P/Z+zuav+e7vysy/v/zf4ZJf+L/XOqsv/Z/1rn/mPj53/Zd3DvxmvQVKRkqsnKUyIbJIpumimzPTrx++SIHi/3XU1/Xyq0iZ3aKnNsjcmG/yOXDIlfL/ffi5hn/vdHoqqnyA66u2g8rfR+JKYAW4WoSwiUN6NoRW2QkS33iR085rqw8zdM+QUWvAujEdf+2P6lpaJzZIVK+RmTPApHN0xJBMUakeIDIgk7+hDr1m4nJ9o8Tk+/viAz/usigr/mTddZPivT6gkiPz4l0/3GRrj8i0uUzIp3/FWbKLp9OvA+fFen2o/57ou/N8+DK+rIfdhpW+j5qTE34I5EP/ofIh/9HJOc7Igu7+u+9BpPGpcbS/kUix9clInS7H6XXT/nBqvGqEfuMW7wQbVxNQrikgcOHj1iDoz0WFy+VXbt2e1dUOFQwA+htiIc1ItVX/N+0NUKOlIrsmCeydrz/m3vOGyLT/5c/SY36zUR4/HwiPL7iT2qEBrbWbj/mB6vGq36Whv+ayNjfE5n8p4nP2V+KzPu2yKJeIiuGiayflIifuSIHikROrPevwl055kezxrOGj8Y0QIBxNQnhkgbKy49b46M16iPKeiqyLqjV3WjZ6C1FPHnk/0arl/v1NsCxVf4EoLdXFnQWmfm//RAZ8R9E+v9rfyLR37RtEw1ikNRY1mjWeNbw0Zge/5/9W4PZ/ySysIvI8iEi6yb4V3wOLfVvi+ntR70lWXvDX1Ok0Q6QBlxNQrikgZMnT1lj5HXOn7/Q2wPm1KlKqa1NDBjQPnTA1SjRS+56hUQvxa99z/8tVdc8aJAM+1X/sr5e7rcN/ohxVL8Peoty4M/50f48eOb9s0hhd5EVw0U2vi+yZ75/hUdjR79nuh6L2IE24moSwiUNnD171homNvXKyvr1G7z/HxbVtpLGBn8hpK4f0bUBeqVEF1rmfldkyn/zF2tqlOgld9vgjIjJU79nGju6gPp57OitU72FqrdS14z1v6NHV/q/SOgtV731+vCev4gZYo+rSQiXNHDp0iVrpDxXnwRas2adt5kQV1Zegw5o+misPslxeLl/L7+whz8gjv6Gf/+f9SOI4VNvueqt1/4/6y9i1qfBpv2F/4tHcX9/7djugsQvJWtFzu8VuVEpUnvTfwSeJ7UiiatJCJc0oEenfzJW9PwffWT5+PETkT4kq83o5eWqk/4gpY+l6vqSKf/dv5WjT2rYBj5EjI/eFZ0v+4/Cj/lt/6rqnH/wb/3qE3o7cvyn9s7tfjVyIDS4moRwSQO66dvzYCkuXuZtBKfn/0ACXXNy6ZDIgSX+YKP3zHXPDb28rI+W2gYsRMTW+DxydJ8ffRJLH0XXsUb3MtIrObo2Rxci62PnuuGh3q5iXU7GcTUJ4ZIGqqvvSVnZdu/KS2yfBtLfdPRJnedXUPQpBh1AdM2JbaBBRMyEuv+O3q7SNXET/4u/cF8XIOseO9vm+E8a6q1qfbRcNxZkP52U4WoSwgWSj15F0S+23o/W32j06YN3/h1P6iBidNRHy/v9tL+fjgaObiaogaNXjvVx8mOr/aerdNNAvfXdwMagrcXVJIQLtA/dyOryEX9LdF2Hogvq+v2M/YuOiBg3dcGx3voe9R/9dXp6i2rpQP/Ksx7HocdH6BNVejzEE54kfRlXkxAu0DJ0u/rngaJfOn2kUc+y0W3odbtz2xcWERFfrz5RpQ8dDP1lkQl/6D8lqbfT53f0Hx1fOVJk64f+o+O6MabeptKrOBF/msrVJIQL2NGTdys2+vd1Z3zLX7lPoCAiZl69TaVXcfTcK31kXA8J1aMeymb7t6j0Vr0uMg553LiahHABH70Pqx/4ksR7rpczdXGa7QuDiIjBVxcZa9zoo+J6BUfX36wZ5689PLnZP7tKj3EI8O0pV5MQLnFFa/zQMpGiPv6Olr2+aP/wIyJi9NSNOnVnY+/21B+JzP47/2EKPbpBb0npVRv9hVbXMWYIV5MQLnFBP3y6rfbywSZUvmD/MCMiIqofX7X5LZH3/0wk703/IE59akrPpNK1NinE1SSES1TRR++unfDPApn7j/4aFdsHExERsTn1irzuWj75T/31NHo4rR65oqeGpxBXkxAuUUIPGNTNkXTLaz23p+uP2D+EiIiIL6s7C4/6TZHpfylSPMBf6FuxwT96RXcSzgCuJiFcwo7eg9SrKrq7I/unICKiS10iMPTf+w9g6L5bekjt4RL/2BU9y6nhqZlYgoGrSQiXMKKX58pm+Y8p6+Iq2wcUERHjqc4LuuGdzhF6svaOeSJnd/m/6IZokztXkxAuYeHacZF1E0Um/TFb5yMixl19KkgXzuqhtPO+7R81cKDIfxpIH3MO2NWTtuBqEsIlyDyPFd1JkfUqiIjxUwOl/782gfLPIqvfFTlY7O/D8rDGTBbRxNUkhEuQeFr/4kkgfa6eWEFEjL56Ff35eUaT/sR/7HjdBH/9iRcomVkcm2lcTUK4BIFLB0WWDfJPGSVWEBGjabcfFRn08/4t/4VdRDZ9IHJ8nb9ukROkm+BqEsIlU1RfEdk60z8OnTOAEBGjpR6aqBu35X3Pv+WvW1VUVfgH1kKLcDUJ4ZJOtKb14EI9WbnPV+wfdkREDI89fsLfNn/qN/2TnHfm+ic411SJNDaYwR/agqtJCJd0oJcA9Ujyd3/H/sFHRMTgqzvI6jie/5bIxin+bZ6bZ0P1iHGYcDUJ4ZJKbp7xjxof8kv2LwEiIgbPrp8VGfQ1f4v7wh4i2+aInNkpUn1VpLHRDPCQalxNQrikgsoy/7E1PaDK9qVARMRgqAtm9Rwe3X18xXCRQ0tFrpZn9FRk8HE1CeGSLPRRZt38Rwvd9uVARMTMqr9Mjvx1kdl/J7JqtP+4sZ7Fo+M3BA5XkxAu7UWfr9eng/RwKtsXBRER068+1fPu74rkftdfj6IHBt65KPLsiRm8Iei4moRwaSvPHotsmMz6FUTETKtXUvSXx+x/8h89Pr6W9SgRwNUkhEtr0UuKu/J4QggRMRNqpIz+hn8+j/7yqFtM3L0UibN54FVcTUK4tBT9UuwrJFgQEdOlLpzVPVJm/pW/JkVv92iksD9KLHA1CeHyOu5d878weq/U9sVCRMT2qWf1DP/6i0WzO+aJlK/xF86yR0pscTUJ4eJCN43TQ670VE7bFw0REdtm/5/1z+sp7i9yeLl/Vg9P9sAncDUJ4WJj70KREf/B/oVDRMSW2+sL/hXrgrdFymaLnN8rUnfXDLYAblxNQri8jO50+8H/tH/5EBHx9eqaFL3ls3a8yIn1IncvmwEWoHW4moRwUfS5/s3TRPr9tP2LiIiITX1+NWV+R5Ht2SKXDoo8rjMDKySDhoYGuXfvnpw9e0527twtixYVy5UrV83/Ndq4moRwObNDZPx/tn8pERHRt8un/X2rZv5vkVVj/L1S9AkfSBq1tbVy7twF2bVrryxZslymTftQhg4dJV279pbvfa/Tx168GI/X3dUk8Q0X3fG2qI9/mJbtS4qIGGf1UeThv+afu7YzV+TyEa6mJIn6+nqpqrouhw8flTVr1kt2dp6MHv2edO+e9Uqg2OzWLSsROPE4R8nVJPEMF33MTs+rsH1ZERHjaNaX/avPi3r5e1bpo8i6Qzi0mcbGRrl9+7ZUVJySTZu2SEHBQhk3bpL06TNQ3n67qzVMXueQISPk2bNn5r8QbVxNEq9w0Uec9Utp+9IiIsbJwb8gMuNbImvG+rvP1lSZgRLawqNHj7y1JwcOHJIVK1bJzJlzZNiw0dKpUw9rgLTViRPfN//F6ONqkviEy+ntIqP+o/0LjIgYdXV9yof/x9+fSsfD+njcbkg2ehXl7t1qOXWqUjZt2mquokyUrKyB8tZbXayxkUzz8xeYv0n0cTVJPMJlzTj/fq3ty4yIGDW7/oi/PiXnDX/vlEuHEqHywAyI0FKePn0mt27dlvLyE7Ju3UZvLcqIEWOkS5de1qhIh7omJi64miTa4VJz3X9Mz/bFRkSMgvqAwaCfF3nvD0QWdBbZM1+kqoL1Ka2grq5Obty46T1yvG/fAVm6tESmTp0pgwYNk44du1sDIlMePHjY/K2jj6tJohsuuo30wJ+zf9EREcOqXj0e+Rv+TrT6tM/Vcq6mtAJ9IufcufNSVrZdFiwo9G7z9OrVTzp06GYNhSCpt6KuXr1mfpLo42qSaIbLylH2LzwiYtjs9mP++rwFnUT2LDBP+zwxgx00h27cVll5xluLkptbIKNHj5Pu3ftYoyAM9uzZV+rq4nPopKtJohUuD2tE5v6j/cuPiBgWddv87P8rsitP5EalSEM8Hn9tD3q758KFi7J9+06ZP79QRox4t8nGbWFX19fo4uC44GqS6ITLrXMi437fPgggIgZZfeJnzt+LbJnhL6R9Ep/fqtvCy5Git3vGjvVv99gm+yg5Y8Zs8wrEA1eTRCNczu329ySwDQiIiEFT19/N+muRjVNELuxnR9pmePLkiVy/fsNbNLtw4eKP16TYJvaoW1y83Lwq8cDVJOEPl2OrRHp/yT44ICIGwZ6f95/6Ke4vcmqLf1sbmqAHCupOs0ePlktp6WqZPn2WDBw4VDp0aNsus1FTD1mME64mCXe46GN/7M+CiEFT91EZ9ZsiC7uI7F8kcuu8GbTgZR48qJPKytOyYcNmmT17nnegYLJ3mo2SZ86cNa9cPHA1SXjDZeuH/mmltkEDETHd6joVPZBwe7bItRMiDU/NYAWKbuamt3z27z8oRUVLZcKE96VXr/7WCRqb2rlzT6muvmdezXjgapJwhsvuAvvAgYiYLnv8hH/7Z/lgf50d61Reoaam1tsWf926DTJr1lwZPHh4KPZKCar6+sXlcMXnuJokfOFyZgdrWhAxMw77VZH8t/zb1Dfjddm+OfQR3Zs3b8mhQ0eksLBIxowZL927Z1knYGyb778/3bza8cHVJOEKF/2tps9X7AMKImKy7fNTIlO/KbJhsv/0z5NHZjCKN3oSsj6OvGVLmXd+j56CHLSt8aPm4sXF5tWPD64mCU+4HFkh0ver9sEFETEZDvqav5/Kpqkix9eJ1FSZASi+1NbWypEjx2TZslKZNy9fJk583zsJ2Ta5Yurcs2efeUfig6tJwhEuJzeJdP9x+0CDiNhW9anEsf9JZNkgf5x5GK/Fj5/k+S0fXUC7aFGxt2dKmLfIj4pvvtlZLl++Yt6l+OBqkuCHy5Vj/uVa26CDiNhaB/wb/6qKPv2j5/7EGN3cTSdE3YFWz/Lhlk8w7dmzn7dbcNxwNUmww6X2psjwr9sHH0TElqqPKn/UTaR8jUjdXTPAxI/noaInI8+cOUcGDHjH+23eNllicBw9+r1YnVH0HFeTBDdc9PTTqX9uH4QQEZtTN4DTW0DLh4hUlsX2UeWHDx/K2bPnZP36TYRKiNW1RXHE1STBDZclfe0DEiKiTX3icMa3RLbOFKmqMANJvKitvS8VFadk5co13uOzWVkDrBMhhsv16zeadzheuJokmOGyr9A+MCEivqwerqr7quxfLHLvmhlA4oM+lqxXVHSTt/ffnyE9e/a1TnwYbo8fj2eIu5okeOFyo1Ik6yftgxQioq5X0Vg5WBy7p4Dq6h7K6dNnZPXqdV6o8Fhy9NXF0rdv3zGfgHjhapJghcuzxyIT/sg+WCFifB356yKLs0QqNorU3zcDRvTRKyqvhgq3fuJmHLf6f46rSYIVLqUj7IMWIsbLrp8VGft7IiuGi5zf6y/WjwF6EOGVK1dl27YdMmdOjvTrN9g6mWF8nDbtQ/PpiB+uJglOuOjgpJtB2QYxRIyHY35bZN0Ef/+mGNDQ0CBVVddl+/ZdkpOT7/12/dZbXawTGMbTFStWmU9L/HA1SXDChVtEiPFz4M/53/3nV1Yaon1J/MGDOrl06bLs3btf8vMXytCho6RDh67WCQtRPXz4qPn0xA9XkwQjXPSkVdughojRU09YXtxb5NQWkYc1ZhCIJo8fP/ae+lmzZr1MnjxNevXqxz4q2GI7d+4hd+9Wm09T/HA1SebD5cEd/2Az2wCHiNHw5ViJ8AnLeuvn6tVrsnXrdpk1K1v69x9inZAQW6JekdPPVFxxNUnmw6W4v32gQ8Rw2++nRbL/SeToykjHyv379+XAgUNSUODf+mGNCibLuXNzzKcsnriaJLPhcv2USI/P2Qc9RAyfWV8WmfU3/iaSNdfNFz1a6KOpet7Ppk1bvCc+evXqb510ENtrXHfMfY6rSTIbLvO+bR/8EDE89vy8yPS/FNmZK1IdzaP3dZ3B/v0HJT9/gQwZMoJ1KpgWT52qNJ/AeOJqksyFy8UD/kFotoEQEYNtl8+ITPoTkS3TRW6dM1/q6KDrCs6dOy+rVq2VCROmSNeuva0TC2Kq1M9cbW2t+UTGE1eTZC5c5vy9fUBExOCq2+0v6ilyYb/5IkcHfVS5vPy4FBYu8daq2CYTxHQ5atQ4aWxsNJ/OeOJqksyEi24uxWZziOGw71f927pHVkRuu/1r16q8J4BmzJjNWhUMlLrPT9xxNUlmwqWgg32ARMRg2O3HRD74nyI7ciJ16nJ9fb2cPHlKlixZJiNHjpW332bzNwym27fvNJ/a+OJqkvSHy93LIr2+YB8sETGzjvktkdXvilRF5xh9vQV09Gi55OQUcPYPhkJd/K07LMcdV5OkP1zWjLMPmIiYGfWpoFl/7Z+8HJEt92/evOX9xjpz5hzp3ZsTlTFcZmUN9K4Oxh1Xk6Q3XB7eExn8C/bBExHTp+5WvbCryN6FkXgqSA8q3LKlTHJz58vYsROkU6ce1gkBMQzqmisISrjsLrAPooiYenX7ganfFNmzwD9qI+RorKxcuUbGjBnPWhWMlBs3bjaf8njjapL0hsvUP7cPqIiYOof+skjJUJGr5eaLGE50b5WLFy99HCucqoxR9cyZs+ZTH29cTZK+cLl1XqTHT9gHVkRMvpP+WOTQMpHHdeZLGD6ePHkilZVnpKhoqbe3CjvWYtTVE8QfPnxovgHxxtUk6QuXLTPsgysiJk892HBBJ5EzO8wXL3xorJw/f8E7tHDgwKHWwR0xqk6c+L75JoCrSdIXLtwmQkyd437f336/psp84cLF06dP5dq1a7J79x5ZvLhIJk16X954o4N1YEeMssuWlZpvBbiaJD3hoqfE9v6SfcBFxLbZ64v+jrYnN4mEcGtwvbJy6dIl2bFjpyxaVCRz587zzMnJJVwwtpaXnzDfEHA1SXrCRe+z2wZeRGy9w37V3yRO142FjPr6x3LhwkXZtm27FBYu+jhWXpZwwbjapUsvqampMd8WcDVJesKlsLt9AEbElqu72m6bE7rFts+ePfOurJSVbZOFCwutsfKyhAvGVd2DCF7gapLUh4vuxKkDrm0gRsTm7fpZkRnfEjm2KlEAT8yXKhzcunVL9u8/IEVFxdZAcUm4YFxdvLjYfHtAcTVJ6sPlzkUeg0ZsrXoic2EPkUuHzBcpHNy9e1cOHTosy5eXWKOkJRIuGFcPHTpivkmguJok9eFyeLl9YEbEV+3+4yJjf09k7XiR6qvmCxRsdIHt7dt35PjxE7Jy5SqZNy/XGiOtkXDBOKp7FF25Eo7vfbpwNUnqw2VJP/sgjYi+fX5KpLh/qE5kvn79huzYsUsKCxdb46M9Ei4YR9l4rimuJkl9uLz/Z/bBGjHuarAs6hWap4Pq6uqkouKkrFq12hocyTInJ08mT/5AvvvdjtYBHjGKTpo01XzT4DmuJkltuDxJ1OOQX7IP2ohxddDPi6wcJVJ9xXxRgov/RNBl2bx5qxQULLCGRrIlXDCOrl691nzr4DmuJkltuNy+wMJcxOcO/zWRTR+E4mRmXWTrPxG0xBoXqZRwwTjKwYpNcTVJasPl9Hb7AI4YJ9/9XZGduYHff0U3hzt9+oysWbM2KYts2yrhgnEzK2tA4vtXb76J8BxXk6Q2XHYX2AdyxDg44Q9F9i8K/P4rtbW1cvjwEedOtumWcMG4OX36LPNthJdxNUlqw2XNWPuAjhhl9ZaQBkuAzw9qaGiQy5cvy8aNmyUvr8AaEJmScMG4uWnTFvPNhJdxNUlqw4Wt/jFOarCUJX5zqn9gvgDB4/79+97VleLipdZoCIKEC8bJt97qkvglIvgL9TOBq0lSGy6z/9Y+wCNGST30MODBcvXqNdmyZWvgrq7YJFwwTg4ePNx7eg+a4mqS1IbL5P9qH+gRo+A7/85/SuhRrfnAB4unT596+66UlKywBkJQJVwwTubmFphvLHwSV5OkNlx0+3LbgI8YZgf+nMi6CSIP75kPerDQjeKOHDna6sMNgyLhgnFy794D5psLn8TVJKkNF72Ebhv4EcPo5D8V2ZUnUnvTfMCDw6NHj+TEiQpvsW26NopLlYQLxsXu3bO8p/rAjqtJUhsug3/RPgEghskB/8a/JRTAp4Tu3q2WPXv2yoIFH1kjIIxquEycOIVwwcj7wQczzDcZbLiaJLXhMuDf2icCxDDY64siywaJ1N4wH+jgcO3aNdm4cZM3ydsm/zCrP9P48ZPkjTcIF4y2eoUU3LiaJLXh0ucr9gkBMch2+YxI/lsi10+ZD3Jw0HODSktXWSf8qEi4YBzUx6CvXLlqvtlgw9UkKQ6Xn7JPDIhB9YP/IXJmp/kABwN9VPLcufOycmVqT2UOioQLxsGhQ0d5G0GCG1eTpDZc+n7VPjkgBs2RvyGyf7H54AYDPTtIF9wWFy+zTvBRlXDBOFhYWGS+6eDC1SSpDRc9vt82SSAGxawv+0dTBGjzOH2c+dChw/LRR8E4OyjdEi4YB8vLT5hvPLhwNUlqw2XIL9knC8QgOONbIjeDc5R8TU2N94TQ/PkLrRN6XCRcMOr27Nkv8QvKQ/PNBxeuJkltuIz4D/YJAzGT6gZy2+eKNAbj/vK9e/dk+/YdodiOPx0SLhh1Z8yYbb790ByuJkltuLBzLgbJLp8WWdglUQrXzAc0s+iBh/v3H5D8/PnWCTyuEi4YdbdvD9YDAEHF1SSpDRfdadQ2gSCm2/f+QKRyq/lgZha9JbR7916CxSHhglG2Y8fucvv2bTMaQHO4miS14TLrb+yTCGK61HVWeq7Q03rzocwMjY2NcuvWLdm5cxe3hF4j4YJRdvz4yWZUgNfhapLUhsuinvbJBDHV9vicyOp3M35ys+7TcObMWVm+PFwnNGdSDZf33ptIuGAk3bp1uxkd4HW4miS14aKPmdomFcRUOvm/ilw6ZD6EmeFFsJRYJ2d0q+EycuS78p3vvG0d+BHDqt4munWL20QtxdUkqQ2XXfn2iQUxVa4YnqiGZ+YDmBmqqqqkpKTUOinj6yVcMKqOGzfRjBLQElxNktpwObnJPrkgJtuhvyxyuMR88DLDjRs3vYMPbZMxtlzCBaPqmjXrzWgBLcHVJKkNl6oKka4/Yp9oEJNl3vcyeoKzPiGwZctWyc7OsU7E2DoJF4yieqji1avB2IohLLiaJLXhUlct0u9n7JMNYnvVz9ae+ebDln5047ht27Z7E61tAsa2SbhgFB05cqz3dCG0HFeTpDZcdGdSNqHDVDj1mxnbrl83jtu9ew+PNadIwgWj6PLlpWYEgZbiapLUhosy5x/sEw9iW9Rbj/qYcwa269ezRfQsoYICNo5LpYQLRs033+wsFy5cNCMJtBRXk6Q+XFaOsk9AiK112K+InNxsPljp5cqVq7JwYaF1osXkSrhg1Bw6dJS3RQK0DleTpD5cDi21T0KIrXH232VkAW59fb3s3btP5s3LtU6ymHwJF4yaS5YsMyMKtAZXk6Q+XHiyCNvrqjHmw5Q+/A3kzsiiRYutkyumTsIFo6TeJjp37oIZWaA1uJok9eHy7LHI8K/bJyTE5tS9WY6vNR+k9HHqVKUUFy+zTqqYegkXjJJjxoznaaI24mqS1IeLwgJdbK1T/1yk+or5AKWHO3fuyJo1a62TKabP3Nw8GT58tHz724QLht916zaaEQZai6tJ0hMuGybbJydEm3o4p16pSxPPnj2TgwcPJSbMfOtEiulVw2XYsFGEC4ZePZtId9SGtuFqkvSEy+nt9gkK8WW7fFpk4xTzoUkPeq7QsmUchBgkCReMioMGDeNponbgapL0hAs76OLr7Pl5kYPF5gOTHo4ePcY2/QGUcMGoOGvWXDPaQFtwNUl6wkXRnU5tExZi/58VqSwzH5TUc+9ejaxfv8E6aWLmJVwwKu7ff9CMOtAWXE2SvnBZM9Y+aWG8HfJLIleOmg9J6qmoOCkFBQusEyYGQ8IFo2CvXv283bah7biaJH3hcmaHfeLC+Dr810RunDYfkNRSW3tfNmzYaJ0oMVgSLhgFc3LyzegDbcXVJOkLl/oHIoO+Zp/AMH6O/HWRO+k5u0M3kluw4CPrJInBk3DBKFhefsKMQNBWXE2SvnBR5v6jfRLDeNn3qyK3zpsPRerQ7frLyrZbJ0cMroQLht1+/YbIkydPzEgEbcXVJOkNl1359okM46Me/3BkhflApI6rV69JUVGxdWLEYEu4YNgtLCwyIxG0B1eTpDdcdCfU3l+yT2gYfbN+MuWPPNfV1XEoYsglXDDMvv12V7l06bIZkaA9uJokveGizPpr+6SG0bb7j4uc3GQ+BKnhzp27smQJV1nCLuGCYXbixPfNiATtxdUk6Q8XbhfF090F5gOQGiorT0teXoF1IsRwqYcsjhgxmkMWMZTu2LHLjErQXlxNkv5wqb4q0usL9skNo2nJUPPmJx9dALd9+w7rBIjhlHDBsNq9e5bcv3/fjE7QXlxNkv5wUab/pX2Cw+iptwZTdKS7DhAlJaXWyQ/DK+GCYTU7O8+MTpAMXE2SmXDZlXhzbZMcRsthvyLy4I5505PL5cuX5aOPFlknPgy3hAuG1ePH2bslmbiaJDPhUnPdf8LENtlhNNTFuOd2mzc8uZSXH+dwxAhLuGAY1ZOgnz59akYpSAauJslMuChz/sE+4WE0XDfRvNHJZffuvdbJDqMj4YJhdNmyUjNKQbJwNUnmwkU3IbNNeBh+p/x3kcYG80Ynh4aGBtm8eat1osNoSbhg2OzQoatcu1ZlRitIFq4myVy4eGcX/bx94sPw2uuLIjfPmDc5OeiTQ+vWrbdOchg9CRcMm+zdkhpcTZK5cFGW9LVPfhheN04xb27y4FTneEm4YNjctWuvGa0gmbiaJLPhcvmISJfP2CdADJ/v/YHIs+QeLLZ//wHr5IbRlXDBMNmrV395+PChGbEgmbiaJLPhosz6G/skiOFSnxKrOmne1PbT2NgoZWXbrBMbRls/XMYQLhgKS0pWmlELko2rSTIfLhUb7RMhhsu875k3NDns3LnLOqlh9NVweeedEYQLBt6OHbvL7du3zagFycbVJJkPl4anIqO/YZ8MMRx2+bTImR3mDW0/R48es05oGA8JFwyL06fPMqMWpAJXk2Q+XJStM+0TIoZDvd2XJC5evGidzDA+Ei4YFvWXLEgdriYJRrjcvyWS9WX7pIjBVhdXX9hv3sj2ce/ePSkomG+dzDA+Ei4YBgcOHMpOuSnG1STBCBdFNy2zTYwYbKf/L/MGto9nz57J8uUrrBMZxkvCBcNgaelqM3pBqnA1SXDCZV+hfWLEYHt8nXkD2weLcfG5hAsG3U6desjt26k5QBZe4GqS4ITL03qR4V+3T44YTMf8lr+4up1cuMC6Fnwh4YJBd+bMOWb0glTiapLghItSNss+QWIw3TTVvHFt59GjR7JwYaF1AsN4Srhg0K2oSN6eVeDG1STBCpdHtSKDf9E+SWKw7P0lkXvXzBvXdrZuLbNOXhhfCRcMssOGjfYOfYXU42qSYIWLsmGyfaLEYDn778wb1nYuX75inbgw3hIuGGQLCj4yIxikGleTBC9cHt4TGfYr9skSg+OxVeYNaxt6i2jx4iXWiQvjLeGCQfWtt7pIZWVyT78HN64mCV64KIeW2SdLDIZ6O+9J+w4V2759h3XSQpw3L1cGDHiHcMHAOXly+9f1QctxNUkww6WxQWTc79snTcy8+W+ZN6pt1NXVeb9V2yYtRA2Xvn0HES4YOA8fPmpGMUgHriYJZrgox1bbJ03MvPsXmzepbZSXl1snLESVcMEgOmTICHn69JkZxSAduJokuOGisJtu8OzxOZE7F80b1HqePHkihYWLrBMWokq4YBBdv36jGcUgXbiaJNjhcnaXf/KwbQLFzPju7/i38trIiRMV1skK8bmECwbN7t2zpLb2vhnFIF24miTY4aJk/1/7BIqZcX5H88a0Hj2PqKio2DpZIT6XcMGguXDhIjOKQTpxNUnww+XGaZGen7dPoph+t7V9q+vz5y9YJyrElyVcMEi+/XZXuXatyoxikE5cTRL8cFGWDbJPoph+z+w0b0rrWbNmrXWiQnxZwgWD5LRpH5oRDNKNq0nCES511SKDvmafSDF96pWv6ivmTWkd1dXV3oRkm6gQX5ZwwSBZUXHKjGKQblxNEo5wUXbl2ydTTJ+6o7Ge4t0GDhw4aJ2kED8p4YJBcfTocdLY2GhGMUg3riYJT7jokyyT/9Q+oWJ61Ne/DeiBZEuWsCgXWybhgkFxz559ZhSDTOBqkvCEi3LrvEjfr9onVUy9eW+aN6J1XLnCYYrYcjVcsrIGJMKlg3UyQUyHerWFU6Azi6tJwhUuStks+6SKqXf5YPMmtI4dO3ZaJyhEmxouvXr1I1wwo+7de8CMYJApXE0SvnBpeCYy9vfsEyum1g2TzZvQcvQ3lqIiToHGlku4YKYdPHi4PH361IxikClcTRK+cFFYqJsZt2ebN6Dl3LlzR7Kzc6wTFKJNwgUz7aZNW80IBpnE1SThDBe96jLlv9knV0ydexaYN6DlsMU/tlbCBTOprq96+PChGcEgk7iaJJzholRVsKNuuj1cYl78lrNly1br5IToknDBTFpausqMXpBpXE0S3nBRdM2FbYLF1NjKcPEfg15qnZwQXRIumCm7dcuSmpoaM4JBpnE1SbjDpeGpyKQ/tk+ymHyPrDAvfMu4f/+B5ObmWycnRJeEC2bKwsIlZvSCIOBqknCHi1J1UqTXF+wTLSbX/a07IfXq1WvWiQmxOQkXzISdO/eQW7dum9ELgoCrScIfLsrWmfaJFpPrzlzzgreMigoW5mLrJVwwE+bnt/7hA0gtriaJRrgoM75ln2wxeW6eZl7slrF7917rxITYnIQLptsOHbrJtWtVZuSCoOBqkuiES/VVkeG/Zp9wMTmWjjAvdstYv36jdWJCbE4Nl969+xMumDazs/PMqAVBwtUk0QkX5coxHpFOpQs6mxe6ZSxfvsI6MSE2p4ZLnz4D5Y03CBdMj5WVZ8yoBUHC1STRChdl2xz7pIvtV2/HtZBnz57JokVF1okJsTk1XHQTMMIF0+GoURymGFRcTRK9cFHm/bN94sX2OfY/iTQ2mhe5eR4/fizz5y+0TkyIzUm4YDo9ePCwGbUgaLiaJJrhUlctMvzr9skX2+7AnxOpv29e5Oapq6uTvLwC68SE2JyEC6ZLrrYEG1eTRDNclPP7RHr8hH0CxrbZ7cdEbrbsXvD9+/fZfA7bJOGC6ZKrLcHG1STRDRelbJZ9Asa2W7HRvLjNU119z5uAbBMTYnMSLpgOudoSfFxNEu1wUbL/r30Cxra5aap5YZunurqacME2SbhgOuRqS/BxNUn0w+XmWZHeX7JPwth6C942L2zzcMUF2yrhgqmWqy3hwNUk0Q8X5WCxfRLG1tvCJ4tY44JtlXDBVMvVlnDgapJ4hIuyYrh9IsbW2euLIjWv3xqbp4qwrRIumEpHjhzL1ZaQ4GqS+ISLXiWY8w/2yRhb54n15kV1U1/PPi7YNgkXTKVHjx4zoxQEHVeTxCdclCePiJdkWNTHvKBudOfcxYuXWCcmRJfZ2X646FlFhAsm25kz55gRCsKAq0niFS5K/QORcb9vn5CxZb77OyKNr7/UWlLCWUXYOjVc5s7NkZ49+xIumFQ5ATp8uJokfuGi3L4gMuhr9kkZX6+3Ed1Z82K6WbduQ5OJCbE5CRdMlbm5BWZkgrDgapJ4hotybjcnSbfHnbnmhXSzc+euJhMTYnMSLpgKO3fuITdv3jIjE4QFV5PEN1yUA0tEunzaPjFj887+W/MiutFFcLbJCdEl4YKpsLCwyIxKECZcTRLvcFE2TrFPzNi8/X5apO6ueRHtXLx4scnEhNichAsm227dsrwNMSF8uJqEcFGW9LVPzti8h5aZF9DO3bvViYkop8nkhOiScMFkW1Ky0oxIEDZcTUK4KLrHy7x/tk/O6FZfs2Z48uSJLFz4UZPJCdEl4YLJVPcD0s0wIZy4moRwec6ThyIf/A/7BI12+35V5P5t8wLaWblyVZPJCdEl4YLJdOPGLWYkgjDiahLC5WXuXhbp81P2SRrt7plvXjw7u3fvbTI5IbokXDBZDh483LvqC+HF1SSEyyc5uUmkx0/YJ2ls6tRvmhfOztmz55pMToguCRdMljt37jajEIQVV5MQLjaOrRLp9zP2iRpfVTeju3LUvHBN4ZRobI3PF3P36NEnES4drRMS4uvs23eQ1NU9NKMQhBVXkxAuLi4eEOnzFftkja9a0MG8aHZKS1c2maAQbWq4zJ4919sw7LvfJVywbe7atceMPhBmXE1CuDTHmR0ivb5on6zxhVlfFqm5bl60puzff8A6SSF+UsIF2+vo0eOkoeH1Z6lB8HE1CeHyOk6s52iAlrh5mnnBmlJVVWWdpBA/KeGC7bWi4qQZeSDsuJqEcGkJR1eKdPtR+4SNvjP/yrxYTXn69Kl89NEi60SF+LKEC7bHadM+NKMORAFXkxAuLeXQUuKlOfWWmp667WDr1jLrRIX4soQLttUOHbrJ1avXzIgDUcDVJIRLayBemnfpQPNCNYVzi7AlEi7YVhcuXGxGG4gKriYhXFoL8eJWD168bz86/vHjx7JgAdv/Y/MSLtgWe/bsJ7W1tWa0gajgahLCpS148fJj9sk77q4ZZ16kppSVbbdOVojPJVywLa5fv8mMMhAlXE1CuLSVg8X2iTvuDvi3InXV5kV6latXr1onK8TnEi7YWocOHeU9AADRw9UkhEt7WDXGPnnH3XUTzAv0Krq3QlHREuuEhagSLthajx49ZkYYiBquJiFc2sva8fbJO872/1nnWpfDh49YJyxElXDB1jh16kwzskAUcTUJ4ZIMytdwPMAnLXjbvDiv8ujRI5k/f6F10kLUcPnww9neo62ECzZn794DpLr6nhlZIIq4moRwSRbn94kM+Df2STyOdv2sf96Thd2791onLUTCBVuqLvaHaONqEsIlmVwtT7yI/84+kcfRaX9hXphXuXnzlnXSQiRcsCWOHv0e5xHFAFeTEC7J5tZ5kVH/0T6Rx9Fjq80L8wJ9AqCwcLF14sJ4S7jg63zzzc5y+vQZM5pAlHE1CeGSCmqqRCb8kX0ij5ujv5EolXrzwrzg0KHD1okL4y3hgq8zJyffjCIQdVxNQrikioc1IjO+ZZ/M46bl5Oh792pk3rxc6+SF8ZVwwebs3r2PVFfb94mC6OFqEsIllTx7LJL3PftkHif1KAC9CvUJ1q5db528ML4SLticGzduNqMHxAFXkxAu6UAPH7RN6HHS8nj0+fPnrZMXxlfCBV327TtInjx5YkYPiAOuJiFc0kVRH/uEHhe7fFqkssy8GD46CLFIF1+WcEGXq1evMyMHxAVXkxAu6aKxUWT5YPukHhfH/HaThbr6dIBtAsN4SrigTT2PiKst8cPVJIRLutkyQ6TLZ+wTexxcM9a8EC8oLV1lncQwfhIuaPPEiZNmtIA44WoSwiUT6N4mI3/DPrFH3Z6fFzmz07wQPnfu3JG8vALrRIbxUsNFzyrq2JFwQd+FCxeZkQLihqtJCJdMUXdXZOZf2Sf3qDvmt8yL8IJjx8qtExnGSw2XWbPmJMKlO+GC3i2ip0+fmVEC4oarSQiXTNKQ+EIuzrJP7lF3zwLzIvjo9t1Lly63TmYYHwkXfK7ukFtRccqMEBBHXE1CuASBTVP9QwltE3xU7fczItVXzQvgc+1alXUyw/hIuOBzc3IKzMgAccXVJIRLUNB1L7pRm22Sj6qz/sb88C/YurXMOqFhPCRcUO3Vq7/U1NSaUQHiiqtJCJcgce24f7aPbZKPqjvmmR/ep66uTubPX2id1DD6Ei6o7tq1x4wIEGdcTUK4BI0Hd0Sm/YV9ko+ivb8kcqPS/PA+FRUnrZMaRl/CBd9/f7oZCSDuuJqEcAkiekDjzP9tn+ij6KQ/Fnn2YnOpxsZG9naJqYRLvO3cuafcuHHTjAQQd1xNQrgElcaGeO20WzLU/OA+t2/fkZycPOvkhtGVcIm369ZtMCMAAOESXvYu9G+n2Cb7KKlnGZ1Yb35on3379lsnN4yuhEt8HTNmvLctAsBzXE1CuISBSwdFRv2mfcKPkoN/QeRelfmhRZ4+fSpFRcXWCQ6jKeEST/WIhwsXLppvPoCPq0kIl7Cgi3bn/qN9wo+SM77l3yYzXL5y1TrBYTQlXOLp8uWl5hsP8AJXkxAuYeNI4gs++Bftk35UzPue+WF9NmzYZJ3kMHrOm5crM2fOkrff7kq4xMSpU2dyiwisuJqEcAkjdy9H/5HpjVPMDytSU3tf8vPnWyc6jJYaLjNmfEi4xMQePfrKnTt3zTcd4FVcTUK4hBU950ifxLFN+lGw64+InNxkfliR4yfY2yUOEi7xctGiYvMNB2iKq0kIl7BzoEik24/aJ/+wO+hrIndeLNhbtWq1dbLD6Ei4xMesrIFSU1Njvt0ATXE1CeESBU5uFhn6y/bJP+zq5nR6dSlB9b0aycsrsE54GA0Jl/h44MAh73sN4MLVJIRLVKipEpn9t/bJP+xum21+SJGjxyusEx5GQ8IlHs6dm2O+0QBuXE1CuESNDZNFuv+4PQDCas/Pi5zd6f14ehzAylVrm0x4GA0Jl+jbt+8gqa29732fAZrD1SSESxQ5uyt6G9bpI+D6NFWC6nu13DKKqIRL9D18+Kj3PQZ4Ha4mIVyiysN7IgUd7BEQVif8ocjjOu/HO3bilHXiw3BLuETb3NwC7/sL0BJcTUK4RJ3diYGi71ftIRBGc/7Z/GAiK9dutE5+GF4Jl+g6YMA7Ulf30Hx7AV6Pq0kIlzhwo1Lk/T+zh0AYXeF/Lmvv35fcgoXWCRDDqYYLO+dG0+PHK7zvLUBLcTUJ4RIXGp6KbHxfpM9X7DEQNtdP8H6ss+cvSva8POskiOFTw2Xq1Ony5pudrZMfhtOSkpXe9xWgNbiahHCJG1eOiUz4I3sMhMofTsTLeO9H2nfomHUSxPCp4TJlylT57nftEyCGz2nTPvS+pwCtxdUkhEsceVovUjrC31bfGgVh8YdEDiz2fqTiVax3iYKES7Ts1au/VFff876jAK3F1SSES5w5vU1k9DcsQRAiu/+INJzbIw/v18jcgkXWyRDDI+ESLdkdF9qDq0kIl7hTf19kcW97FITFPl+UhjuX5dyZSpmVnW+dEDEcEi7RMS9vgRlkANqGq0kIF/A5vk5k+NftYRAGh/ycNDyslTXrN8ucuTnWSRGDL+ESDQcPHi6PHj0ygwtA23A1CeECL6i7K7Kwqz0MwuB7vyv3zh6R2fOXWCdFDL6ES/jt0KGbnD591gwqAG3H1SSECzTl2CqRYb9qj4Mg2+lT8mzpQDl1ZL/MnMf+LmGUcAm/ixcXm4EEoH24moRwATsP7ojM+Xt7IATZjj8gdRtnyuZ1a1jvEkIJl3Dbs2c/qa6uNoMIQPtwNQnhAm4aG0S2zBDJ+kl7JATVTj8g90vHyaKiJTI7m83pwiThEm55igiSiatJCBd4PddPicz8K3skBNWu/0ouLRwqswsWJyZEFuuGRcIlvC5YUGgGDIDk4GoSwgVazs5ckUFfs4dC4Pxhke6flX2zBsqMnELrJInBMycnVyZP/kDeeINzisLkiBHvyuPHj81AAZAcXE1CuEDruH9bZMv0cJw43elT0tDzc7J19qhEvHxknSgxWGq4TJr0fiJcOlgnSAye/foNkTt37poBAiB5uJqEcIG2ceucSPY/2YMhSHb8QXk46N9LUe5smTWvwDpZYnAkXMLlW291kZMnT5lBASC5uJqEcIH2caBIZOi/t0dDUOzwfXJt3DclO/8jmTM31zphYjAkXMJlaekqMxAAJB9XkxAu0H5047r5He3REBj/pRyZ0VNm5HKeUZAlXMLjpElTpbGx0QwCAMnH1SSECySPPfNFhvySJRoCYKcfkoasn5T12RPZnC7AEi7hsHfvAaxrgZTjahLCBZLL/Vsii3qJdP2sPSAyacd/ITXDviEf5eXIbDanC6SES/B9883OcvRoufnCA6QOV5MQLpAazuwUmfhf7AGRSTt+n1yc+LcyO6+QwxgDKOESfJctW2G+5ACpxdUkhAukjoZnIls/FOn/r+0RkRF/WKTLD8mBmX1Z7xJACZdgO2HC+9LQ0GC+4ACpxdUkhAuknruXRRZ0SgTDpy0hkQE7fUqe9vmKrJ47UT6cN986gWJmJFyCa69e/VnXAmnF1SSEC6SPyjKRCX9oj4l02+H7pGrUn3DLKGASLsFU17UcO3bcfJEB0oOrSQgXSC96+2jzNJEeP2EPinTa9V/JwQ/7yjRuGQVGDRd/y3/CJUiyrgUygatJCBfIDJcP+7ePsr5sj4p02OlT8qz3T8qW2SNlZg6PSAfBnJw8mTLlA/nudzmrKCjqOUSPHj0yX1yA9OFqEsIFMsvNsyJ5b9rDIh12/EF50venZVXOFJk5b4F1MsX0qeGiV1wIl2Co61pu375jvqwA6cXVJIQLBIPKrSKT/sQeF6m24w9IzfDfloXs75JxCZfgqOtaystZ1wKZw9UkhAsEh8YGkZ25IkN/2R4YqVT3d5nw1zI3T88zYrFupiRcguPKlWvMFxMgM7iahHCB4FFXLVI6QqT3l+yRkTL/pRyZ3p39XTIo4RIMZ8yYbb6MAJnD1SSECwSXG6dF8t+yBEaK7PRD0tjzc7JpzhiZwWLdjEi4ZN4hQ0ZIXV2d+RICZA5XkxAuEHwOFImM/HV7bCTbjj8ojwb+oizJmSUfziuwTq6YOgmXzNq5c0+5dOmy+eIBZBZXkxAuEA7qH4hsmJye4wM6fL/cGvWHkpdXILOz86wTLKZGwiWz7t6913zhADKPq0kIFwgXNVUixf1Fen7eHh3JsuP3y5mJfy+zclmsm04Jl8y5eHGx+ZIBBANXkxAuEE6qKkTyvifS5TP28Gi3ehjjD8v+6b1kRm6hdZLF5Eu4ZMbJk6dJY2Oj+XIBBANXkxAuEG7O7RaZ/peW8EiCnT4lDT0/L+tn6WLdj6wTLSZXDRd2zk2vAwcOldra++YLBRAcXE1CuEA0KF8jMvG/2AOkPepi3f5fk+LsqTKLxbopV8PFP2SRcEmHXbr0kgsXLpovEUCwcDUJ4QLRQS91n9wsMvXP7RHSVjv+gFQP/nXJzdGddVmsm0o1XMaPn0S4pEF9gqiy8oz58gAED1eTEC4QTY6tEpnwR/YQaYsdv18q3/sbFuumWMIlffIEEQQdV5MQLhBd9ArM/sUiY3/PHiOt8ocTfkoOvN9ZprNYN2USLulx6tSZ5ksCEFxcTUK4QPR59lhkV57IqN/8RIy0Ut1Zt/uPyqYZ77BYN0USLqlXF+PW1NSaLwdAcHE1CeEC8eFxnUjZLJHhX7eHSUvs9INSn/VVKZk9SWbOW2CdfLHtEi6pVRfjXrzIzrgQDlxNQrhA/Ki/L7LpA5HBv2CPk9fZ8Qfk3sBfkYXZs2RWNk8aJVPCJbUeOHDIfAkAgo+rSQgXiC8110WW9BPJ+rI9UJqzw/fJ9WF/INmJiZYnjZIn4ZI6V61aaz74AOHA1SSEC8DtC20LmI7fL6fH/IV8mLNQ5mTzpFEyJFxSY05OvvmwA4QHV5MQLgDPaXXA/LBIp38hByd8V6azWDcpEi7Jd9y4SfLkyRPzIQcID64mIVwAPsnzgOnzFUusfMJOP5T45w/Jtik9E/HCY9LtlXBJrvoE0b1798wHGyBcuJqEcAFwcfeSSEniO9Dvp5sGy8t2+pQ87fbjsnracOKlnWq4jBs3MREuHawTMbZcniCCsONqEsIF4HVUXxFZM05k9Dfs4aLqmUY9vyyrEvEyM2ehdVLG16vhMnLku/Kd77xtnYyxZXbvniXl5cfNBxggnLiahHABaCm6kd2+QpHx/9kZL0+6f05Kp49gj5c2Sri03w4duklFxSnzoQUIL64mIVwAWktjg8jRlSJT/rslXv6FPOj9M5I/eyanSbdBwqX97tixy3xQAcKNq0kIF4D2oKdRf/h/RLp85kW8dPg+OTv0j+XD7AKZk51rnaDRLuHSPktKEkENEBFcTUK4ACSDC/tF8t4U6fl5Ey//r5SP+ktvvQt7vLRcwqXtTpkyzXwYAaKBq0kIF4BkcqNSZElfkR6fS8TL98ueMf8oM7wnjYiXlki4tM0+fQbKrVu3zYcQIBq4moRwAUgF146LfNRNpPcXZOt7HThNuoUSLq1XH3s+d+68+eABRAdXkxAuAKnk7iVpXDVKNs0aJR/Om2+drPGFhEvrfOutLnLo0BHzYQOIFq4mIVwA0kD93SrJX1xinazxhYRL69yypcx8wgCih6tJCBeANHHz1h3Jy+MR6eYkXFrusmUrzCcLIJq4moRwAUgjFy5clGyeMnKq4TJixBjC5TXm5haYTxRAdHE1CeECkGaOHz9hnbRxXmJCzpNhw0bJt79NuLicOnWmNDQ0mE8TQHRxNQnhApABTp2qtE7ccZdwad6cnHx5+vSp+RQBRBtXkxAuABni6NFj1sk7zhIubrnSAnHD1SSEC0AG2bNnr3UCj6uEi92xYydIfX29+dQAxANXkxAuABlm9eq11kk8jhIuTR06dJTU1NSaTwtAfHA1CeECkGFqa2vlo48WWSfyuEm4vGrfvoPk5s1b5pMCEC9cTUK4AASAW7duSUEBO+sSLq967Nhx8wkBiB+uJiFcAALC1atXvX1MbBN6XCRcXrhu3UbzyQCIJ64mIVwAAoQelhfnDeoIF9+lS0vMJwIgvriahHABCBgnT56yTupxkHDpJAsWFJpPAkC8cTUJ4QIQQOK6x4uGy/Dho2MbLnPn5kpjY6P5FADEG1eTEC4AAWX//gNNJvaoG+dDFqdN+1CePXtm3n0AcDUJ4QIQYA4cOGid4KOqf8ji6NiFy+zZ86S+/rF51wFAcTUJ4QIQcOJ0KGMcwyUvb4F5pwHgZVxNQrgAhIAjR45aJ/qoGbdwmTMnhzUtAA5cTUK4AISEONw2ilO4TJ8+S54+ZU0LgAtXkxAuACFix46d1gk/KsYlXCZPniqPH7OmBaA5XE1CuACEiCdPnkhp6SrrpB8F4xAuY8dO5KRngBbgahLCBSBk6NMnK1aUWif+sBv1cOnZs59UV1ebdxIAmsPVJIQLQAh5+PChLFtWYp38w2yUw6Vbtyw5ffqMeQcB4HW4moRwAQgpUYyXqIZLly69pLKSaAFoDa4mIVwAQkzU4iWK4dK5cw8pLz9h3jEAaCmuJiFcAEJOlOLFD5cxkQkXogWg7biahHABiAAaLyUlK6wxECY1XN55Z2QkwkWj5dix4+YdAoDW4moSwgUgIuij0lu3llmDICz64TIi9OHSr99gOX/+gnlnAKAtuJqEcAGIGGVl26xREAajEC4aLdeuVZl3AwDaiqtJCBeAiKFn34Q1XsIeLkQLQPJwNQnhAhBBNF7CeNsozOFCtAAkF1eTEC4AEeXZs2eycmW4jgcIa7gQLQDJx9UkhAtAhNHjAcJ0tlEYw6Vr195EC0AKcDUJ4QIQccIUL2ELl7ff7ioHDx42rzQAJBNXkxAuADEgLPESpnDRfVoOHz5qXmEASDauJiFcAGJCGOIlLOHCjrgAqcfVJIQLQIzQeFm9eq01GoJgGMKlc+eeRAtAGnA1CeECEDOePn0qa9ass4ZDpp03L1f69x8S2HDp1i1LTp6sNK8kAKQSV5MQLgAxRONl+/Yd1njIpBouffsOCmS4DB06Ss6cOWteQQBINa4mIVwAYkx5+XFrQGTKoIbL2LET5cGDOvOqAUA6cDUJ4QIQcyorK71gsIVEug1iuEyaNFXq6ogWgHTjahLCBQC8k4yzs3OsMZFOgxYuH3www1vQDADpx9UkhAsAeJSXl1tjIp0GKVxmzZrrHZsAAJnB1SSECwB8TEXFSWtQpMughMvUqTO9gyoBIHO4moRwAYBX0CdnMrXmJQjhMmHC+yzEBQgAriYhXACgCZcuXZK8vAJrXKTSTIfLtGkfsqYFICC4moRwAQArVVVVMn/+QmtgpMpMhkt2dh5rWgAChKtJCBcAcHL79m0pLFxsjYxUqOHSp8/AtIfLwoWLzU8MAEHB1SSECwA0S01NjSxZstQaGslWw6VXr36JcOlgDYxUWFKy0vykABAkXE1CuADAa9EN2EpLV1pjI5mmM1zeequLbNiw2fyEABA0XE1CuABAi9D1H/v27bcGR7JMV7joQY6nT58xPxkABBFXkxAuANAqUrlRXTrCZdiw0XLz5i3z0wBAUHE1CeECAK3m0KHD1vBor6kOl3HjJklNTa35KQAgyLiahHABgDZx+PARa3y0x1SGy+TJU6W+vt787QEg6LiahHABgDZz6tQpLzZsEdIWUxUuY8aMlwcPHpi/NQCEAVeTEC4A0C4uXryYtF12UxEuesLzw4cPzd8WAMKCq0kIFwBoN9evX5eFCz+yxkhrTHa4zJuXz264ACHF1SSECwAkherqe7JkSbE1SFpqMsNlyZJl5m8GAGHE1SSECwAkDX+julXWKGmJyQiXN9/sLOvXbzR/IwAIK64mIVwAIKk8efJENm7cZA2T15mb6x+y+MYbbQuXjh27y549+8zfBADCjKtJCBcASDqNjY2yc+cua5w0p15xycoa0KZw6dmzr1RUnDR/AwAIO64mIVwAIGUcP35CCgrmWyPFZlvDZfz4yXLlylXzXwWAKOBqEsIFAFLK1atXJScnzxoqn7Qt4bJgQaE0NDSY/xoARAVXkxAuAJByrl2rSgTG6x+Xbm24lJSsNP8FAIgariYhXAAgLVRXV8uSJUutwfLc1oTL4sXF5t8MAFHE1SSECwCkDd3BdtWq1dZoUVsSLv7jzpvMvxEAooqrSQgXAEgrupPtli1b2xQuXbr0kv37D5p/EwBEGVeTEC4AkBH27z/QqnDR/V3OnDlr/r8BIOq4moRwAYCMofuuaKy8LlxGjhwrN2/eMv9fABAHXE1CuABARrl8+YoUFCxwhsu0aR9KXR2nOwPEDVeTEC4AkHHu3LkjRUXFkp2d80q4LFiwiD1aAGKKq0kIFwAIBHpVZe3add4hi9/9bkdZt26D+b8AQBxxNQnhAgCBQQ9onDcvT3bv3mv+NwAQV1xNQrgAAABA4HA1CeECAAAAgcPVJIQLAAAABA5Xk7w2XBARERGDoEK4ICIiYihUCBdEREQMhQrhgoiIiKFQIVwQERExFCqvhAsAAABAcBH5/wERprq3toOsZAAAAABJRU5ErkJggg==;strokeColor=none;labelBackgroundColor=none;rounded=0;html=1;whiteSpace=wrap;" parent="1" vertex="1">
          <mxGeometry x="92.83000000000003" y="807" width="29.42" height="28" as="geometry" />
        </mxCell>
        <mxCell id="QUkc8n2lJ9mTT0OE4B8_-80" value="" style="sketch=0;points=[[0.015,0.015,0],[0.985,0.015,0],[0.985,0.985,0],[0.015,0.985,0],[0.25,0,0],[0.5,0,0],[0.75,0,0],[1,0.25,0],[1,0.5,0],[1,0.75,0],[0.75,1,0],[0.5,1,0],[0.25,1,0],[0,0.75,0],[0,0.5,0],[0,0.25,0]];verticalLabelPosition=bottom;html=1;verticalAlign=top;aspect=fixed;align=center;pointerEvents=1;shape=mxgraph.cisco19.server;fillColor=#005073;strokeColor=none;fontSize=10;container=0;" vertex="1" parent="1">
          <mxGeometry x="289.5" y="659" width="44.55" height="81" as="geometry" />
        </mxCell>
        <mxCell id="QUkc8n2lJ9mTT0OE4B8_-69" value="" style="shape=image;verticalLabelPosition=bottom;verticalAlign=top;imageAspect=0;aspect=fixed;image=data:image/svg+xml,PHN2ZyB4bWxuczpzdmc9Imh0dHA6Ly93d3cudzMub3JnLzIwMDAvc3ZnIiB4bWxucz0iaHR0cDovL3d3dy53My5vcmcvMjAwMC9zdmciIHhtbG5zOnhsaW5rPSJodHRwOi8vd3d3LnczLm9yZy8xOTk5L3hsaW5rIiB2ZXJzaW9uPSIxLjEiIHdpZHRoPSIxMjgiIGhlaWdodD0iMTI4IiBpZD0ic3ZnNTMzODMiIHZpZXdCb3g9IjAgMCAxMjggMTI4Ij4mI3hhOyAgPHRpdGxlIGlkPSJ0aXRsZTI4NTAiPkluZHVzdHJpYWwgRHJpdmU8L3RpdGxlPiYjeGE7ICA8ZGVmcyBpZD0iZGVmczMiPiYjeGE7ICAgIDxsaW5lYXJHcmFkaWVudCBpZD0ibGluZWFyR3JhZGllbnQyMzAwIj4mI3hhOyAgICAgIDxzdG9wIGlkPSJzdG9wMjMwMiIgc3R5bGU9InN0b3AtY29sb3I6IzAwMDAwMDtzdG9wLW9wYWNpdHk6MC4zMjY3MzI2NyIgb2Zmc2V0PSIwIi8+JiN4YTsgICAgICA8c3RvcCBpZD0ic3RvcDIzMDQiIHN0eWxlPSJzdG9wLWNvbG9yOiMwMDAwMDA7c3RvcC1vcGFjaXR5OjAiIG9mZnNldD0iMSIvPiYjeGE7ICAgIDwvbGluZWFyR3JhZGllbnQ+JiN4YTsgICAgPGxpbmVhckdyYWRpZW50IHgxPSI5OS43NzcyOTgiIHkxPSIxNS40MjM4IiB4Mj0iMTUzLjAwMDUiIHkyPSIyNDguNjMxMSIgaWQ9ImFpZ3JkMSIgZ3JhZGllbnRVbml0cz0idXNlclNwYWNlT25Vc2UiPiYjeGE7ICAgICAgPHN0b3AgaWQ9InN0b3A1MzMwMCIgc3R5bGU9InN0b3AtY29sb3I6IzE4NDM3NTtzdG9wLW9wYWNpdHk6MSIgb2Zmc2V0PSIwIi8+JiN4YTsgICAgICA8c3RvcCBpZD0ic3RvcDUzMzAyIiBzdHlsZT0ic3RvcC1jb2xvcjojYzhiZGRjO3N0b3Atb3BhY2l0eToxIiBvZmZzZXQ9IjEiLz4mI3hhOyAgICA8L2xpbmVhckdyYWRpZW50PiYjeGE7ICAgIDxyYWRpYWxHcmFkaWVudCBjeD0iMTQuMjg3NjE4IiBjeT0iNjguODcyOTcxIiByPSIxMS42ODk4NyIgZng9IjE0LjI4NzYxOCIgZnk9IjcyLjU2ODAwMSIgaWQ9InJhZGlhbEdyYWRpZW50Mjg0NiIgeGxpbms6aHJlZj0iI2xpbmVhckdyYWRpZW50MjMwMCIgZ3JhZGllbnRVbml0cz0idXNlclNwYWNlT25Vc2UiIGdyYWRpZW50VHJhbnNmb3JtPSJtYXRyaXgoMS4zOTkyNTgsLTIuMjM0NDQ1ZS03LDguMTk2MTc4ZS04LDAuNTEzMjY0LDQuMzY1MDc0LDQuODM5Mjg1KSIvPiYjeGE7ICAgIDxsaW5lYXJHcmFkaWVudCB4MT0iOTkuNzc3Mjk4IiB5MT0iMTUuNDIzOCIgeDI9IjE1My4wMDA1IiB5Mj0iMjQ4LjYzMTEiIGlkPSJsaW5lYXJHcmFkaWVudDI4NDgiIHhsaW5rOmhyZWY9IiNhaWdyZDEiIGdyYWRpZW50VW5pdHM9InVzZXJTcGFjZU9uVXNlIiBncmFkaWVudFRyYW5zZm9ybT0ibWF0cml4KDAuMjAwNjg1LDAsMCwwLjIwMDY4NSwtNTQuMzM1NzYsLTEuMDUwNzg3KSIvPiYjeGE7ICA8L2RlZnM+JiN4YTsgIDxnIHRyYW5zZm9ybT0idHJhbnNsYXRlKDAsODApIiBpZD0ibGF5ZXIyIi8+JiN4YTsgIDxnIHRyYW5zZm9ybT0idHJhbnNsYXRlKDAsODApIiBpZD0ibGF5ZXIxIj4mI3hhOyAgICA8ZyB0cmFuc2Zvcm09Im1hdHJpeCgyLjQyMjgwNTksMCwwLDIuNDIyODA1OSw0Ljk3MDM1MjIsLTc3LjA4NDI4MykiIGlkPSJnMjgzOCI+JiN4YTsgICAgICA8cGF0aCBkPSJtIDQ0LjI4NTcxNSwzOC43MTQyODcgYSAxOS45Mjg1NzIsOS44MzcyNDUgMCAxIDEgLTM5Ljg1NzE0MzMsMCAxOS45Mjg1NzIsOS44MzcyNDUgMCAxIDEgMzkuODU3MTQzMywwIHoiIHRyYW5zZm9ybT0ibWF0cml4KDEuMTg2MzgsMCwwLDEuMTg2MzgsLTQuNTM5Njg3LC03Ljc5NDY3OCkiIGlkPSJwYXRoMTUzOCIgc3R5bGU9ImNvbG9yOiMwMDAwMDA7ZmlsbDp1cmwoI3JhZGlhbEdyYWRpZW50Mjg0Nik7ZmlsbC1vcGFjaXR5OjE7ZmlsbC1ydWxlOmV2ZW5vZGQ7c3Ryb2tlOm5vbmU7c3Ryb2tlLXdpZHRoOjAuNTAwMDAwNDI7bWFya2VyOm5vbmU7dmlzaWJpbGl0eTp2aXNpYmxlO2Rpc3BsYXk6aW5saW5lO292ZXJmbG93OnZpc2libGUiLz4mI3hhOyAgICAgIDxwYXRoIGQ9Ik0gMjIuNjk5NTI1LDAuOTQ3NDY5NjMgQyAyMi4yMjYzNSwwLjk3OTg0NTE5IDIxLjc2NjQzNywxLjA1MzEzMTcgMjEuMzAxNjczLDEuMTA2MzE2NSBsIC0wLjAzMTc3LDAgLTEuMTExOTI4LDYuMDY3OTUwNiBDIDE4LjM0NTYyMSw3LjU4NzAwNDYgMTYuNjQwNTYyLDguMjg3NDU3NCAxNS4xMDY2NDQsOS4yMzkyNzY1IEwgMTAuMTE4ODUzLDUuNjQ5MzM3MSBDIDguNzcwNTIxLDYuNjk2MTQxMiA3LjU0MzU1Miw3LjkxNzAwNDkgNi40NjUzNzQsOS4yMzkyNzY1IGwgMy40NjI4NjIsNS4wNTEzMzA1IGMgLTEuMDUxNDIyLDEuNjA2NzgzIC0xLjg0MjA4MywzLjQ0MTQ4NyAtMi4yODczOTUsNS4zNjkwMjUgLTcuNmUtNSwwLjAwOTEgLTYuMmUtNSwwLjAzMDE4IDAsMC4wMzE3NyBsIC02LjAzNjE4MSwwLjk1MzA4IGMgLTAuMTEwMzU3LDAuOTAxMzY5IC0wLjE1ODg0NywxLjgzMjkwNCAtMC4xNTg4NDcsMi43NjM5MzYgMCwwLjc2MTc1MyAwLjAyMTAzMywxLjUxMzMyOSAwLjA5NTMwOCwyLjI1NTYyNSBsIDYuMDM2MTgyLDEuMDgwMTU5IGMgMC40MjkyOTcsMi4wOTYxNjEgMS4yNDQ4MDksNC4wNTM3ODUgMi4zODI3MDMsNS43ODIwMjYgbCAtMy41ODk5NCw0LjkyNDI1NCBjIDEuMDI4MTM1LDEuMjc2Mzg0IDIuMjE1MTA1LDIuNDM4NDggMy40OTQ2MzIsMy40NjI4NjEgbCA1LjA4MzEsLTMuNDk0NjMxIGMgMS43NzY0NzUsMS4xMzMyNDQgMy43NTk1NDUsMS45Mjc4OTIgNS45MDkxMDMsMi4zMTkxNjUgbCAwLjk1MzA4Miw2LjAwNDQxMSBjIDAuNjc3MjU0LDAuMDYxNjUgMS4zNzE3NzUsMC4wNjM1NCAyLjA2NTAwOSwwLjA2MzU0IDAuOTc4Njg1LC0xMGUtNyAxLjkxMzUyLC0wLjAzNzA5IDIuODU5MjQ0LC0wLjE1ODg0NyBsIDEuMTQzNjk3LC02LjEzMTQ4OSBjIDIuMDQwOTI3LC0wLjUwNzkwNCAzLjk1ODE3OSwtMS4zODg5OTggNS42MjMxOCwtMi41NzMzMTkgbCA0Ljg5MjQ4MywzLjU1ODE3IGMgMS4yNjg3NywtMS4wNzk0NDUgMi40Mjg5ODcsLTIuMzIwMTg4IDMuNDMxMDkzLC0zLjY1MzQ3OSBsIC0zLjU1ODE3LC01LjE0NjYzOCBjIDAuOTYzNjA2LC0xLjY2NDE5NyAxLjYzMTI5OCwtMy41MDAzNjYgMS45Njk3MDEsLTUuNDY0MzMzIGwgNi4wMDQ0MTIsLTAuOTUzMDgxIGMgMC4wNTI2NiwtMC42MjY1OSAwLjA2MzU0LC0xLjIzNDI2NSAwLjA2MzU0LC0xLjg3NDM5MyAwLC0xLjExMjQgLTAuMTI5Mjk1LC0yLjIwMzEwMSAtMC4yODU5MjQsLTMuMjcyMjQ2IGwgLTYuMDk5NzIsLTEuMTExOTI4IGMgLTAuNDc4MDA4LC0xLjc2NTA4IC0xLjI2MjMxMiwtMy40MTE4OCAtMi4yNTU2MjUsLTQuODkyNDg0IEwgNDEuMjUyODQsOS4yMDc1MDcxIEMgNDAuMTQwMDc1LDcuODQ2NjUyNCAzOC44NzA3MTgsNi41ODk1MjY0IDM3LjQ3MjI4NCw1LjUyMjI1OTYgbCAtNS4xNzg0MDgsMy41NTgxNyBDIDMwLjgwNTU0OSw4LjIwMDIwMiAyOS4yMDM4OTcsNy41MjQ4MTU5IDI3LjQ2NDkzMSw3LjE0MjQ5NzggTCAyNi41MTE4NSwxLjEwNjMxNjUgQyAyNS42NDQzNjksMS4wMDQyNzI5IDI0Ljc2OTc0OSwwLjk0NzQ2OTYzIDIzLjg3NDk5MiwwLjk0NzQ2OTYzIGMgLTAuMjQxODI2LDFlLTggLTAuNDkwNzA2LC0wLjAwNzYwOSAtMC43MzA2OTYsMCAtMC4xMTY5OTUsMC4wMDM3MDkgLTAuMjMyNzcxLC0wLjAwNjgwNiAtMC4zNDk0NjMsMCAtMC4wMzE2LDAuMDAxODQzIC0wLjA2Mzc2LC0wLjAwMjE1OCAtMC4wOTUzMSwwIHogTSAyMy41MjU1MjksMTYuMzg3Mzg2IGMgMC4xMTYwNjMsLTAuMDA1OSAwLjIzMTk0NCwwIDAuMzQ5NDYzLDAgMy43NjA2MDYsMCA2LjgzMDQxNiwzLjA2OTgxIDYuODMwNDE2LDYuODMwNDE2IDFlLTYsMy43NjA2MDUgLTMuMDY5ODExLDYuNzk4NjQ2IC02LjgzMDQxNiw2Ljc5ODY0NiAtMy43NjA2MDUsMWUtNiAtNi43OTg2NDYsLTMuMDM4MDQxIC02Ljc5ODY0NiwtNi43OTg2NDYgMTBlLTcsLTMuNjQzMDg2IDIuODUxMjEyLC02LjY0NzgzOSA2LjQ0OTE4MywtNi44MzA0MTYgeiIgaWQ9InBhdGgzMjQzIiBzdHlsZT0iY29sb3I6IzAwMDAwMDtmaWxsOnVybCgjbGluZWFyR3JhZGllbnQyODQ4KTtmaWxsLW9wYWNpdHk6MTtmaWxsLXJ1bGU6bm9uemVybztzdHJva2U6IzNmNDU2MTtzdHJva2Utd2lkdGg6MTtzdHJva2UtbGluZWNhcDpyb3VuZDtzdHJva2UtbGluZWpvaW46cm91bmQ7c3Ryb2tlLW1pdGVybGltaXQ6NDtzdHJva2Utb3BhY2l0eToxO3N0cm9rZS1kYXNoYXJyYXk6bm9uZTtzdHJva2UtZGFzaG9mZnNldDowO21hcmtlcjpub25lO3Zpc2liaWxpdHk6dmlzaWJsZTtkaXNwbGF5OmlubGluZTtvdmVyZmxvdzp2aXNpYmxlIi8+JiN4YTsgICAgICA8cGF0aCBkPSJtIDM2LjIzOTIyMywyMy43ODE1OTMgYSAxMi43Mjc5MjIsMTIuNzI3OTIyIDAgMSAxIC0yNS40NTU4NDQsMCAxMi43Mjc5MjIsMTIuNzI3OTIyIDAgMSAxIDI1LjQ1NTg0NCwwIHoiIHRyYW5zZm9ybT0ibWF0cml4KDAuNjE2NTk4LDAsMCwwLjYxNjU5OCw5LjM4MjAyLDguNTM5Njc0KSIgaWQ9InBhdGgzMjgzIiBzdHlsZT0ib3BhY2l0eTowLjY0NzcyNzI4O2NvbG9yOiMwMDAwMDA7ZmlsbDpub25lO3N0cm9rZTojZmZmZmZmO3N0cm9rZS13aWR0aDoxLjYyMTgwMDU0O3N0cm9rZS1saW5lY2FwOmJ1dHQ7c3Ryb2tlLWxpbmVqb2luOm1pdGVyO3N0cm9rZS1taXRlcmxpbWl0OjQ7c3Ryb2tlLW9wYWNpdHk6MTtzdHJva2UtZGFzaGFycmF5Om5vbmU7c3Ryb2tlLWRhc2hvZmZzZXQ6MDttYXJrZXI6bm9uZTt2aXNpYmlsaXR5OnZpc2libGU7ZGlzcGxheTppbmxpbmU7b3ZlcmZsb3c6dmlzaWJsZSIvPiYjeGE7ICAgICAgPHBhdGggZD0ibSAyMS45OTU4MDgsMi4xNDg0NjcxIC0wLjg5Mjc4NCw1Ljg3NTA1NzIgYyAtMS42OTg3NywwLjM4Njg3MDMgLTQuODIzNTgyLDEuNTcwMDc5MiAtNi4yNjEzNjcsMi40NjIyNDY3IEwgMTAuMDkxOTc1LDYuOTQwNjI2OCBDIDguODI4MTQ1LDcuOTIxODI1NyA4Ljc0MTQ3NCw3Ljk4ODM2NTYgNy43MzA4NjcsOS4yMjc3Njg4IGwgMy40MzQxOTYsNS4wOTMyMTkyIGMgLTAuOTg1NTI2LDEuNTA2MDgzIC0yLjE2OTI2Nyw0LjE4OTk5NCAtMi41OTQyODUsNi4xMDc5NDIgMCwwIC02LjAxNzc5LDEuMDE0NDI1IC02LjAxNzc5LDEuMDE0NDI1IC0wLjEwMzQ0MSwwLjg0NDg3OSAtMC4wNTM3MjgsMi42NTMxNzMgMC4wMTU4OTIsMy4zNDg5NDggbCA1Ljc0ODIxNywxLjAzNTUxNyBjIDAuNDAyMzkzLDEuOTY0NzkgMS45MDgyMjcsNS4xMjc0MTIgMi45NzQ4MDcsNi43NDczNDEgbCAtMy42MzUwMDIsNC44MDI1NTggYyAwLjk2MzY5OSwxLjE5NjM5MSAxLjE1NjU3MiwxLjMwNTg3IDIuMzU1OTA4LDIuMjY2MDUxIGwgNC44NjA2MzEsLTMuNTYxMDM3IGMgMS42NjUxNCwxLjA2MjIyMSA0Ljk3MDI4OSwyLjM1NDM3NiA2Ljk4NTEzLDIuNzIxMTI3IGwgMC43OTc3MjgsNS44MDEwOTIgYyAwLjYzNDgxLDAuMDU3NzggMi4zODg1MywwLjIxOTg3NSAzLjI3NDk4NCwwLjEwNTc0OSBsIDAuODkyNzgzLC02LjAzODg4IGMgMS45MTMwMTgsLTAuNDc2MDcyIDUuMjE4NDczLC0xLjgzMjkyNSA2Ljc3OTEyNSwtMi45NDMwMjMgbCA0Ljg1NTQzMywzLjUwODE2IGMgMS4xODkyNTQsLTEuMDExNzkyIDEuMTk5OTA5LC0xLjE2NDI0OSAyLjEzOTIxMSwtMi40MTM5OCBsIC0zLjU5ODAyLC01LjExNDMxMSBjIDAuOTAzMjE1LC0xLjU1OTkgMi4wNzEwODcsLTQuNjEwNTk5IDIuMzg4MjgyLC02LjQ1MTQ4IGwgNS44OTA5NDksLTAuOTc3NDQzIGMgMC4wNDkzNSwtMC41ODczMiAwLjA1MTc2LC0yLjIyNTE2NiAtMC4wOTUwNiwtMy4yMjczMDUgTCAzOS4xODIwOTIsMjAuMDE2OTIyIEMgMzguNzM0MDQsMTguMzYyNDYzIDM3LjE5NjQxOCwxNS4zODExNTMgMzYuMjY1MzU5LDEzLjk5MzM0MiBMIDQwLjA4MDA3NSw5LjE5MDc4NTcgQyAzOS4wMzcwNTIsNy45MTUyMTggMzguNjQ5MjQsNy43NDAyMDAyIDM3LjMzODQ0OCw2LjczOTgyMTIgTCAzMi4zMTM5OTQsMTAuMzM3ODM5IEMgMzAuOTE4OTQxLDkuNTEyNzc4MiAyOC4xMzcwOTUsOC4yNTUwNDE3IDI2LjUwNzExNCw3Ljg5NjY4NDIgTCAyNS42MTk1MjgsMi4xNDg0NjcxIGMgLTAuODEzMTE0LC0wLjA5NTY0OCAtMy4xNTkwNCwtMC4wNTMxNzUgLTMuNjIzNzIsMCB6IiBpZD0icGF0aDMyODUiIHN0eWxlPSJvcGFjaXR5OjAuMzQ2NTkwODk7Y29sb3I6IzAwMDAwMDtmaWxsOm5vbmU7c3Ryb2tlOiNmZmZmZmY7c3Ryb2tlLXdpZHRoOjAuOTk5OTk5MjM7c3Ryb2tlLWxpbmVjYXA6YnV0dDtzdHJva2UtbGluZWpvaW46bWl0ZXI7c3Ryb2tlLW1pdGVybGltaXQ6NDtzdHJva2Utb3BhY2l0eToxO3N0cm9rZS1kYXNoYXJyYXk6bm9uZTtzdHJva2UtZGFzaG9mZnNldDowO21hcmtlcjpub25lO3Zpc2liaWxpdHk6dmlzaWJsZTtkaXNwbGF5OmlubGluZTtvdmVyZmxvdzp2aXNpYmxlIi8+JiN4YTsgICAgICA8cGF0aCBkPSJNIDEwLjEwMjkwMyw2LjI5NzA2NTUgQyA4Ljc1NDU2ODksNy4zNDM4Njk0IDguMTY1NjQ2NCw3Ljk3MTkyMjYgNy4wODc0Njg0LDkuMjk0MTk0MiBsIDMuNDAyNDU4Niw0Ljk2NDk1ODggYyAtMS4wNTE0MTk4LDEuNTk4NjAyIC0yLjE1ODI5OTUsNC4xNjY5NjEgLTIuMzQ3NTQxMSw1LjcyODU1MyAwLDAgLTYuMDYyNSwxLjA0NDE5NCAtNi4wNjI1LDEuMDQ0MTk0IEMgMi4wMTA5MTI5LDIxLjU5NTI1NiAxLjkwNjI1LDIyLjg4NDgwMyAxLjkwNjI1LDIyLjg4NDgwMyBsIDAuMTc2Nzc2NywxLjU2MjUgYyAwLjQyNzczLDAuMDg4MzMgMC44NDAxNTUsMC4xNzA1MTUgMS4yODEyNSwwLjIxODc1IGwgMC41LC0xLjUzMTI1IGMgMC4zNDQwNDEsMC4wMjg0OCAwLjY3OTY1MywwLjA2MjUgMS4wMzEyNSwwLjA2MjUgMC4zNTEyMDgsMCAwLjcxODQ1OCwtMC4wMzM4MyAxLjA2MjUsLTAuMDYyNSBsIDAuNDY4NzUsMS41MzEyNSBjIDAuNDQxMjg4LC0wLjA0ODI0IDAuODg0NzcyLC0wLjEzMDQxNSAxLjMxMjUsLTAuMjE4NzUgbCAwLC0xLjU2MjUgYyAwLjY4NTc1NywtMC4xNTk2MjMgMS4zMzIwMDEsLTAuMzg3NzU4IDEuOTY4NzUsLTAuNjU2MjUgbCAwLjkzNzUwMDMsMS4yODEyNSBjIDAuNDAyMzUxLC0wLjE4MjA5NCAwLjc3NTU5NiwtMC4zNzU4MTkgMS4xNTYyNSwtMC41OTM3NSBsIC0wLjUsLTEuNSBjIDAuNTk3MjMzLC0wLjM2MjI1IDEuMTYxNzUyLC0wLjc5NTM0NyAxLjY4NzUsLTEuMjUgbCAxLjI4MTI1LDAuOTM3NSBjIDAuMzI1NjM1LC0wLjI5NjU4IDAuNjQxMTEzLC0wLjYxMTg2MiAwLjkzNzUsLTAuOTM3NSBsIC0wLjkzNzUsLTEuMjUgYyAwLjQ1NDg0NiwtMC41MjU3NDggMC44NTY1LC0xLjA4OTg4MiAxLjIxODc1LC0xLjY4NzUgbCAxLjUsMC40Njg3NSBjIDAuMjE3OTMxLC0wLjM4MDg0NyAwLjQ0MzI5NCwtMC43NTQwOTQgMC42MjUsLTEuMTU2MjUgbCAtMS4yODEyNSwtMC45Mzc1IGMgMC4yNjg0OSwtMC42MzY3NDkgMC40NjQ5ODksLTEuMjgyOTkyIDAuNjI1LC0xLjk2ODc1IGwgMS41OTM3NSwwIGMgMC4wODgzMywtMC40Mjc3MjcgMC4xMzk0NTksLTAuODcxMjEyIDAuMTg3NSwtMS4zMTI1IGwgLTEuNSwtMC40Njg3NSBjIDAuMDI4ODYsLTAuMzQzODQ4IDAuMDYyNSwtMC43MTEwOTcgMC4wNjI1LC0xLjA2MjUgLTFlLTYsLTAuMzUxNDAzIC0wLjAzNDAyLC0wLjY4NzAxNCAtMC4wNjI1LC0xLjAzMTI0OTYgbCAxLjUsLTAuNDY4NzUgYyAtMC4wNDU1NSwtMC40MTk4ODcyIC0wLjEwNTU5MSwtMC44NDE5OTg2IC0wLjE4NzUsLTEuMjUgLTEuMTQ3NDI4LDAuMzk5MzAxIC0yLjU1MjY2LDEuMTUzMTE5NSAtMy41Njg1MTIsMS43ODM0NzA5IEwgMTAuMTAyOTAzLDYuMjk3MDY1NSB6IiBpZD0icGF0aDM3NjciIHN0eWxlPSJvcGFjaXR5OjAuNTtjb2xvcjojMDAwMDAwO2ZpbGw6I2ZmZmZmZjtmaWxsLW9wYWNpdHk6MTtmaWxsLXJ1bGU6bm9uemVybztzdHJva2U6bm9uZTtzdHJva2Utd2lkdGg6MTttYXJrZXI6bm9uZTt2aXNpYmlsaXR5OnZpc2libGU7ZGlzcGxheTppbmxpbmU7b3ZlcmZsb3c6dmlzaWJsZSIvPiYjeGE7ICAgICAgPHBhdGggZD0ibSAzNy4yMzY2NDEsMTcuMjE3NzU0IGMgLTAuMzgzNzgxLDAuMTgxMzc2IC0wLjc0NjYzOCwwLjM4NTc1NSAtMS4xMTM0MDUsMC41OTU1NDEgbCAwLjU2OTY1LDEuNzM0ODQxIGMgLTAuNjk3MDk0LDAuNDIyMyAtMS4zNTQ3MywwLjkxOTY4OSAtMS45Njc4NzgsMS40NTAwMTUgbCAtMS40NzU5MDksLTEuMDg3NTEyIGMgLTAuMzgwMDg2LDAuMzQ1ODk5IC0wLjc0MTc3MiwwLjcwNzU4NCAtMS4wODc1MTEsMS4wODc1MTIgbCAxLjA4NzUxMSwxLjQ3NTkwOCBjIC0wLjUzMDMyNiwwLjYxMzMxMiAtMS4wMjc1NTIsMS4yNzA5NDMgLTEuNDUwMDE1LDEuOTY3ODc4IGwgLTAuNTQzNzU2LC0wLjE4MTI1MiBjIC0wLjA0NzY4LDAuNzAwMjgzIC0wLjIzNjM3OSwxLjM2MTQ4NSAtMC41MTc4NjIsMS45Njc4NzggbCAwLjEwMzU3MiwwLjA3NzY4IGMgLTAuMzEzMTU3LDAuNzQyNjggLTAuNTY0NTQ4LDEuNTMwMzk4IC0wLjc1MDkwMSwyLjMzMDM4MiBsIC0xLjQ3NTkwOCwwIGMgLTAuMTM2MjgzLDAuMDg1NDUgLTAuMjcwNTUzLDAuMTg1MDYgLTAuNDE0MjkxLDAuMjU4OTMxIC0wLjA3ODM3LDAuNDE1MjY3IC0wLjEzNDkxMiwwLjgxNzMyNiAtMC4xODEyNTEsMS4yNDI4NzEgbCAxLjc2MDczMywwLjU2OTY0OCBjIC0wLjAzMzM5LDAuNDAxMjc2IC0wLjA1MTc5LDAuODA3MTk1IC0wLjA1MTc5LDEuMjE2OTc4IC0yZS02LDAuNDA5OTQxIDAuMDE4NCwwLjgxNTcwMSAwLjA1MTc5LDEuMjE2OTc3IGwgLTEuNzYwNzMzLDAuNTY5NjQ4IGMgMC4wNTYwMiwwLjUxNDc1NSAwLjEyOTk5MSwxLjAyODY3IDAuMjMzMDM4LDEuNTI3Njk1IGwgMS44Mzg0MTIsLTAuMDI1ODkgYyAwLjEyODExOCwwLjU0OTk4NyAwLjMwMzA2NSwxLjEwNzQzOSAwLjQ5MTk3LDEuNjMxMjY3IDAuNzQ0OTE2LC0wLjI4NzI4IDEuNDczODMzLC0wLjYzMDE4NSAyLjE0OTEyOSwtMS4wMzU3MjUgLTAuNDExNTg3LC0xLjIxNjA0MSAtMC42NDczMjgsLTIuNTI5MTA4IC0wLjY0NzMyOCwtMy44ODM5NjkgMTBlLTcsLTUuMTk3OTMzIDMuMjkyMzgxLC05LjYzNjY1NSA3Ljg5NzQwNSwtMTEuMzQxMTkxIGwgLTEuMDg3NTExLC0wLjE4MTI1MyBjIC0wLjIyMjc4OCwtMC44MjI2NjIgLTAuNTExMzI0LC0xLjYyODU5MSAtMC44ODAzNjcsLTIuMzgyMTY3IC0wLjAxMDg1LC0wLjAyMjE2IC0wLjAxNDkyLC0wLjA1NTU4IC0wLjAyNTg5LC0wLjA3NzY4IGwgLTAuMDUxNzksLTAuMDUxNzkgLTAuNjk5MTE1LC0wLjY3MzIyMSB6IiBpZD0icGF0aDM3NzAiIHN0eWxlPSJvcGFjaXR5OjAuNTtjb2xvcjojMDAwMDAwO2ZpbGw6I2ZmZmZmZjtmaWxsLW9wYWNpdHk6MTtmaWxsLXJ1bGU6bm9uemVybztzdHJva2U6bm9uZTtzdHJva2Utd2lkdGg6MTttYXJrZXI6bm9uZTt2aXNpYmlsaXR5OnZpc2libGU7ZGlzcGxheTppbmxpbmU7b3ZlcmZsb3c6dmlzaWJsZSIvPiYjeGE7ICAgIDwvZz4mI3hhOyAgPC9nPiYjeGE7PC9zdmc+;" vertex="1" parent="1">
          <mxGeometry x="313.5" y="713" width="44" height="44" as="geometry" />
        </mxCell>
        <mxCell id="QUkc8n2lJ9mTT0OE4B8_-88" value="" style="sketch=0;points=[[0.015,0.015,0],[0.985,0.015,0],[0.985,0.985,0],[0.015,0.985,0],[0.25,0,0],[0.5,0,0],[0.75,0,0],[1,0.25,0],[1,0.5,0],[1,0.75,0],[0.75,1,0],[0.5,1,0],[0.25,1,0],[0,0.75,0],[0,0.5,0],[0,0.25,0]];verticalLabelPosition=bottom;html=1;verticalAlign=top;aspect=fixed;align=center;pointerEvents=1;shape=mxgraph.cisco19.server;fillColor=#005073;strokeColor=none;fontSize=10;container=0;" vertex="1" parent="1">
          <mxGeometry x="388.85" y="261.5" width="51.15" height="93" as="geometry" />
        </mxCell>
        <mxCell id="QUkc8n2lJ9mTT0OE4B8_-87" value="" style="shape=image;verticalLabelPosition=bottom;labelBackgroundColor=default;verticalAlign=top;aspect=fixed;imageAspect=0;image=data:image/png,iVBORw0KGgoAAAANSUhEUgAAAPQAAABwCAIAAACmbMpnAAAAAXNSR0IArs4c6QAAAARnQU1BAACxjwv8YQUAAAAJcEhZcwAAEnQAABJ0Ad5mH3gAABPgSURBVHhe7Z0JeFRFtseLdDpbZyMrdEggYRHF5wMjmzrssgg8BlcYeMBzgUFgGBVBmPfhExUFF0RZXEBwRBCRxVEYF3RYBQSUAZUMyiKQhITOniaBLLxz6fN4TXfXrbpLd9/b1u/LB+c0Ialb91+nTtWtqtuksrKSCAShSBj+LRCEHELcgpBFiFsQsghxC0IWIW5ByBKM2ZK6i+Tk96SsgFQUS39WOkhFEalyEGc5fkMgaWon8SnElkg69CY39pEMQagQQHGDdv+1m/zwD5K3i1yqwQ8NRZiFtO1G+vwXad0ZPxGYGf+LG+L03nXk8Fby62HS2IAfGhwI4Xf+iaRloyswJ/4UN0j54Kdky2tSymE6IqLJH+ZKKheYFr+J+6cdZMtCcu4XdE1K/4mk/x/RFpgNP4i7+CRZ/xw5vh9dszN8JrltBNoCU6G3uI/tJe9NIzVV6IYAMMqc8KYYYpoRXee5d64iyx4JKWUDMHJY8xdpWCwwGzqJGxSwdjb5+EXTzIcooryI/GMF2gLzoIe4L9WQxePI/o/RDUmgUzLjnM9vG805N4TqlX+W5ka0k5hOmljQDgzVJQryjYGTSL/xaAvMgGZxf7aYbH0LbUVkdyLX3Urs7aWn37HJkrIDD7TMwp/J0R3kq2VslWe0J4+uRVtgBrSJ+7vNZPUstDkBTd/yH+SGHiQuBT8xAsUnyduPSAtd5HnyU5KSibbA8GjIuc/+RD56Bm0emrUh4xaQSStJ17uMpWwgLZuMmIO2DKcPoyEwA2rFXVNFlk/hXf8UHUfun0Me+9DQT7Nbd5b6E3kqxZjSTKgV9/a/8s4eQFCc8h7pPEx6GmJwsv4NDRoXgrEoV6AWVeIGWW9/F2152nWTlG2W5XUJrEFtVQkaAjOgStxbXuOaQes0iDy0RMpJBIJgoFzc536RFrIyaXEDufcpE6QigtBFubi3LGQ/Y49LIQ++Li2JNheRMWgIQgKF4i4vYj+MhGgNyjbaZB8PYgNlaKFQ3Ee3oyFD7hApJxEIgo1Ccf+wDQ0a1khp96FAYACUiPtSDTlxAG0avxtlyoREEIooEXfeLsYMIGTbPceiLRAEGyXiProTDRptOosxmcA4KBH3ye/QoHH979AQCAyAEnEzlw2JUz4ERoJb3DVVjDWATe3Sl6kJymGFAr/BLW7mGsCkDDTMC3Pfvtlb728MbnGXF6FBIyENDfNy/hQaNMIj0BCYAW5xV7DEHW/+6e3ik2jQEHvMTAX3HsqfdpAjW9H2SYde1AFl3UVSdJyU5kvbgY2sj2f7MzqoR9dK24QFJkHv49Q8aGwgO1Zds5AwLVvactbyJnSNQ34eWXA/2j4Js5AX9otFvCZCyVSgCpZPIZ++cs0SWej6F4+Tts0bjR9Zy2agQQplmwp/inv3B9KrFLwBrW98nj1CDSRQpO9YOzA69EZDYBL8Ke6dq9DwpqaKHDDS8Wt71hHHGbRpiEdUZsNv4gb5ysvl7FE0gg4U9bNFaNOAoYKYKjEbvAPK8k1LSze9gc4VWr21LywiCh1vqhzk6b5o++S628jDS9AOLjAq2MbazN9vvHRWYMCpzTtQ8MKD6Pgi7vZhqQ9xHCf0m4Q3cjc4K+uLTrt/NZYV47/5JO7K++9kaN4GjeAC3csOevp0lSCtCWu8VOtR7R5fDZXitAkq6tOSOgfrZL2bh6DhTZiFdByIdhCBceSGZ6+ZzPFJ685GnLsUsFAv7vpS1nTHoMnUxRg9Rgd/nyVoetUM6T0nTPpPQENgKtSLu3rvFrRoRERLx156HMBnjSRDHiN3TkU3WLiUffhLdGWAsYF4IY450SDubzZDRogOjcR08sDrZPybkqBvGyEd0zN9E+k1NshPQ/iVDYj9zqZFvbgv1zqd+z5HR5523SRBD58pHV4c9FWjVQ7pVRCcyr6xj1hMYl7UixsoeW/u5YZ6dIwPBOyv3yHPD+F9yYktkQx7Am2BCdEk7ktnjlV+uRodg/Ov3WT+MGkJF+eZ4pA4jZondieYGk3iBhwr5tSdz0fHsBzfLy3hYj5gdweGvJBNCcyMVnE3VJYUPDMa8m/0jUnrzmTicgXvlLp5sDRIEJgcfPxevWdzwZzRro9UEN/r7vRpbzSxhKPvBxqdFTB+vXBkd31pUX1ZUWP5eegxrKkZYYmp4U3Tw5PSo67LtXUdADb+B2+c5dLrqXwuVHQHRpCTVvIcUctTpNhbB1vik/E/KOfC4V1nZwxFRxXJo59MHjUDHeU0XqqtObTdeeCrhvJiuMw6R0GDoyDMlhCelAbXaEmxR7ZsH9t9sNWeg//B/3gXKdKekzF3I/6zGyjuiz8f+vVPmpZ02jr1avbkMi030icgIEjrnd9+AbeZZ/Aa1f4WW5f+CQPHUFUOY8rPFlGfSmZ3IuNelV84oLRI0R26QZHi7/iDXMOjECxxw3VVb99Qtetvzu+38XTLEZntQOKxPYZHtWa9ekUtMkWKuen2FvM+QccNFDd89/H727DnrWWB5mt/cnlk247oawMupuKTt0vWvKxi+URYRFTi7ycm3TcVYgx+5M6+DWTd02i7c9MdZORz0mMmClqK1CTKlnTPlKS7J4OBH3EQFHFX7fzYsXJOXcEJ9JUAbThl1Izw9Cz0dcL57efnl82+dOYY+tdCE7dl5syZ8FeT8IiaI7vrzrG2f8vSWFVW8fd36/J/icy50RLXFD9VReW29YXPja3a9tHli3yTG9cCKqz5cW/55hVh0TbIDfDTq7S4njQ2khMH0XUBSfa9TxF6ZqWxSKS+rubwrsov3m8SFRPVrhN+yKKu6HTl1jXoqAJuPHyhwwI68IJn/7N84xK4lfiRQi6eOFKxZWWDszLmhi4gKvxUAxdPHT33/AOla1+RCSjW9CxoVOi48f8DyoShD6GlDRDBqfFdIYOv+vpDFQNN0KVjxZxz8x5SFzncgfyheMn0wrnjfBRj4CTplT0uIFQPnyk9Q6WgY5EgNS9e9HjhixM0dpL+AHKt04/eUZvHOsiXBVxa2frXT08fAheLH6kFJARFgu4LfYVcs54bdABdEjp6AOmB1Z4NiTj0U0n3ToXMDP+BAqiw4PkHoQ9CXycgU8p4+gPPlBfS7qUPStPeo16Qed+an4oEYwP77FXMLDwwaQm0Xuj0yzctRV8n4Orsz6xTl4VDkUrfn1+y5kX0ZaGlJddMBaZNflnfESE0YuhW4A5BVKiXX/99JdBCM9VdRgD0tqcn9awvOo2+izALeXgpmbpaRtn+KxIEyDNT+3oWKRiAjKBT0l3ZAETuM9MGQX6IPjeuInEqW4ZrxA3KTv/zQr/O6NGA6yl8bhy0BPT1Bio6/39GeOYnEdEyS7j8XaS68/k+ihRwIGbr2127I/V7c0YrTef0KpLnQ5zY7oMzF37tvwkdGnA9zu9ZhytoA2RaOF/BymwDFkl3oEf1R8x2R+ljPh2L5OMJJSgb9A25WsBCeACq2EX1ns0l789DRxYDFkl3IFsrWhiIhfX8bVjfIvkQNwCyhlFI9vKDaRPmxuT2hdGP7wljN1yjRpkv2m5iyGshRqLjf8o+fJXZSxqwSDSaRNk86tnjy2KLx2/1omjJE5B6oeNnoA1fOPgVOnTUFYkmTt7d7xBdSla9gI4vmj222OdcIxPmT3YHxsVxve+FP+G2uToWkAUMWKt3bORPIaCcUFp0fGGcIjFnS5jXQgOS2sK549BhEZHZLq73PbHdh1jt2a4gBWMYGBNX7fpb9fYNnHJ0ZQQy6YCiIkW27Rjf866Y3H4RmW1pPzPI4oY6OjWuI8+kL7RO6EZkfoXz28+LFz3OuUQxa9EO2rjCUEXyk7hBjqfGd+XpLkA3SSOnJY14nCag2uNHihdMgj/Rl0VGJAqKFGVLfeCpxKEPo0/Hd1oSMMrWL+aRka3LgJZLd8s3Hp7vuUrZ2pfR8sKARdIdCLc8MoKALY2+Rs2QCbeKRmil6xai5QVnkaCHzH7jGx5lA0EWN6RiaNGJ63NfxtMfWFPZb26AUAqxIXkke/tM9f6tNAUbsEi6A+kEWnRA2S1f45o3A1lDA7DPZh//cunMMdrUKnu/+f89rIH0D30WwRQ3XCezscKVNJvyCjp8JI2aDiNgdChcrnXWHPLxqm8DFkl3oAkxBwOg12Yzlila4wXdFE8fVb3Hx4GjUCRo2+hQgMIoTcCCKW6f1+kBXI+iKgakG/PYYtrkzFWq9/gIFQYsku5AE2LOOkOezROzPYARCDOsOr/9Ai03an7cyywS5Nn8MdtFMMVde+QbtCgkDBwDPRE6SoAutekI6kIoFzBWQ8sNAxZJd5wHGFNyUFQYQaKjBMjB0h+Zjw6F2rwD3uv7nKxWHdm2I2ee7U5Q0xJWAhDbYzhayonveTdaFHymH/4tUj9Gr80zotJOQzljkU9c73t4Roc+icntCxJHh0J9qWcBmEWK73kXWkoIprjlj9KEOlIXI11Y7TkQgdChUO+1JtO/RUrNYO7k8C6S7jDPwYvtTj/kkQW0CtvNvdCh4H2NzCLF5PZDSwlBE3ejs0J+csCaalcdP1xYm1OX+7nwCCEBKFJkRmu0KHhHNd1hnmBqtTPqTZ6IFoyY0uBVAGaRIjLboqUE3cStdBqrsboCLQraF99aEhg/AdSM1hWY8cOSrPkYE/oeNhceRWKOQVU8rPbWlgfMXyqPJbkZWhTqHJ5PteSLFN40XV1M4RW3JT4JLQoNJefQ0gkVt80DpT+BueI8PEnxDl+NhDdlvLqWqVRvmDmxRjzapzeWWM/914w7FcGICDS4xZ3IqGXv5igPc1qHff43CyNsBdAIs5aYDdKb8CTGrdSY99c7CtGiwNSSXvCKmxm0VGy4kN9kBdLkXJXhE0iTOBc8GBxmLfEvlXbB3NumcRtlTd5+tCgErAPkFbc1hZFu1hWcoO28p8EMIVr2d9Ue2a30rhsT+VqSnu19o+ylnhbWreR5OE8D4tHFnw+hQ4GpJb3gTktS7MwRXsl7c9Hiw9ryerQolK5bqE6gkMM5uNesGhyOWnpV0Wg+siXjUObq7RtUd3pl9KVRLiDjZ7YuveAVtzR/2XUAOhSqdn6saOubrXN/tChAn3v+HV+n57Ao37RU+xEFBoFZSxdPHS35q4KwEtt9MFoUIDQUL5ikYkB/4fCu8k/eRocCqEjjdCo/vOIGYrvfiRad4kWP85/GFNdtIHPWCSpL6UNpyI4U3WyDw1VLShqz1Z7DPNoPInfpB8qW4EIfe+4V9tsMmW1VRxSIOya3L3PBECi7cP4E5mSQC/hp0R3YxwRDlfFn85DzGfPIG9Xw1BJEWbhq/tmhuNuHoUWndM1L/GMel7KZBYCYDW0VHf+jQNwQP+J7MRZsABcOfvXrxNs46yW+30i06ECVnZ7cs2z968yOsvLL1fCrmQMa08FTSzCgP/nHW6EG0JeFZ4UM1Hb+UyNAssxQBV0r/GqejNTWZYDSBZVaUCBuIHnMLJ7HVxA+XfXCnMuL63Mfz9JKiMTnl80+M20QTbgQ2jnvhBnhrCVX+IR6YEZQ+Gmc+4OgtZya1ANClc/IAve3eMn0szOG8nQaELYD/LJj3j2UV3GsmFP64QJ0OIB6jLqhW3hKc6hNnzOsEOnP/vc96HBgTc2I7tjTmp5lTcusc+Q3lJxzfr9N3Xq6FvM+cV8IBRHIT7txrwLikw+uHkW6itJagmqPye0H1Q6V77NhgBxPje/Kn7+F2RJsN/eKaNHOktwMIki9o7Amb7+iTjJx8ANpk33n8ccGyR2bGp6elbPyn+goQbG44cJOjP13FQGSdtsAkFRgljJ7YCJxA+pqSeaswOI3ZwXmbBYAspHsdw7Snh/5SdzK0hIAWrB95nJ9Z3PSp73BfGwm0L2WUsf+Ra/D1JmkT10Y+FusWNxATG5ffZMnyDTss1dpXIwW8uheSxBNfRx+6weg9+CZitAdNeIGEn8/EVIodPQgqv0taY8uQkdAQfdaAmXbn1nn1xkMGA0zz1D2EyrFDaROnJcwcAw6egCNW9p7G6jHVyZFerfWVD1P4oXhZotnP9L36OqrgLI1jlK0oF7cUL9Qy2kT5upY0TBigxGVyL/lgZiSMXejjnKM7tAta8EXka0Yi1iUAtlI8yfeDGK0Ui9uF5CfSImgfuvf/VTRIUbMTbdnvrRFx1qy2nOyFnzJXHbCCeQ5zWYsC1Y2chWt4gZsXQbkvPtPULleY53w9KysRTugO9MSwqF+eU6EMi8Rme2gltIema9XRwc1BnEKUhSf8+KcQJyGwVj2OweDMoL0QAdxAxC5IT9puXQ35Fi6SBzqCFKUVisPJY+ZpbT/hbsOt7z1qh+jO/bEj0IUSUlDH2719j5IAPTqPGNy+2Yu/BoiC3NxlQdQGAj8rd7alzb5ZYMklvqI2wVUB+RYrdf+0nzWSpCm9qQQ2knyyCdyVudlvvT3pndPka9u+HUQLSAZhfqFW65jpmRw4EohAYBqh2uH/pO5M42JK7JkLz8IPQMEF/m5cPjt0qhxxrI2H52CwK+0SfgVxU8o+bncUN/gKKhzFNSXFjWUF8d2GaC93uvO5zeWn68vK4KfWV9SaLHFQ+WGxSZEtunonYRU79l88cQP6Pgiod9I9yLVF52ukH3pY2TOjRqzUqVFUod7LYHaaI88+WmoLKkvLYYfeOWG5ltiEy2JaeFJ6dYUuyVF63EXgPy7JeAuQ6NFRwl+FLdAEFz0TEsEAkMhxC0IWYS4BSGLELcgZBHiFoQsQtyCkEWIWxCyCHELQhYhbkHIIsQtCFmEuAUhixC3IEQh5H8Bc2b3c6sPkjIAAAAASUVORK5CYII=;" vertex="1" parent="1">
          <mxGeometry x="414.65" y="332.5" width="59.35" height="27.25" as="geometry" />
        </mxCell>
      </root>
    </mxGraphModel>
  </diagram>
</mxfile>
